<svg xmlns="http://www.w3.org/2000/svg" width="20" height="20" viewBox="0 0 20 20">
    <g fill="none" fill-rule="evenodd">
        <g fill="#1A1717" fill-rule="nonzero">
            <path d="M1259.004 2720c5.525 0 10.004 4.479 10.004 10.004 0 5.525-4.479 10.004-10.004 10.004-5.525 0-10.004-4.479-10.004-10.004 0-5.525 4.479-10.004 10.004-10.004zm0 2c-4.42 0-8.003 3.584-8.003 8.004s3.583 8.004 8.003 8.004 8.004-3.584 8.004-8.004-3.584-8.003-8.004-8.003zm3.487 5.139l1.415 1.415-4.952 4.952-4.952-4.952 1.415-1.415 3.537 3.537 3.537-3.537z" transform="translate(-1249.000000, -2720.000000)"/>
        </g>
    </g>
</svg>
