<svg xmlns="http://www.w3.org/2000/svg" xmlns:xlink="http://www.w3.org/1999/xlink" width="254" height="293" viewBox="0 0 254 293">
    <defs>
        <path id="2zomi6dbga" d="M0 0L61 0 61 124 0 124z"/>
    </defs>
    <g fill="none" fill-rule="evenodd">
        <g>
            <g>
                <path fill="#EA9A00" d="M81.858 4.187c-.57 1.604-.217 3.58-.23 5.303.025 2.911-.072 5.825.033 8.736.046 12.223 1.095 24.422.784 36.643-.354 11.322-.158 22.66-.456 33.983-.594 11.172-1.126 22.353-.931 33.554.004.864-.01 1.728-.058 2.59-.01.534.362.99.822 1.004 1.195-.071.822-1.749.86-2.695-.21-13.122.739-26.197 1.145-39.296-.317-17.29.767-34.585-.334-51.85-.145-7.29-.497-14.572-.544-21.863-.069-1.46-.202-2.917-.144-4.382.01-.4.038-.793.075-1.191.046-.592-.664-.969-1.022-.536" transform="translate(-204.000000, -2790.000000) translate(204.000000, 2790.000000)"/>
                <path fill="#EA9A00" d="M239.216 5.867c.022.016.043.033.062.052l-.062-.052M98.921 4.273l-.09.01.09-.01M165.418 0c-13.238.216-26.44 1.4-39.678 1.631-7.429-.024-14.836.584-22.265.48-5.8.176-11.543 1.139-17.327 1.575-1.203.117-4.032-.002-2.876 1.896.93.76 3.514-.142 4.767-.098 5.445-.398 10.833-1.492 16.303-1.52 9.26-.139 18.513-.65 27.775-.864 15.185-.355 30.349-1.984 45.547-1.06 7.373.144 14.753.184 22.114.672 13.039 1.528 26.094 2.882 39.23 3.136-.67 4.357-.8 8.746-.763 13.154-.102 5.507-.428 11.009-.322 16.519-.564 14.86.008 29.733-.676 44.59-.836 31.822-2.814 63.597-4.772 95.367-7.04-.743-14.12.563-21.165.065-5.248-.502-10.534-.988-15.81-.804-1.616.078-3.245.249-4.86.087-.71-.17-1.582.057-1.795.836-.402 1.874 1.955 1.685 3.192 1.621 2.469-.073 4.933-.317 7.403-.157 5.402.049 10.762.928 16.161.871 5.452-.2 10.917-.7 16.372-.322 1.153.287 2.518-.214 2.411-1.6.24-1.637.337-3.294.513-4.94.55-6.413 1.02-12.833 1.35-19.26 1.716-24.29 2.647-48.62 3.445-72.952.43-9.382.335-18.78.222-28.168.324-8.271.316-16.542.41-24.817.27-5.473-.16-10.97.262-16.43.315-3.368 1.73-6.076-3.456-5.654-12.832-.115-25.562-1.776-38.307-3.065-11.125-.52-22.27-.64-33.405-.789" transform="translate(-204.000000, -2790.000000) translate(204.000000, 2790.000000)"/>
                <path fill="#EA9A00" d="M81.751 4.57c-.664 2.178-.354 4.482-.255 6.723.08 2.267-.043 4.535.001 6.802-.147 12.82.822 25.627.552 38.452-.169 9.489-1.274 18.927-1.35 28.415-.435 10.473-.892 20.93-.614 31.416.03.965-.318 2.525.942 2.622 1.367-.065.924-1.786.982-2.791-.08-8.72-.062-17.438.465-26.144.179-9.495.79-18.957 1.324-28.434.518-11.638-.065-23.294-.57-34.917.018-6.28.029-12.567-.407-18.832-.026-.961.067-1.933.343-2.85.118-.418-.109-.873-.494-.999-.377-.125-.803.114-.919.536" transform="translate(-204.000000, -2790.000000) translate(204.000000, 2790.000000)"/>
                <path fill="#EA9A00" d="M120.082 2.56L120 2.57l.083-.008m-1.988-.815l-.114.011.114-.01M146.303 1c-6.644.261-13.297-.2-19.937.196-12.989.763-25.969 1.694-38.963 2.464-1.385.16-2.906-.037-4.214.353-.391.317-.136 1.002.405.987 7.9-.449 15.794-.995 23.686-1.54 6.727-.278 13.405-1.035 20.13-1.302 10.741-.173 21.496-.178 32.238.04 11.36.54 22.761-.263 34.07 1.106 13.947.595 27.89 1.26 41.852.912 1.615.035 3.249.078 4.852-.07.614-.124.814-.984.228-1.28-.816-.358-1.818-.104-2.696-.113l.039-.004c-18.27.434-36.562-.011-54.775-1.42-12.31.135-24.608-.318-36.915-.329" transform="translate(-204.000000, -2790.000000) translate(204.000000, 2790.000000)"/>
                <path fill="#EA9A00" d="M196 1.211c-.004.134.122.217.272.234 2.026.303 4.08.209 6.126.176 3.103.047 6.206.204 9.309.282 4.806.152 9.6.3 14.386.708 3.962.093 7.923.094 11.876.364.848.191 1.518-.776.565-1.067-3.171-.187-6.37-.255-9.556-.204-7.383-.187-14.753-.639-22.149-.616-2.79-.158-5.568.024-8.355.084-.59.13-2.333-.476-2.474.04M225.612 3.557l-.04.005.04-.005m-8.11-.513c-.767-.001-2.415.128-.851 1.112 1.794.728 3.728.55 5.588.755 2.035.219 4.052-.174 6.08-.267 2.332.107 4.649.432 6.988.34.579.036.925-.916.513-1.44-.465-.529-1.173-.188-1.739-.225-1.212.066-2.427.068-3.637-.07-4.457-.19-8.953 1.163-13.41.209 1.29-.503 2.758-.027 3.968-.06-1.04-.46-2.362-.43-3.5-.354M240.262 3.604c-.886 2.502-.43 5.253-.924 7.845-.916 7.64-.66 15.331-1.224 22.991-.814 7.38-.658 14.78-.813 22.186-.636 10.044-.04 20.104-.138 30.15-.943 10.62-.235 21.267-.744 31.903-.185 9.46-.866 18.91-1.37 28.358-.125 8.637-.99 17.222-1.745 25.816.082 1.469-1.286 4.645 1.19 4.08 1.068-.695.726-4.426.953-5.732 1.268-10.25 1.397-20.565 2.015-30.86.68-14.035 1.499-28.06 1.157-42.116-.093-5.267.76-10.503.603-15.773-.535-10.437-.215-20.879.009-31.317-.208-7.012.493-13.982.896-20.973.342-5.065.084-10.15.668-15.207.135-1.741.324-3.477.508-5.213.258-1.878-.076-3.846.652-5.635.342-1.021-1.357-1.627-1.693-.503" transform="translate(-204.000000, -2790.000000) translate(204.000000, 2790.000000)"/>
                <path fill="#EA9A00" d="M234.297 176.127c-8.63.294-17.272.72-25.903 1.03-6.358-.007-12.728-.363-19.085-.534-.663-.318-1.613.181-1.215 1.045.419.663 1.385.468 2.044.594 6.31.039 12.598.661 18.9.738 4.959.006 9.918-.398 14.883-.34 2.839.156 5.673-.13 8.512-.179 1.042-.175 2.315.457 3.198-.3.975-.955-.161-2.66-1.334-2.054M216.475 2.026c-.4.082-.593.542-.348.842-.65.873 1.374.657 1.885.853.371.006.97.528 1.208.129.683.007 6.38.55 4.342-.872-2.329-.388-4.704-1.125-7.087-.952M168.923 244.022l.09.015.064-.06-.093-.014-.061.059M139.134 243.144c-.56.69-.386 1.689-.555 2.508-.238 2.427-.556 4.852-.562 7.293-.009 4.119-.1 8.256.257 12.363.231.943.1 2.008.464 2.892 1.335.747.917-1.181.831-1.843-.718-6.793-.486-13.713.267-20.5 1.574 6.453 1.73 13.048 1.876 19.633.049 1.307.23 2.615.04 3.916-.035.666 1.061.836 1.243.179.03-5.428-.045-10.933-.63-16.344-.335-1.245-1.272-11.572-3.23-10.097M189.3 189.744l-.038.084.037-.084m1.855-3.744c-.749.249-.645 1.231-.993 1.82-1.423 3.048-2.669 6.222-4.385 9.123-1.643 2.143-3.241 4.305-4.623 6.634-2.705 3.641-5.595 7.13-8.63 10.491 2.838-7.416 6.054-14.745 10.153-21.544 1.087-1.783 2.272-3.504 3.61-5.102.415-.627-.487-1.388-1.014-.84-4.725 5.669-7.678 12.53-10.85 19.149-.515 1.372-4.45 9.713-3.165 10.223 1.368.486 3.264-3.01 4.338-3.86 4.144-4.58 7.423-9.82 11.13-14.738 1.472-2.473 2.679-5.107 3.94-7.696.3-.955 2.518-3.598.489-3.66" transform="translate(-204.000000, -2790.000000) translate(204.000000, 2790.000000)"/>
                <path fill="#EA9A00" d="M168.012 244.013l-.012.044c.327-.02.649-.013.965.019.013-.022.025-.044.035-.066-.323-.027-.646-.056-.969-.086-.005.03-.01.06-.019.089M209.052 211.687l.037.03h-.001l-.036-.03m16.722-20.664c-3.908.472-7.183 6.74-9.924 9.48-1.063 1.728-10.226 11.408-7.263 12.41.917.27 1.874-.147 2.749-.403 2.676-.909 5.374-1.784 7.946-2.96 6.358-2.767 12.468-6.038 18.474-9.482 1.494-1.006 3.101-2.085 4.215-3.49.169-.53-.44-1.018-.933-.744-.754.472-1.113 1.39-1.925 1.83l.074-.053c-3.504 2.828-7.816 4.46-11.683 6.745-5.83 2.827-11.768 5.628-18.041 7.343 2.154-3.958 5.222-7.365 7.976-10.924 2.516-2.672 4.382-6.155 7.548-8.126.502-.242 1.237-.049 1.575-.555.347-.52-.18-1.232-.788-1.07M236.44 216.359l.002.019-.002-.02m6.608-2.225c-4.226.767-12.716.852-4.785 5.492 1.203.745 2.447 1.424 3.648 2.172.823.343 1.95 1.838 2.786.896.846-1.493-6.964-4.509-7.986-5.953 2.759-.646 5.614-1.126 8.457-1.154 1.14-.103 2.311.467 3.4.26 2.152-2.283-4.39-1.87-5.52-1.713M1 190.491c-.019.666.994.685 1 .018.019-.666-.994-.685-1-.018" transform="translate(-204.000000, -2790.000000) translate(204.000000, 2790.000000)"/>
                <path fill="#EA9A00" d="M17.837 177.572h-.001l.056-.04-.055.04zm-.039.028l.038-.027-.038.027zm-2.107 15.723l.02-.026-.02.026zm-.036.044l.036-.044-.036.044zm-.05.061l.05-.06-.05.06zm2.074-15.741l-.062.044.062-.044zm11.048-.807l-.024.03.024-.03zm5.084-6.177l-.059.071.059-.071zm2.002-5.488c-6.993 3.714-13.681 7.923-20.101 12.572-3.203 2.451-6.936 4.186-9.74 7.14-1.812 1.848-3.984 3.553-4.933 6.042-.178.515.444 1.027.914.742.588-.642.78-1.629 1.418-2.283 2.043-2.273 4.169-4.543 6.613-6.383l-.122.09c2.62-1.7 5.18-3.483 7.683-5.35l-.01.006.11-.08-.008.006.271-.197-.016.011.064-.046-.086.062c5.837-4.213 11.881-8.05 18.18-11.52-2.256 3.825-5.583 6.968-8.339 10.442-4.786 6.6-10.128 12.77-15.546 18.855-3.49 3.406-6.812 7.06-10.573 10.153-1.487.893.164 2.342 1.26.938l-.062.043c3.615-3.289 7.063-6.798 10.45-10.33 3.311-3.702 6.338-7.65 9.636-11.365 3.61-4.734 7.053-9.577 10.955-14.085l-.018.021c1.157-1.575 2.778-3.028 3.176-5.012.114-.743-.708-.855-1.176-.472zM18.031 207c-3.12-.01 1.8 6.7 2.182 8.146 1.544 3.569 3.34 6.99 5.528 10.212.745.925 5.32 8.836 6.206 7.488.913-.563-2.23-3.412-2.58-4.289l.042.059c-.03-.043-.062-.086-.093-.128l.006.008-.231-.318.093.128c-4.42-6.246-7.741-13.177-10.927-20.095 3.313 1.324 5.763 4.243 9.05 5.689 2.043 1.504 3.801 3.395 5.74 5.032 1.036 1.028 1.664 2.54 2.877 3.345.675.228 1.344-.584.967-1.194-.989-1.268-1.927-2.602-3.093-3.717-1.852-1.345-3.404-3.036-5.211-4.43-2.138-1.146-4.203-2.384-6.17-3.812-1.404-.774-2.706-2.082-4.386-2.124M17.953 236.49c-2.29 3.058-4.957 5.956-6.515 9.45-.161.684-.585 1.455-.386 2.148.251.491 1.1.416 1.232-.127.844-4.05 4.117-7.086 6.456-10.404l.01.09-.008-.065c.348 5.644-1.726 11.043-3.304 16.391-.069 1-1.955 4.612-.916 5.005.951.36 1.554-3.845 1.979-4.608 1.14-3.646 2.462-7.263 3.084-11.035l-.025.155c.151-1.299 1.554-9.563-1.607-7M44.609 170.186l-.03.037.03-.037M49.156 151c-3.051 2.878-4.41 7.122-5.723 11.026-1.344 3.337-2.02 6.851-2.94 10.313-.199.725-.559 1.467-.483 2.23.203.668 1.003.484 1.274-.04 1.409-1.895 2.824-3.782 4.35-5.585 2.498-2.89 5.063-5.711 7.205-8.886 1.57-1.981 3.534-3.62 5.054-5.627.458-.712-.673-1.43-1.12-.696-.113.236-.23.464-.408.661-2.226 2.482-4.613 4.842-6.432 7.67-2.522 3.273-5.489 6.183-7.896 9.554 1.235-5.39 2.807-10.76 5.108-15.797.48-.919 1.046-1.787 1.674-2.61.445-.61 1.99-2.155.337-2.213M157.572 205.083c-.33.185-.507.675-.291 1.02.913 1.465 1.856 2.91 2.771 4.374 1.525 2.492 2.828 5.124 4.697 7.37-3.219-1.25-6.596-2.019-9.818-3.27-1.115-.347-2.197-1.09-3.335-1.214-.772.17-.805 1.386-.034 1.59 3.64 1.496 7.407 2.639 11.164 3.78 1.255.286 2.39 1.25 3.672 1.267 1.106-.358.426-1.607.024-2.29-2.502-3.558-4.628-7.373-7.031-11.011-.504-.59-.832-2.063-1.819-1.616M157.709 264.774l-.005.035.005-.035m17.707-35.962l-.075.093.075-.093m1.476-1.842l-.03.038.03-.038m-.78-1.046l-.056.07.056-.07m1.55-1.768c-2.428 2.608-4.511 5.519-6.393 8.553-4.393 5.94-8.114 12.452-10.74 19.396-.961 3.552-2.541 6.897-3.385 10.482-.657 2.862-.743 5.823-1.144 8.73-.024.61.949.656.953.016.262-2.21.481-4.427.768-6.635.865-4.826 2.985-9.307 4.384-13.984l-.056.128c3.87-9.017 9.433-17.142 15.552-24.71-.7 7.72-2.029 15.403-3.722 22.96-2.386 8.275-4.777 16.562-7.457 24.74-.245 1.614 1.907 1.522 1.886-.067 3.622-11.822 7.867-23.571 9.29-35.937v.01c.436-3.037.869-6.08 1.167-9.134-.042-1.062 1.037-5.596-1.104-4.548M185.313 251.297l-.044.055.044-.055m.546-2.697l-.088.11.088-.11m10.265-2.013l-.124.09.124-.09m22.341-22.48c-.998 1.791-2.376 3.276-3.594 4.905-1.087 2.178-2.835 3.8-4.635 5.381-3.457 3.665-6.994 7.127-11.209 9.91-4.8 3.709-9.807 7.628-15.627 9.486 3.438-4.302 6.802-8.703 10.393-12.875 6.98-7.285 15.196-13.314 24.672-16.807m1.557-2.084c-8.716 2.513-16.874 7.488-23.352 13.896-5.375 4.685-9.18 10.788-13.641 16.301l.1-.123c-3.973 4.961 3.661 2.355 5.645.978 4.795-2.597 9.117-5.907 13.377-9.298 3.74-2.477 6.46-6.1 9.649-9.196 1.448-1.365 2.858-2.78 3.758-4.589 1.542-2.096 3.214-4.076 4.558-6.322 1.245.048 1.14-1.902-.094-1.647M216.915 240.004c-.917-.145-2.22 6.89-2.575 7.978-.559 2.354-3.94 18.512-1.414 19.017.392.016.772-.323.76-.707-.124-1.528-.168-3.06-.04-4.588.431-5.624 1.697-11.168 3.085-16.636.111 3.9.8 7.779.497 11.693-.02 1.272.035 2.549-.133 3.814-.112.39.106.827.521.936 1.61.352 1.067-3.243 1.25-4.208.339-3.737-.018-7.46-.475-11.169-.296-1.38.649-6.286-1.476-6.13" transform="translate(-204.000000, -2790.000000) translate(204.000000, 2790.000000)"/>
                <path fill="#161616" d="M202.17 163.655c-.249-.893-.43-1.74-.661-2.615.538.053 1.08.038 1.622.078-.392.844-.659 1.674-.96 2.537zm11.276-1.282c-.792-.475-1.532-.78-2.403-1.15-1.18-.817-2.394-1.672-3.607-2.393 1.07-.864 2.171-1.846 3.243-2.68.965 2.079 1.822 4.132 2.767 6.223zm.922-.085c-.994-2.21-1.914-4.495-2.915-6.72.97-.71 1.75-1.44 2.597-2.243-.04 1.423.19 3.015.195 4.403.027 1.518-.055 3.038.123 4.56zm-8.21-4.294c-.152-.108-.305-.215-.461-.323.792-2.083 1.22-4.285 2.771-5.977.535 1.056 1.104 2.117 1.602 3.184-1.336.952-2.649 2.026-3.912 3.116zm-1.3-.885c-1.57-.945-3.309-1.742-5.116-2.277-.626-2.044-.983-4.192-1.366-6.196 2.065.286 4.107.094 6.17.285.358.028.741.026 1.103.082.422.077 1.021.252 1.244-.242.281.562.67 1.152.936 1.716-1.87 2.248-2.298 3.874-2.97 6.632zm6.006-2.827c-.545-1.175-1.154-2.379-1.712-3.465 1.63-2.211 3.764-4.127 5.86-5.825-.566 2.115-.727 4.303-.89 6.458-1.126.96-2.052 1.928-3.258 2.832zm-4.68-6.59c-2.21-.52-4.372-1.063-6.294-2.276.092-.274.025-.584-.139-.859.824-.725 1.625-1.477 2.42-2.237 1.377 1.769 2.705 3.55 4.014 5.373zm-7.397-4.19c-.144-.137-.29-.273-.44-.406.462-1.285 1.204-2.272 1.852-3.324.349.514.768.966 1.007 1.547-.796.736-1.594 1.472-2.42 2.184zm8.289 3.714c-1.303-1.875-2.81-3.795-4.182-5.583.94-.844 1.825-1.695 2.8-2.551.242 2.76.966 5.398 1.382 8.134zm14.375-4.32c.156-.826.31-1.77.382-2.522.771-.457 1.555-.896 2.307-1.379-.823 1.307-1.927 2.595-2.689 3.9zm-24.017-.547c-.082-.063-.165-.125-.249-.187-.522-3.044-1.158-6.143-1.505-9.205 1 1.969 2.501 3.943 3.79 5.782-.692 1.136-1.536 2.36-2.036 3.61zm4.645-1.835c-.254-.768-.59-1.469-.87-2.208 1.89-2.417 2.631-5.493 4.935-7.588-.532 2.112-.748 4.41-.561 6.59-1.17 1.088-2.306 2.11-3.504 3.206zm10.73-10.002c.286-2.088.345-4.153.227-6.24.307-.26.65-.507.977-.739 1.211.3 2.563.493 3.835.518-1.384 2.4-3.09 4.513-5.039 6.46zm-12.138 6.425c-1.078-3.064-2.158-6.177-3.2-9.252 2.621-2.502 5.433-4.746 7.984-7.321 1.115.566 2.098.753 3.22 1.234-.62 2.171-1.245 4.341-1.889 6.47-1.416 1.45-2.942 2.851-3.939 4.644-.592 1.396-1.391 2.963-2.176 4.225zm2.347-19.62h-.002c.051-.076.303-.447.347-.515-.113.179-.23.343-.345.516zm5.686.192c-.167 0-.334-.002-.502-.005.779-.794 1.662-1.626 2.436-2.419-.251.865-.458 1.524-.773 2.392-.387.006-.786.037-1.16.032zm3.717-.207l-.023-.462c.091-.268.143-.597-.072-.853-.03-.415-.08-.84-.136-1.253-.089-.381-.015-.808-.249-1.135.824-.883 1.426-1.89 1.934-3.015 2.284.503 4.893.565 7.227.81.748.084 1.508.07 2.26.085.645-.013 1.375.055 2.028-.085.035.034.117.094.16.12 1.255 3.12 2.667 5.869 4.111 8.86-.782-.26-1.681-.352-2.473-.505-1.446-.186-2.908-.685-4.335-1.072.255-.393.482-.815.72-1.219.407-.465.356-1.353-.389-1.37-1.113.384-2.235 1.318-3.287 1.861-2.527-.514-4.825-.917-7.476-.767zm23.434-9.103c-.029-.008-.06-.012-.092-.015.073-.18.133-.382.204-.627-.055.21-.083.428-.112.642zm-36.7-1.23l.08-.141c.005.022.023.044.04.064l-.12.077zm-5.375 11.686c-.22-1.153-.287-2.346-.463-3.511 1.661-2.116 4.057-3.793 5.906-5.64 1.397-1.814 3.342-2.87 5.142-4.17 1.25 1.112 2.743 2.066 4.119 3.016-2.301 2.436-4.841 4.643-6.375 7.631-1.594 2.152-2.206 4.806-3.415 7.163-.584.962-1.236 1.855-1.815 2.823-.863-2.42-1.692-5.121-3.093-7.34l-.006.028zm31.013-8.7c-1.476-.612-2.985-1.107-4.409-1.844-1.384-.683-2.624-1.607-3.92-2.424 1.042-1.804 2.403-3.43 3.336-5.28 1.748 3.166 3.267 6.378 4.993 9.549zm-29.926-11.942c.661-.155 1.23-.626 1.826-.959 1.243 1.865 2.954 3.392 4.393 5.114-1.464 1.658-2.904 3.365-3.673 5.485-1.165 2.019-3.069 3.662-4.322 5.698-.314-3.446-.656-6.803-1.369-10.161.165-.248.083-.61-.16-.784-.004-.03-.015-.093-.021-.123.19-.013.36-.12.456-.281.945-1.597 1.788-2.877 2.651-4.029.067.027.141.04.22.04zm18.53 5.843c-1.187-.77-2.502-1.624-3.588-2.39 2.423-1.85 5.074-3.733 7.315-5.928.686 1.295 1.41 2.558 2.12 3.852-1.282-.18-4.617 3.583-5.846 4.466zm-12.273-9.75c1.027-.674 2.238-1.31 3.176-2.08 2.346.886 4.676 1.2 7.153 1.705-2.326 1.477-4.055 2.794-6.353 4.523-1.948-1.131-3.754-2.295-6.043-2.683.684-.453 1.371-.965 2.07-1.467l-.003.003zm-.307-3.058c.027-.054.09-.113.128-.157l.042.018c-.06.03-.12.096-.17.139zm12.9 1.288c-1.733-1.318-3.24-2.593-5.028-3.914.889-.726 1.75-1.48 2.637-2.2 1.108 1.778 2.244 3.819 3.389 5.528-.33.185-.673.396-.998.586zm-22.433 8.42c-.223-.774.027-1.618-.32-2.358-.741-2.73-1.522-5.618-1.999-8.44.942-1.037 1.634-2.824 2.536-3.968 2.148 1.415 4.493 2.876 6.93 3.828-1.017 1.172-1.455 2.665-2.247 3.964-1.657 2.301-3.542 4.535-4.9 6.974zm-2.606-12.406c-.36-1.905-.59-3.511-.984-5.471.92.85 1.84 1.704 2.839 2.468-.688.96-1.272 1.975-1.855 3.003zm27.702 2.431c-1.038-1.939-2.403-3.905-3.666-5.66 1.196-.848 2.457-1.898 3.339-3.017.315 2.755 1.435 5.14 1.899 7.84-.544.277-1.03.522-1.572.837zm-12.924-6.587c-2.12-1.425-4.554-2.74-7.16-3.396 1.004-1.344 2.433-2.593 3.686-3.826 1.601.855 3.653.85 5.182 1.855.527.292.838 1.02 1.496 1.056.25.344.48.647.7.924-1.456.881-2.689 2.19-3.904 3.387zM193.551 80c-2.241-.576-4.496-.939-6.742-1.654-.865-5.927-.985-4.92 1.618-10.146 2.29 2.47 4.618 4.284 7.288 6.366-.95 1.84-1.725 3.438-2.164 5.434zm-7.596-8.91c-.248-1.895-.473-3.836-.633-5.734.792.694 1.647 1.372 2.385 2.122-.558 1.161-1.215 2.47-1.752 3.612zM175.032 59.93l-.095-.122c.01.01.022.014.036.014.004.008.058.102.059.108zm35.358-.217c-.003-.02-.007-.043-.013-.065l.128-.1c-.047.04-.085.106-.115.165zm-13.698-3.59c.128-.212.327-.428.487-.616l-.487.616zm-11.032-13.76c.02-.165.058-.5.076-.665-.028.202-.012.416-.017.618-.017.008-.037.024-.059.046zM184.258 27c-1.013.094-.589 1.412-.685 2.095-.015.907-.003 1.865.03 2.708.12 4.015-1.227 7.964-1.042 11.971-.068 2.692.341 5.525.92 8.188-.042 2.528.11 5.06.317 7.607-1.665-.39-3.47-.645-5.242-1.096-.455-.106-.917.166-.86.653.34.934 1.64 1.46 2.349 2.146 1.29 1.056 2.622 2.06 3.985 3.086.133 1.683.306 3.434.493 5.15l.014-.076c.057.715.151 1.461.237 2.2-1.031-1.301-2.561-2.146-3.786-3.233-1.33-1.453-2.128-3.206-3.095-4.957-1.535-3.66-2.8-7.42-5.315-10.541-1.617-2.223-3.483-4.422-5.237-6.54-.405-.484-.924-1.01-1.25-1.614-.215-.37-.446-.905-.949-.917-1.262.123-.252 1.808-.22 2.522.574 2.025 1.346 4.032 2.249 5.92.718 2.685 2.116 5.211 3.791 7.422 2.597 3.434 5.572 6.588 8.657 9.613.976.974 2.11 1.426 3.07 2.416.502.392.936 1.294 1.622 1.246.255.31.47.598.689.906.093 1.376.224 2.74.423 4.04-.705-.203-1.592-.612-2.34-.689-.516.051-.697.761-.28 1.053 1.109.983 2.172 2.092 3.212 3.108.465 2.242.798 4.514 1.184 6.765-1.616-1.468-3.335-2.936-4.71-4.634-1.104-1.464-1.74-3.184-2.817-4.645-.48-.72-.911-1.476-1.404-2.187-1.998-2.856-4.531-5.253-7.13-7.453-2.86-2.165-5.947-4.501-8.039-7.54-1.054-.687-1.483.69-.688 1.39 1.244 2.522 2.459 4.71 3.994 7 1.047 1.901 1.953 3.859 3.53 5.408 2.777 2.575 5.818 4.959 8.67 7.394.542.365.97.86 1.467 1.242.756.607 1.639 1.22 2.26 1.91 1.173 1.286 2.562 2.409 3.83 3.609.35.348.766.85 1.292.732l.184.15c.558 2.689 1.156 5.355 1.905 7.985.085.42.316.842.264 1.28.023.737.258 1.406.358 2.128-.064-.05-.175-.08-.248-.118-.532-.73-1.429-1.144-2.124-1.705-.943-.671-1.767-1.8-2.746-2.573-2.632-2.566-4.41-6.122-7.371-8.51-2.916-2.492-6.232-4.386-9.54-6.227-.247-.14-.622-.362-.871-.504-.672-.39-1.854-1.387-2.304-.2.012 1.285.872 2.401 1.327 3.62.533 1.31 1.318 2.492 2.104 3.681 3.462 4.946 7.864 5.322 12.656 8.11 1.557 1.047 3.193 2.063 4.676 3.188.659.504 1.368 1.004 2.05 1.45.503.28.969.895 1.599.719.32.164.728.315 1.09.427.983 4.196 1.268 8.738 1.838 12.961-.119-.265-.43-.487-.58-.747-.117-.18-.247-.392-.359-.576-1.252-2.075-2.71-4.036-4.104-5.997-1.697-2.296-3.278-4.69-5.618-6.377-3.517-2.55-7.673-3.609-11.473-5.5l.062.04c-.937-.492-1.881-.7-2.765-1.238-.575-.426-1.557-.98-1.902.014-.18.525.372.948.522 1.417.434 1.11 1.367 2.021 2.031 3.003l-.106-.167c1.509 2.408 3.959 4.135 6.316 5.611 3.744 2.53 8.019 4.193 11.539 7.077 1.969 5.444 4.211 10.542 7.13 15.593-3.332-3.034-5.54-6.795-8.237-10.372-3.647-4.41-9.327-6.345-14.15-9.051-.79-.782-2.09.299-1.297 1.185.792 1.325 1.347 2.806 2.085 4.168.927 1.854 2.152 3.368 3.558 4.893 1.126 1.026 2.39 1.75 3.606 2.676 2.35 1.837 4.92 3.457 7.532 4.833 1.977.934 3.661 2.28 5.56 3.344.885.342 1.794 1.873 2.675 1.15l.03.008h-.003c.345 3.264.823 6.165 1.407 9.339-1.99-2.917-4.695-5.27-7.554-7.35-3.528-2.058-7.288-3.712-11.004-5.327-.869.008-.919 1.184-.185 1.484.3.15.643.298.94.447.735 2.21 1.761 4.158 2.974 6.13 1.442 1.384 3.276 2.21 5.026 3.117-1.373-.39-3.077-.478-4.46-1.063-.974-.06-.908 1.227.01 1.35.464 1.025 1.021 2.055 1.413 3.103.23.761.471 1.551 1.318 1.741 2.013.844 3.987 1.997 6.08 2.61 2.275.684 4.519 1.3 6.86 1.668.363 1.95.727 4.206 1.267 6.056l-.011-.018c-2.78-1.004-5.73-1.236-8.611-2.032-.869-.252-1.692-.592-2.557-.872-.797-.394-1.406.371-.988 1.099 1.687 4.856.358 2.883 4.587 5.36 4.114 2.431 4.472 2.862 9.389 2.904.426 1.552.794 3.081 1.236 4.57-.05.131-.008.283.106.385.673 3.004 2.026 5.787 3.29 8.545.222.627 1.054 2.305 1.653 1.105.017-.597-.6-1.026-.717-1.598-1.23-2.847-2.51-5.579-3.182-8.615.778-.094.817-1.098 1.226-1.613.502-.777.97-1.573 1.44-2.37 1.736.314 3.57.625 5.193 1.27 1.486.4 2.506 1.382 3.863 1.909 1.462 3.436 3.001 6.862 4.343 10.35.046.343.408.597.735.437.723-.456-.109-1.472-.265-2.046-1.236-2.809-2.369-5.632-3.662-8.388.008-.41-.236-.836-.242-1.243.412-.665.282-1.557.494-2.329.105-.792.302-1.61.579-2.366 1.452-3.927 2.979-8.14 4.199-12.202.86-1.427 1.717-2.847 2.617-4.252.961-1.418 2.205-2.732 2.73-4.402.207-.525-.04-1.223-.675-1.223-1.225.316-2.175 1.367-3.297 1.884.092-1.913-.197-3.595-.423-5.511-.296-.773.225-4.986-1.144-4.435-.407.221-.464.718-.645 1.091-.13.326-.467 1.11-.594 1.421-1.663 3.777-2.44 7.726-3.594 11.618-2.565 1.874-5.09 4.037-7.005 6.627-.243-.478-.326-1.007-.425-1.511.465-.248.309-.89.399-1.331.062-1.087.562-2.437.873-3.406 1.124-3.324 2.187-6.543 2.916-10.035.003-.065.048-.183.106-.221.847-.95 1.774-1.834 2.646-2.761 1.773-1.883 3.148-3.991 4.476-6.248 1.578.044 3.131-.104 4.693-.055 2.173.001 4.623.102 6.617-.987.955 2.452 2.269 4.893 3.223 7.345.57 1.033 1.784-.227 1.253-1.016.473-1.082-1.86-4.479-2.298-5.845-.38-.858-.627-1.332-.907-1.906.444-.728.554-1.745 1.015-2.446.59-1.068 1.204-2.174 1.754-3.244 1.158-2.314 1.958-4.874 2.082-7.48.15-1.727.006-3.475-.108-5.182.05-.489-.54-.989-.778-.357-.084.372-.207.744-.36 1.095-.359.902-.7 1.733-1.092 2.64-1.79 3.923-3.38 8.152-3.619 12.482-1.177-2.894-2.878-5.81-4.016-8.691-.162-.748-.307-1.523-.46-2.273.707-.347.208-1.598.408-2.165.226-1.586.312-3.18.882-4.676 1.004-2.975 2.539-5.441 3.57-8.28.961-2.514 1.407-5.047 1.569-7.652.558-3.873.094-7.778-.205-11.656-.058-.4-.027-.981-.182-1.356-.324-.617-1.083-.242-1.103.366-.17.779-.392 1.518-.647 2.33-.845 2.708-1.917 5.453-2.706 8.108-1.591 5.174-4.14 10.506-3.736 16.1.148 2.774.424 5.674 1.1 8.431-.725-1.554-1.768-2.983-2.537-4.519-1.206-2.347-2.476-4.517-3.608-6.87.315-.945.105-2.016.247-3.001 1.856-1.999 3.975-3.753 5.751-5.805.744-.49.611-1.787-.43-1.606-1.629.868-3.189 1.946-4.806 2.83.547-4.05 1.138-7.889.683-12.004.58-.697 3.735-3.317 2.414-4.104-.958-.386-2.02.61-2.939.876-.537-2.635-1.335-5.346-2.07-7.982l-.036.059c-.56-2.423-1.424-4.696-2.48-6.888-.183-.36-.276-.742-.59-1.061-.578-.46-1.14.23-.996.85l.052-.045c.148 5.891.59 11.682 1.05 17.564-2.182 1.155-4.376 2.496-6.42 3.869-.505-.686-1.007-1.396-1.498-2.09-.61-.61-1.148-1.234-1.748-1.798-.884-.775-1.615-1.686-2.307-2.47 3.249-3.366 5.46-8.317 7.819-12.446.586-1.01 1.158-1.924 1.634-3.064.277-.44.1-1.15-.485-1.156-.527.027-.956.534-1.36.809-2.796 2.328-5.335 4.299-8.037 6.823-1.29 1.557-2.672 3.074-3.796 4.797-2.182-2.07-4.376-3.86-6.975-5.587.657-.86 1.158-1.44 1.796-2.22l-.126.121c2.236-2.632 4.59-4.78 6.341-7.803 2-3.372 3.364-6.574 5.181-9.983.52-.652-.189-1.637-.936-1.141-.425.318-.764.77-1.167 1.13-2.01 1.954-4.257 3.625-6.004 5.827-2.108 2.254-3.862 4.386-5.106 7.226-.934 1.742-.854 3.83-1.834 5.567-1.6-1.085-3.143-1.833-4.938-2.428.017-.557-.04-1.176-.039-1.743.77-1.754.495-3.822.68-5.669.746-3.99 1.68-8.078 1.902-12.128.173-2.8-.905-5.353-1.743-7.935-.327-1.058-.45-2.129-.707-3.212-.29-.734.02-2.204-1.027-2.299z" transform="translate(-204.000000, -2790.000000) translate(204.000000, 2790.000000)"/>
                <path fill="#161616" d="M211.536 132.347l-.048.06.048-.06m5.325-11.336c-1.064.427-1.827 1.407-2.748 2.079-.902-.885-1.843.801-2.547 1.285-1.42 1.396-2.848 2.781-4.259 4.186-1.015-1.013-2.982 3.351-3.72 4.06-.7 1.648-3.728 4.574-3.362 6.073-.568.947-5.113 6.332-2.33 6.306.593-.154.655-.909.946-1.37.39-.282.707-.65 1.05-.986.818 1.197 4.894-4.744 5.85-5.474.517-.684 1.252-1.223 1.654-1.983.109-1.452-1.32-.763-1.877-.1.308-.465.66-.898 1.022-1.32.832 1.573 2.15-.678 2.939-1.245-.093.46.274.89.725.905.952-.075 1.318-1.286 1.981-1.86.902-.837 6.904-7.51 5.133-8.334.906-.746 1.055-2.382-.457-2.222M226.268 136.005c-3.533 2.638-6.564 5.866-10.301 8.267-.937-.838-1.412.707-1.92 1.247-.77-.57-3.559 2.414-4.23 3.017-1.298 1.288-2.394 2.757-3.434 4.25-.777 1.294-.71 2.903-1.466 4.225l.064-.142c-.143.264-.308.583-.135.872-.83 1.84-1.797 3.601-2.745 5.384-.98.625-.809 2.263-1.1 3.3-.042.558.8.801 1.078.31.988-3.277 2.908-6.165 4.516-9.174.21.002.403-.11.511-.28l.001.006c.223-.29.407-.61.676-.863.874 1.193 2.905-2.312 3.843-2.774.51-.738 5.229-3.843 2.915-4.22.156-.234.281-.525.19-.803 2.184-2.203 4.504-4.277 6.933-6.215 1.248-.839 3.111-1.622 3.207-3.314.456-.51 3.497-3.234 1.397-3.093" transform="translate(-204.000000, -2790.000000) translate(204.000000, 2790.000000)"/>
                <g transform="translate(-204.000000, -2790.000000) translate(204.000000, 2790.000000) translate(0.000000, 148.000000)">
                    <mask id="03icvrccab" fill="#fff">
                        <use xlink:href="#2zomi6dbga"/>
                    </mask>
                    <path fill="#161616" d="M20.589 123.058l-.064-.029.064.029m.13.057l-.121-.053.12.053M2.567 3.532l-.068.026c.022-.01.045-.019.068-.026m.319-.25l-.028.035.028-.035M25.528.012c-5.853 0-11.67.628-17.485 1.22-1.88.438-6.656-.533-6.98 1.83-.234 4.935-.188 9.91-.712 14.84-.532 6.43-.363 12.872-.12 19.31.065 6.558-.306 13.115.005 19.674.394 6.58 1.341 13.145 2.624 19.608 2.17 9.343 5.819 18.285 9.251 27.219 1.783 4.874 2.999 9.961 5.408 14.592.925 1.6 1.506 3.688 3.075 4.755 4.145 1.248 8.665.772 12.956.94 5.765-.063 11.554.038 17.251-.999 1.256-.45 5.922-.159 5.418-2.003-.135-.547-.685-.854-1.223-.739-3.082.638-6.18 1.21-9.306 1.586-5.027.447-10.09.446-15.133.476-2.354-.307-8.14.519-9.651-1.117l.095.132c-3.76-5.836-5.383-12.631-7.833-19.044-3.717-9.61-7.718-19.245-9.615-29.416C1.585 62.47 1.14 51.895 1.62 41.33c.126-6.47-.468-12.937.01-19.403.477-6.135.873-12.288 1.137-18.427 8.894-.6 17.749-1.929 26.687-1.623 10.34.287 20.567 2.273 30.543 4.912.97.293 1.448-1.244.448-1.522-.651-.167-1.303-.328-1.951-.506C47.765 1.87 36.678-.177 25.528.012" mask="url(#03icvrccab)"/>
                </g>
                <path fill="#161616" d="M40.395 164c-.921.467-.02 1.173.566 1.364 1.08.616 2.138 1.277 3.235 1.858.938.508 1.885 1.002 2.771 1.61.618.222 1.417 1.663 2.026.991.21-1.263-4.297-3.189-5.294-3.924-1.123-.54-2.117-1.635-3.304-1.899M36.54 186.009c-1.778.318-3.47.883-5.27 1.132-.482.075-1.51.189-1.22.737.153.521 4.043-.793 4.78-.885.566-.281 2.16-.154 2.17-.769-.049-.155-.263-.255-.46-.215M30.317 199.095l-.097-.011.097.01m-1.888-.058c-.73.12-.454.927.278.797.996-.12 2.007.257 2.97.147.996-.656-.569-.84-1.27-.875l.152.016-.242-.026.054.006c-.642-.069-1.296-.15-1.942-.065M14.21 153.02c-.74.597.695 1.577.912 2.228.448.556.672 1.362 1.297 1.752 1.445-.013-.232-1.627-.469-2.174-.529-.496-.853-2.022-1.74-1.805M22.199 152c-.479.385.057 1.491.058 2.14.165.56.036 1.879.548 1.86.451-.364-.022-1.447-.022-2.07-.172-.578-.065-1.944-.584-1.93M19.462 238.02c-.643.36-2.732.54-2.433 1.735.496.805 1.91-.628 2.646-.68.558-.164.339-1.233-.213-1.055M18 243.393c.162.796 2.034.382 2.666.607.436.015.45-.77.012-.78-.617.113-2.53-.663-2.678.173M252.65 203.29l-.01.067.01-.068m-3.815-4.265l.081.036-.081-.036M191.252 185c-6.586.442-13.302 1.004-19.586 3.146-.8.52-4.196.907-3.923 1.939.331 1.166 2.955-.513 3.808-.624 3.936-1.394 8.072-2.092 12.22-2.475l-.167.019c1.262-.143 2.523-.299 3.785-.442l-.1.012c4.092-.48 8.2-.122 12.29.161 4.813.316 9.648.5 14.413 1.293l-.2-.03c9.411 1.281 18.423 4.248 27.14 7.94 2.612.983 5.256 1.892 7.802 3.04 2.985 1.166 4.78 2.563 3.53 6.021-1.857 7.003-5.988 13.273-9.347 19.644-6.563 10.09-13.929 19.653-20.948 29.43-6.268 7.363-14.46 18.208-24.32 20.18-2.74.632-5.542.713-8.334.433-4.497-.039-8.972-.438-13.459-.701-13.345-.316-26.317-3.53-39.302-6.311-2.693-.651-5.442-1.132-8.046-2.096-1.223-.439-2.144 1.483-.955 2.133 6.029 2.211 12.507 2.976 18.734 4.492 11.188 2.785 22.654 3.894 34.15 4.358 9.071.645 19.21 1.458 26.72-4.672 9.573-7.342 16.69-17.237 23.637-26.963 6.19-8.784 13-17.22 17.609-26.99 2.236-4.94 7.104-11.81 5.14-17.297-1.864-2.906-6.195-3.672-9.178-5.103-6.877-2.536-13.564-5.697-20.776-7.204-10.575-2.535-21.502-3.095-32.337-3.333" transform="translate(-204.000000, -2790.000000) translate(204.000000, 2790.000000)"/>
                <path fill="#161616" d="M246.903 203c-.105.18-1.235.99-.806 1 .104-.179 1.235-.99.806-1M239.2 209c-1.884 1.74-3.327 4.151-4.179 6.48-.067.169.032.37.196.46.613.284.81-.519 1.116-.835.8-1.127 1.388-2.364 2.24-3.466.362-.702 2.594-2.543.626-2.639M230.754 224c-.523.586-1.935 2.271-1.735 2.997.449.083.823-1.396 1.244-1.722.114-.31 1.218-1.19.49-1.275M224.51 233.069c-.306.283-4.966 3.172-3.049 2.915 1.134-.867 2.241-1.762 3.446-2.558.277-.21-.126-.58-.396-.357M211.406 248.11c-1.628 1.556-3.1 3.314-4.79 4.789-.498.5-2.117 1.103-1.462 2.039.176.122.407.057.518-.135 1.321-1.158 2.61-2.373 3.82-3.685.79-.824 1.585-1.638 2.396-2.436.333-.341-.15-.925-.482-.573M199.935 262.161c-.673.594-2.626 1.854-1.682 2.75.698.36.964-.46 1.297-.848.374-.393.808-.736 1.247-1.067.604-.494-.276-1.354-.862-.835M224.31 198.246c-.848.802.28 1.548.565 2.302.15 1.03 1.17 2.09 2.032.979.51-1.063-1.172-4.462-2.597-3.28M221.218 208.184c-.778.673.71 2.372 1.565 1.634.774-.675-.704-2.377-1.565-1.634M143.336 74.676l-.028.014.028-.014m-3.678-16.65c-.643.37.191 1.197.193 1.74.753 2.987 1.688 5.946 2.752 8.84 1.697 3.481 3.668 7.873-2.636 5.382-.258-.323-.889-.335-.967.13.305 1.103 1.803 2.01 3.017 1.867 6.363-.757 3.533-4.45 2.131-8.195-.713-2.022-1.606-3.982-2.209-6.04-.438-.787-.602-3.07-1.617-3.13-.098-.29-.254-.734-.664-.593M126.148 54.655l.13-.068-.13.068m5.975.534l-.026-.03.026.03m.023.025l.054.058-.077-.083.023.025m-3.75-1.212c-4.62-.055-6.825 7.53-4.398 5.718.992.192.59-1.493 1.202-1.996 1.299-2.178 4.644-3.098 6.343-.861.249.291.48.74.932.687.85-.155.487-1.177.164-1.668-.794-1.518-2.65-1.916-4.243-1.88M129.352 64.112l-.071.096c-1.764.41-1.734 4.614.263 4.79 1.859.1 1.884-4.064.384-4.637.071-.294-.386-.498-.576-.249M146.198 62.1c-1.546.604-1.79 4.335.43 3.858 2.018.46 1.755-4.734-.43-3.858M128.667 74c-.018.004-.037.011-.054.019-.36.561-.684 1.29-.6 1.9.788.373.585-.647.757-.925-.032-.276.599-.995-.103-.994M130.459 73.056c-.293.35-.914 2.237.095 1.905.256-.205.129-.592.253-.867.15-.394.481-1.33-.348-1.038M132.938 73.003c-.332.051-.109.345-.13.504.065.156-.092.482.254.492.314.028.195-1.068-.124-.996M134.39 72.192c-.015.534-.767 1.439-.142 1.808.663-.102.447-1.278.746-1.724.073-.305-.533-.392-.605-.084M146.92 69.038c-.125.263-.311 2.013.098 1.96.342-.106.113-.707.187-1.026-.014-.308.177-1.162-.284-.934M148.171 68.208c.116.514-.636 1.587.325 1.792.767-.286.238-1.194.495-1.701.103-.332-.743-.423-.82-.091" transform="translate(-204.000000, -2790.000000) translate(204.000000, 2790.000000)"/>
                <path fill="#161616" d="M149.027 68.01c-.403.692-.112 1.69.127.267l-.01.04c.06-.137.03-.367-.117-.307M140.169 81.422l.033.022-.033-.022m4.531-1.403c-1.105 1.668-3.083 2.848-4.76 1.226-.2-.22-.482-.469-.771-.245-.6.64.557 1.472 1.056 1.763 1.777.722 4.193-.256 4.693-2.24.156-.205.094-.615-.218-.504M144.404 137.401c-.212.305-.442.611-.656.915l.042-.055c-.155.229-.313.456-.464.687.01-.013.018-.026.027-.04l-.022.033.025-.03c-1.804 2.567-4.5 8.692-.755 10.584l-.016-.015c.252.177.519.313.832.363-.137 1.104-.259 2.217-.402 3.32.68.314.573 1.34-.152 1.524-.515 4.288-.74 8.6-.959 12.91l.008-.188c-.014.315-.03.63-.04.945-1.584-4.055-3.51-7.963-5.469-11.86-.443.217-.858.589-1.368.363l-.035.027c2.168 4.535 3.966 9.22 6.131 13.756.3.995 1.383 2.123 1.99.657.272-2.468.286-4.975.504-7.455.403-4.835 1.332-9.613 1.894-14.432.018-1.51.942-3.622-.03-4.905-.415-.356-1.138-.21-1.361.28v-.003c-.332 1.065-.544 2.177-.867 3.257l-.218-.142c.873-.665-.076-1.779.098-2.66.144-1.895.656-3.799 1.738-5.405l-.013.018c.352-.544.766-1.05 1.134-1.585-.4-.449-.901-.809-1.289-1.265-.111.119-.207.257-.307.401" transform="translate(-204.000000, -2790.000000) translate(204.000000, 2790.000000)"/>
                <path fill="#161616" d="M136.288 157.32c-.087.053-.185.087-.288.1.552 4.056 2.87 7.618 3.91 11.561.362.932.897 1.766 1.41 2.611.662 1.028 2.2-.09 1.503-1.105-1.076-1.413-1.598-3.11-2.251-4.755-1.149-2.95-3.268-5.53-3.744-8.732-.191.109-.372.217-.54.32M92.75 271c-.42.03-.755.43-.71.835-.253 1.672.697 3.311 2.36 3.854 2.166 1.033 3.554-.779 1.812-1.496-4.185-.135-1.457-2.989-3.463-3.193" transform="translate(-204.000000, -2790.000000) translate(204.000000, 2790.000000)"/>
                <path fill="#161616" d="M106.1 284.847c-3.216-1.08-6.603-1.635-9.963-1.98-2.132-.317-5.908-.853-7.602-2.213-1.322-1.542-.329-5.462.089-7.316.05-.124.109-.488.158-.614.26-.31.635-.741.328-1.135.903-3.055 2.51-5.986 3.692-8.935 1.6-4.441 3.92-8.742 5.72-13.138 2.791-5.907 4.768-12.165 7.012-18.29 2.33-6.609 4.377-13.14 6.525-19.82 1.224-4.467 2.589-8.746 4.475-13.025 2.09-4.578 4.391-9.143 6.478-13.712 1.182 1.652 2.396 3.403 3.575 5.032 1.544 2.237 3.094 4.606 5.467 6.038 1.816 1.386 4.06 2.47 6.445 2.663 1.596.252 3.155.406 4.78.319-2.2 4.028-4.976 7.645-7.147 11.656-6.25 10.895-12.612 21.763-18.349 32.922-2.717 4.805-4.909 9.809-7.202 14.865-1.27 3.533-3.859 7.13-1.629 10.884 1.62 2.77 4.999 3.83 7.613 5.37 5.171 2.871 10.977 4.377 15.904 7.72l-.015-.015c.103.072.208.14.314.206l-.018-.013.019.012-.04-.028c2.024 1.46 4.742 2.019 6.885 3.091.179.366.308.856.16 1.215-2.77.373-5.419-.848-7.885-1.955-1.417-1.03-3.235.637-1.5 1.73 1.347.79 3.35.94 3.795 2.687-1.267-.311-2.315-1.154-3.49-1.68-.905-.398-1.81-.778-2.704-1.185-.84-.318-1.595.75-1.011 1.419.837.657 1.75 1.236 2.28 2.19.167.31.623.619.438 1-1.41.028-3.182-1.036-4.39-1.78-.24-.172-.467-.355-.68-.58-.21-.284-.468-.493-.818-.494-1.066.032-1.06 1.39-.28 1.879.754.548 1.564.931 1.977 1.828-2.084.005-3.954-4.134-6.117-3.211-2.566-.58-4.995-1.287-7.521-1.953.02.01.048.021.068.029-1.965-.605-3.938-1.061-5.884-1.703l.057.024-.01-.004M97.415 71.583l.076-.1c-.238.406-.584.753-.863 1.093.277-.342.535-.668.787-.993m20.917-7.606c.105-.327.24-.706.38-1.044-.178.489-.325.993-.5 1.484.038-.147.079-.293.12-.44m15.213-27.968c-2.912.006-5.576.528-8.35 1.31-1.311.211-2.376.805-3.542 1.369-1.513.753-3.143 1.589-4.488 2.72-3.757 3.16-6.566 6.446-9.274 10.397-.825 1.158-1.631 2.34-2.306 3.604-.832 1.292-1.303 2.868-2.444 3.919-2.125 2.15-4.932 3.632-6.454 6.334-.272.256.052.684.325.35.512-.526 1.01-1.075 1.533-1.59 1.141-1.242 2.605-2.132 3.882-3.225-1.992 3.851-3.542 8.058-6.552 11.272-.958 1.131-1.906 2.303-3.016 3.284-.344.316-2.354 1.915-.922 1.837 1.86-1.009 3.205-2.847 4.755-4.253-1.876 4.119-3.011 8.621-2.69 13.165-.09 5.049 3.545 8.68 8.41 9.356.63-.204 1.758-.716 2.056.177 1.968.095 3.677-.089 5.661.301 1.78.317 3.59 1.131 5.418.52.13-.537.723-.868 1.252-.72.262-.24.451-.472.65-.744.682-.465.396-1.46.494-2.175.058-1.226.118-2.468.152-3.69.075-2.516.15-5.078 0-7.57-.179-.819.162-3.18-.47-3.639.13-1.777-1.28-1.707-1.134-.575-1.873-.331-4.036-.046-4.471-2.538.074-1.336.837-2.584 1.942-3.333.665-.278 1.387-.385 2.078-.57 1.462.994 1.654-1.613 2.086-2.417.773-2.16 1.535-4.292 2.177-6.518.764-2.688 1.768-5.26 2.821-7.82 1.45-3.82 2.988-7.737 5.147-11.184.157.124.372.09.559.122.436.804 1.509.326 2.26.534 1.558.383 3.096.56 4.656.849 1.256.289 2.36.623 3.584.947 2.206.65 4.092 2.162 6.072 3.238.609 1.098.97 2.24 1.318 3.496-1.25-3.078-5.698-2.12-5.907.955-.223.559.671.743.696.137.653-1.317 2.125-2.665 3.642-1.686.487.245 1.256 2 1.638.814.75 3.252 1.364 6.481 2.146 9.706.53 3.5 1.015 7.15 1.296 10.63.371 4.855 1.623 10.522-2.094 14.474-1.946 2.693-5.258 3.81-8.082 5.368-1.532.893-1.943 2.908-2.608 4.427-.734 2.004-1.558 3.962-2.04 6.076-.718 2.443-.895 4.978-1.554 7.404-.629 2.302-1.276 4.61-1.79 6.939.093.118.187.25.246.346.127-.69.962-1.083 1.505-.604l.001-.001-.002-.003c.29-.203.303-.58.35-.898.444-2.3.867-4.597 1.422-6.865 1.059-3.27 2.183-6.479 2.993-9.829-1.323-.026-.845-1.637.322-1.248.462-1.743.72-3.777 2.584-4.625-.581 1.606-.712 3.303-.426 5.005 2.42.19 1.685 2.234.368 1.444.816 2.384 3.068 1.583 3.42-.596v.007l.004-.009c.12.59.418 1.114.69 1.636.7-.756 1.438.15 1.943.66.457-.717.415-1.47.57-2.333.97 2.517 2.774 3.123 3.572.13 2.342 5.52 4.876 10.911 6.915 16.587.364 1.032 2.57 3.214 1.507 4.12v.003l.004-.002c1.724 4.745 2.486 10.103 3.605 14.943 1.101 4.8 2.285 8.933 3.088 13.795.294.15.358.534.158.803.608 3.082 1.714 6.034 2.445 9.095.884 3.2 1.571 6.567 2.929 9.628.22.81 1.515.713 1.435-.195-.182-.766-.42-1.445-.674-2.205-.867-2.66-1.322-5.83-2.062-8.588-.48-2.79-.825-5.616-1.603-8.339-.89-3.224-1.612-6.83-2.45-10.182-1.113-4.282-2.26-8.572-3.208-12.894l.001.025c-.128-.63-.3-1.341-.44-1.965 0 .005-.002.015 0 .02-.818-3.764-2.005-7.351-3.31-10.91-.773-2.787-2.215-5.418-3.44-8.083-.54-1.276-1.205-2.52-1.78-3.77-.6-.898-.595-2.478-1.678-2.905-.412-.477-.624-1.353-1.303-1.507-.45-.085-.912.239-.985.691-.23.839-.202 1.916-.762 2.664-.913-1.193-1.43-2.75-1.47-4.213.109-.854-.98-1.165-1.198-.273-.336 1.468-.432 3.024-.725 4.546-.84-1.173-1.147-2.665-1.068-4.02-.009-.365.146-.903-.275-1.099-.705-.267-.802.726-.943 1.196-.306 1.096-.52 2.37-1.112 3.329-.756-2.085-1.11-4.441-.235-6.473.562-.8 1.462-1.175 2.255-1.67.689-.318 1.308-.73 1.954-1.133.38-.179 1.136-.211.912-.814 1.234-.742 2.386-1.264 3.592-2.167.697-.327 1.449-.535 2.19-.72.667-.05 1.43-.715 2.023-.322.51.311.99.652 1.477 1.137 2.03 2.661 3.546 6.133 4.867 9.234 1.37 3.056 2.77 6.086 4.018 9.301 1.567 3.912 2.975 7.91 4.611 11.795 1.572 4.027 3.66 7.698 5.243 11.73 3.322 7.274 6.558 14.58 8.674 22.294 1.79 5.94 3.352 12.494 3.436 18.685-.067 9.218-6.635 9.183-13.028 4.996-1.383-.944-2.593-1.997-3.283-3.415-.353-.573-.718-1.139-1.152-1.653-.013-.11-.1-.211-.212-.232-.117-.233-.31-.358-.555-.378-1.9-2.677-3.5-5.489-5.169-8.334-1.387-1.96-2.491-4.154-3.635-6.267-.079.115-.16.26-.248.386-.055.733-.92 1.114-1.498.705 1.858 3.525 4.05 6.872 6.091 10.289 1.018 1.547 2.16 3.19 3.243 4.625.874 1.066 1.522 1.763 1.513 3.098 1.824 6.744-2.235 12.237-5.883 17.398-3.272 4.569-6.805 9.12-10.346 13.583-7.043 8.615-12.944 18.136-19.833 26.851-3.753 5.111-7.788 10.014-10.964 15.518-2.215 3.426-4.226 7.194-3.334 11.396 1.83 5.683 6.653 7.915 10.775 11.633 1.934 1.585 3.504 3.338 5.407 5.015 1.33 1.284 3.58 3.216 3.964 5.036-2.016-.14-3.674-2.996-4.563-2.671-1.242.78.77 2.01 1.338 2.64-.222.036-.402.208-.485.412l-.02-.01v-.001c-3.113-1.468-5.729-3.661-8.943-4.945-5.008-1.916-9.84-4.247-14.565-6.805-4.901-2.44-2.023-7.111-.519-10.791 1.91-4.295 3.87-8.324 5.975-12.496 6.408-12.155 13.406-24.053 20.239-35.977 2.136-4.164 5.368-7.877 7.012-12.263 6.004-.567 9.355-6.137 9.883-11.716.357-2.823.911-5.614 1.064-8.462.573-7.928 1.12-15.98 1.198-23.877-.509-.71-1.03-1.413-1.516-2.138-.821.616-.336 1.82-.415 2.698.037 1.552.035 3.095.001 4.655-.174 4.792-.367 9.512-.698 14.319-.208 3.402-.587 6.797-1.148 10.158-.451 3.202-.97 6.587-3.002 9.236-1.972 2.622-5.384 3.41-8.524 3.413-2.76-.054-5.666-.248-8.035-1.744-3.197-2.03-4.24-3.743-6.27-6.734-1.472-2.106-2.945-4.073-4.35-6.181-1.592-2.436-2.848-4.877-4.697-7.065-.383.48-.791.938-1.186 1.41 1.739 2.202 2.91 4.753 4.417 7.096-1.344-.253-1.725 2.127-2.32 3.027-.72 1.483-1.572 2.987-2.275 4.492-2.469 4.596-4.617 9.348-6.17 14.256-.987 3.077-1.76 6.213-2.826 9.248-4.452 13.463-8.716 27.142-14.866 39.932-2.4 3.132-5.414 5.507-8.08 8.267-2.053-5.059-1.998-10.737-3.351-16.025-1.349-4.76-3.491-9.58-4.693-14.388-2.633-10.093-.817-20.52.763-30.605 4.706-4.594 8.764-9.684 13.55-14.19 2.388-2.29 4.82-4.458 7.282-6.65 1.243-1.096 2.465-2.252 3.77-3.291.622-.592 1.614-1.084 1.906-1.966-.324-.369-.647-.739-.968-1.11h-.004l.003.005c-.92.283-1.539 1.171-2.343 1.693-2.211 1.834-4.293 3.803-6.449 5.754-5.937 5.463-11.573 10.98-17.079 16.901-.613-.135-.951.464-.912 1.005-1.145.494-1.742 1.5-2.994 2.284-1.561 1.109-3.253 2.71-4.807 3.934-5.472 4.082-10.522 8.576-15.951 12.64-3.52 2.7-7.086 5.419-10.448 8.355-5.59 4.516-8.764 9.8-8.947 16.98-.884 10.24 5.99 19.728 14.697 24.538 7.304 3.95 15.915 5.13 24.036 3.644 3.52-.66 7.109-2.23 10.365-3.907 1.43-.79 4.732-1.515 3.265-3.73 1.682-1.537 3.344-3.02 4.988-4.645-.196.478-.385.961-.567 1.445h-.002c-1.576 4.007-3.637 7.8-4.538 12.09-.275 1.053-.35 2.195-.384 3.27-.15.976-.357 2.112-.242 3.052.148 1.455 1.274 2.63 2.588 3.178 1.92 1.235 4.327 1.19 6.489 1.721 3.553.649 7.103 1.15 10.576 2.1l-.023-.014c.352.129.692.226 1.04.34l-.03-.011.022.007h-.001.001v-.002l.002.003c2.988.937 5.779 2.083 8.8 2.805 1.211.36 2.455.6 3.702.774.575.027 1.206.333 1.753.077 1.5.698 2.73 2.12 4.443 2.124 1.07-.017 2.333-.144 1.805-1.53 1.899 1.3 5.62.918 3.963-2.073 1.615.986 6.339 2.624 4.808-1.027 1.784.132 3.938.552 5.405-.632.828-1.15.793-2.993-.342-4.02-.814-.55-1.527-.82-2.393-1.132.076-.044.124-.12.174-.193 3.787 1.913 3.876-2.11 2.069-4.381-1.937-2.936-4.845-5.139-7.347-7.675-2.687-2.528-5.788-4.406-8.428-6.939-5.726-5.594-.832-11.172 2.414-16.503 4.393-6.447 9.666-12.82 14.273-19.127 3.98-5.188 7.61-10.767 11.637-15.877 4.548-5.765 9.154-11.507 13.488-17.6 3.55-5.185 8.267-11.272 6.323-17.926 3.557 2.618 8.095 4.738 12.538 3.304 6.898-3.204 4.23-15.293 3.052-21.367-1.128-5.022-2.748-9.888-4.368-14.782-2.062-5.47-4.781-10.71-7.025-16.056-1.718-3.762-3.597-7.273-5.116-11.076-2.114-5.343-4.057-10.793-6.386-16.036-2.111-4.295-3.681-8.91-6.663-12.728.083-.13.129-.298.112-.464 1.082-1.53 2.657-2.736 3.603-4.386 2.598-4.452 2.554-8.956-.03-13.402-2.117-3.624-4.047-7.413-6.082-11.058 1.232 1.633 2.198 3.449 3.814 4.743.51.64 1.155 1.313 1.664 1.968.266.34.705-.099.44-.417-.656-1.47-1.74-2.663-2.819-3.829-1.452-1.813-2.94-3.548-4.265-5.483-2.019-3.326-3.822-6.998-6.189-10.131-1.171-1.44-2.146-3.292-3.703-4.447-1.517-1.158-2.957-2.503-4.796-3.121-2.231-1.114-4.564-1.678-7.143-1.588" transform="translate(-204.000000, -2790.000000) translate(204.000000, 2790.000000)"/>
                <path fill="#161616" d="M120.96 182.678c.16 1.199-1.852 3.687-.476 4.269 1.844.524 2.213-2.972 2.497-3.976.238-1.075-1.801-1.376-2.021-.293M111.44 201.065c-.22.353-.767 1.777-.17 1.935.659-.049.46-1.12.722-1.582.068-.298-.31-.538-.552-.353M144.132 205.15c-.267.564-1.565 1.14-.984 1.77.706.437 1.683-1.038 1.852-1.53-.025-.368-.608-.533-.868-.24M145.458 206.004c-.475.223-1.918 1.384-1.312 1.905.762.434 1.172-.807 1.735-1.125.295-.3 0-.834-.423-.78M162.312 182.367c.01.745-.682 2.227-.036 2.633.644 0 .494-1.843.717-2.474.083-.58-.602-.747-.681-.16M164.326 182c-.737.164.032 1.928-.154 2.607.043.576.876.494.826-.085-.162-.672.093-2.381-.672-2.522M159.596 173.983l-.048.156.048-.156m-2.025-18.932c-1.327.742.37 2.3.396 3.388.837 3.11 1.152 6.374.686 9.574-.378 3.587-1.455 7.035-2.651 10.415-.233 1.153-1.453 2.799-.497 3.801-.147.793-1 2.265-.093 2.763.24.05.515-.134.543-.385.041-1.707 1.163-3.124 1.684-4.701 1.197-3.15 2.18-6.394 3.03-9.655.683-3.304.209-6.703-.515-9.955l.049.217c-.423-1.987-.965-3.87-2.201-5.5-.146-.025-.291-.015-.431.038M88.383 255.002c-.216.02-.415.234-.379.462.172.481-.066 1.502.631 1.536.55-.078.325-.696.29-1.073-.06-.354-.041-.961-.542-.925M100.218 272.026c-.543.13.035 2.247.564 1.945.532-.348-.076-1.166-.08-1.694-.06-.215-.3-.333-.484-.25M101.158 270.001c-.47.068.215 2.25.648 1.975.145-.055.236-.239.174-.392-.321-.44-.15-1.63-.822-1.583M143.61 173.012c-.353.43-.707 2.182-.586 2.82.625.693.586-.954.762-1.426l-.026.105c.098-.473.564-1.64-.15-1.5M144.444 174c-.713.124-.314.974-.39 1.442.096.493-.351 1.37.346 1.556.808.051.544-.97.6-1.455-.082-.497.247-1.527-.556-1.543M174.456 167.002c-.763.167-.322 1.138-.39 1.642.023.292.44.46.71.285.407-.39.12-1.063.195-1.557-.004-.224-.273-.39-.515-.37M176.424 166.002c-.574.064-.397.66-.402 1.022.006.371-.074 1.005.535.975.763-.165.288-1.117.38-1.62-.009-.228-.268-.398-.513-.377" transform="translate(-204.000000, -2790.000000) translate(204.000000, 2790.000000)"/>
                <path fill="#EA9A00" d="M103.566 96c-1.991.196-3.707 1.932-5.372 2.758-4.295 2.387-7.664 6.247-10.672 10.098-3.4 4.468-6.29 9.4-9.148 14.14-1.051 1.658-2.409 3.103-3.491 4.734-3.8 5.145-8.59 9.779-11.588 15.328-4.436 8.005-7.177 16.81-11.175 25.03-2.263 4.617-5.626 9.207-7.35 13.954-2.814 8.801-3.085 18.23-7.325 26.602-3.513 7.749-7.573 15.678-7.442 24.34.056 3.625.91 7.081 2.423 10.391.281.537.208 1.698 1.026 1.621.247-.053.477-.368.379-.619-.323-2.12.423-4.377 1.046-6.254 1.418-4.405 5.018-8.093 8.555-10.897 3.078-2.754 6.445-5.188 9.675-7.71 5.45-4.077 10.51-8.567 16.004-12.663 1.56-1.222 3.26-2.835 4.824-3.941 1.259-.788 1.853-1.79 3.005-2.289-.041-.54.301-1.143.915-1.006 5.523-5.933 11.18-11.46 17.136-16.932 2.163-1.955 4.252-3.927 6.47-5.765.808-.524 1.427-1.41 2.352-1.697l-.097-.115c1.736 1.9 3.42 3.97 4.898 6.048.952.958 1.524 2.425 2.612 3.17 1.126 1.123 1.624-.954 2.215-1.611.93-1.305 2.184-3.017 3.17-4.335 3.646-4.32 7.333-8.672 10.677-13.174 2.388-2.377 4.729-4.89 7.148-7.162l-.058.04c.432-.31.781-.64 1.183-.969.868.25 1.47-.625 2.36-.87.758-.26 1.798-.512 2.63-.729.827-.171 1.65-.35 2.473-.549.72-.155.85-1.207.183-1.527.137-1.097.253-2.204.385-3.302-.3-.05-.555-.185-.796-.361l.03.03c-3.596-1.845-1.029-8.007.709-10.544l-.052.065c.157-.236.31-.474.466-.712l-.087.122c.327-.448.627-.946.97-1.376 2.567 2.427 4.373 5.375 6.319 8.235 2.477 3.809 5.186 7.442 7.664 11.236.401 1.012 1.92 1.368 2.141.047.788-1.426 2.148-2.103 3.231-3.225.481-.685 3.71-2.937 2.571-3.616-.805-4.87-1.992-9.012-3.097-13.82-1.124-4.852-1.887-10.214-3.617-14.97-.011.004-.02.01-.03.015.986-.864-.47-2.116-.815-3-1.22-2.132-2.659-4.136-4.156-6.09-1.165-1.756-2.505-3.365-3.789-5.03-1.21-1.448-2.006-3.052-3.561-4.204l.026.025c-.63-.492-1.388-1.78-2.235-.917-.273-.523-.572-1.048-.693-1.639-.368 2.19-2.613 2.985-3.435.6 1.209.773 1.755-.98.445-1.277-.94-.063-3.88-1.352-4.112.035-.018.43.398.685.81.664-.814 3.355-1.942 6.571-3.004 9.847-.556 2.272-.98 4.574-1.426 6.877-.048.318-.061.698-.352.9l.021.021c-.54-.505-1.401-.113-1.53.589-.23-.345-.523-.727-.765-1.077l.005.008c-.777-1.092-1.227-1.917-2.08-3.082l.016.023c-3.18-4.845-6.059-9.097-9.202-14.013l.015.023c-.774-1.057-1.585-2.085-2.486-3.034-.528-.856-1.91-1.437-2.321-.17-1.835.612-3.65-.204-5.435-.52-1.991-.392-3.708-.208-5.681-.303-.089-.31-.374-.52-.708-.52" transform="translate(-204.000000, -2790.000000) translate(204.000000, 2790.000000)"/>
                <path fill="#161616" d="M141.663 96.235c-.1.401-.162.81-.201 1.224-.045.044-.078.097-.099.156-1.054.233.43 6.115 1.341 3.879.936-.062-.664-2.569-.497-3.35-.12-.574-.08-1.15.079-1.718.12-.417-.51-.612-.623-.191" transform="translate(-204.000000, -2790.000000) translate(204.000000, 2790.000000)"/>
                <path fill="#161616" d="M142.02 101.294c-.248.676 1.917 1.042 1.98.284.01-.283-.347-.453-.705-.435-.44-.123-1.078-.308-1.275.15" transform="translate(-204.000000, -2790.000000) translate(204.000000, 2790.000000)"/>
                <path fill="#161616" d="M141.18 97.111l.014-.07-.014.07m-.008.043l.008-.043-.008.043m1.001-2.994c-.858 1.307-2.262 6.455.253 6.84.79-.166.478-.803.216-1.205-.389-.808-.395-1.689-.364-2.539.117-.92.055-1.904.65-2.738.312-.37-.469-.738-.755-.358M138.242 96.052c-.416.771-.313 1.967-.576 2.874-.209 1.23-.633 2.447-.666 3.705.18.7.853.299.82-.33.587.245.94-3.887 1.18-4.616h-.002c.003-.127-.056-.257-.155-.308-.035-.086-.116-.163-.196-.186.1-.457.202-1.425-.405-1.14M145.01 99.262c-.14 1.09 1.148 4.99 2.715 3.334.836-1.083-.458-2.142-.918-.716-.752-.644-1.273-1.644-1.207-2.608.012-.355-.584-.367-.59-.01M161.838 120.951l.034.076-.034-.076m-2.516-4.937c-1.15.333 1.123 4.694 1.412 5.58.178.44.924.574 1.203.143.263-.697-.376-1.46-.501-2.165-.244-.767-.587-1.535-.578-2.34.012-.236.033-.47.052-.706.035-.452-.739-.627-.958-.223-.107-.212-.37-.348-.63-.29M144.625 152.036c-.173.116-.142.404-.185.613-.566.022-.253 2.277-.425 2.878-.116.503.484.683.52.15.425-.221.203-1.967.382-2.577.055-.383.26-1.291-.292-1.064M101.29 94.558l.027.025-.028-.025m-1.03-2.488c-.789.704.427 1.925.955 2.423 1.76 2.436 4.655 2.626 7.293 2.464 2.526-.08 5.095-.272 7.545-.967 1.085-.18 1.343-1.915.223-2.266-.634-.162-1.234.22-1.865.262.01 0 .018-.002.028-.003-1.012.135-2.004.4-3.017.528l.273-.033c-3.482.246-8.498 1.621-10.698-2.172-.14-.286-.482-.388-.737-.236" transform="translate(-204.000000, -2790.000000) translate(204.000000, 2790.000000)"/>
                <path fill="#161616" d="M116.922 95.19l.005.048-.005-.048M94.547 83.27c-.925 2.033-.514 4.627.039 6.753.82 2.223 2.58 4.068 4.397 5.528 2.775 1.537 6.041 2.262 9.196 2.336 2.293-.307 9.567 1.407 8.759-2.558 0 .01.002.02.003.029-.068-1.306-1.583-1.09-1.302.535-1.584.44-3.203-.03-4.8-.118-2.362-.132-4.716-.319-6.936-1.205-4.3-.678-7.97-4.353-7.739-8.89.007-1.136.208-3.47-1.617-2.41M118.292 66.145c-.336 1.042-.358 2.28-.562 3.394-.109-.468-.727-.451-.73.071.16.82.303 1.646.402 2.483.278.902.069 2.343.814 2.876.376.148.749-.257.743-.716-.307-2.146-.37-4.319-.072-6.477l-.01.077c.095-.637.41-2.36-.585-1.708" transform="translate(-204.000000, -2790.000000) translate(204.000000, 2790.000000)"/>
                <path fill="#161616" d="M117.273 77.72l.075.037-.08-.035.005-.002m-1.014-9.684c-3.705 1.795-6.477 9.2-1.785 11.504 1.062.36 3.337 1.107 3.526-.725-.268-2.213-4.222-.642-3.921-5.323.098-1.199 1.377-1.5 2.24-1.836.387-.055.783.236 1.15.041 1.039-1.029-.734-1.472-1.455-1.255.49-.506 1.5-.757 1.286-1.71-.106-.483-.6-.851-1.041-.696" transform="translate(-204.000000, -2790.000000) translate(204.000000, 2790.000000)"/>
                <path fill="#FEFEFE" d="M102.36 172.743l.053.042-.053-.042m-23.333-16.42c-.36.916 2.965 1.294 3.65 1.823 2.644 1.52 5.35 3.006 7.787 4.841 3.776 3.397 6.783 7.58 11.093 10.403.336.216.62.69 1.064.599.705-.248.299-.944-.19-1.19-5.817-3.727-9.193-10.229-15.49-13.286-.914-.63-7.458-4.667-7.914-3.19M135.691 153.674l.014.037-.014-.037m-14.653-37.62l.015.02-.015-.02M119.005 113c-.09.938 1.014 1.623 1.511 2.354 1.035 1.264 1.72 2.756 2.487 4.19 2.852 5.38 4.673 11.296 6.355 17.14 1.546 5.707 3.902 11.13 5.346 16.867.253.491.234 1.518.961 1.445.613-.202.229-.827.062-1.23-1.392-5.356-3.523-10.46-4.96-15.8-2.553-8.831-5.672-18.148-11.762-24.966M145.543 122.049c-.816.476.21 1.24.413 1.789 2.6 3.495-.883 7.226-.956 10.801-.012.468.851.49.854.013-.188-1.335.576-2.504 1.166-3.687.598-1.759 1.2-3.648.9-5.488-.206-.721-1.264-3.906-2.377-3.428M151.52 133.082c-.44.723-2.77 2.194-2.498 2.881.608.31 1.674-1.43 2.26-1.79.217-.314.939-.63.651-1.078-.108-.12-.3-.129-.414-.013M152.02 140.396c-.166.749.748.79 1.186 1.049.546.268 1.842 1.153 1.793-.095-.181-.514-.84-.592-1.239-.87-.526-.188-1.426-.929-1.74-.084M92.112 155.05c-.346.337.206.672.378.957.687.914 1.246 1.899 1.896 2.834.095.143.289.204.454.122.496-.365-.306-.9-.447-1.29-.497-.519-1.454-3.06-2.281-2.622M83.743 172c-.675.115-2.697-.063-2.743.74.048.179.253.297.448.25 2.848-.665 5.9-.546 8.804-.317l-.065-.009c.227.01.468.123.688.056.188-.086.158-.373-.049-.418-2.335-.378-4.722-.19-7.083-.302M69.44 192.053c-5.905 4.128-11.808 9.95-19.437 9.552l.036.006c-.323.017-.798-.32-1.039-.076 2.488 1.157 5.88-.111 8.461-.935 3.755-1.515 7.17-3.894 10.311-6.494.64-.51 1.322-.96 2.034-1.351.431-.24.07-.954-.366-.702M85.467 186.044c-1.531.623-2.972 1.414-4.252 2.458-.34.414-1.505.76-1.147 1.39.138.146.35.137.498.015 1.026-.83 2.074-1.656 3.242-2.284.493-.426 2.424-.669 2.169-1.43-.097-.18-.33-.245-.51-.15M61.585 206.012c-.479.025-5.015 1.866-3.128 1.988 1.043-.557 2.103-1.124 3.291-1.427.433-.084.262-.661-.163-.561M68.424 267.993c-.015-.003-.03-.005-.046-.006l.046.006m.055.007l-.055-.007.055.007m-9.15-1.373c.006 0 .012.002.017.003l-.017-.003M56 266.175c.74 1.16 6.754 1.056 8.438 1.347.678-.105 5.114 1.06 4.505-.005-2.692-.871-5.868-.462-8.727-.782-1.042-.119-2.084-.263-3.096-.513-.353-.025-.907-.455-1.12-.047M70.329 209.104c-.586.597-8.157 6.863-5.915 6.896 1.463-1.529 2.941-3.14 4.513-4.611.61-.618 1.272-1.184 1.946-1.738.377-.327-.17-.882-.544-.547M120.23 107.87l.001.002-.008-.023.007.02zm10.437 13.878l.045.065-.045-.065zM119.059 105c-.155.117.042.323.068.467l-.003-.007c.83 2.464 1.694 4.968 3.315 7.031 2.436 2.928 4.984 5.74 7.617 8.48 1.884 2.035 2.494 5.022 4.326 7.029 1.557-.015-.293-2.157-.513-2.836-1.425-3.21-3.797-5.698-6.439-7.916-2.602-2.963-5.894-5.492-7.199-9.376v.001l-.011-.03.003.006c-.457-.853-.514-2.257-1.164-2.849zM136.758 132.141c-.305 1.88-.795 3.89-.756 5.792.562.491.363-1.875.521-2.328l-.007.062c-.086-.412.933-4.467.242-3.526M117.764 59.08c-2.568 7.966-11.686 10.527-15.764 17.436-.003 1.807 2.165-2.006 2.565-2.305l-.005.006c3.81-4.383 9.429-7.037 12.256-12.304.153-.277 1.78-3.453.948-2.833M108.7 78.048c-2.216 1.645-3.087 4.392-3.47 6.949.05.502-.558 1.812.024 2.003.141.003.257-.108.262-.241.228-2.047.494-4.155 1.448-6.026.344-.697.774-1.355 1.356-1.895.168-.26.834-.437.647-.782-.073-.075-.188-.071-.267-.008M151.684 60.09l-.012-.034.012.033m2.808 6.598l.024.063-.024-.063m-2.992-8.279l.007.019-.007-.019M149 53c.142.988 1.066 2.02 1.338 3.084l-.004-.01c.473 1.34.84 2.716 1.36 4.039l-.01-.024c1.491 3.648 1.656 8.082 4.643 10.892.445.32.977 1.304 1.57.94.68-.431-2.223-2.46-2.48-3.316-1.257-2.1-1.71-4.578-2.583-6.854-.653-1.737-1.412-3.431-2-5.196l.014.04c-.526-1.174-1.02-2.735-1.848-3.595M153.049 73.009c-.358.62 1.366 2.944 1.545 3.887 1.174.706-.553-2.404-.749-2.731-.28-.314-.335-1.267-.796-1.156" transform="translate(-204.000000, -2790.000000) translate(204.000000, 2790.000000)"/>
            </g>
        </g>
    </g>
</svg>
