<svg xmlns="http://www.w3.org/2000/svg" xmlns:xlink="http://www.w3.org/1999/xlink" width="50" height="177" viewBox="0 0 50 177">
    <defs>
        <path id="ekcwnve7ia" d="M0 50L177 50 177 0 0 0z"/>
    </defs>
    <g fill="none" fill-rule="evenodd">
        <g>
            <g transform="translate(-45.000000, -134.000000) translate(70.000000, 222.500000) rotate(-90.000000) translate(-70.000000, -222.500000) translate(-18.500000, 197.500000)">
                <path fill="#EEEDED" d="M56.284 24.074c-1.189-3.17-3.823-4.96-7.284-4.96-3.462 0-6.096 1.79-7.285 4.96h14.569zM35 27.5C35 19.42 40.58 14 49 14s14 5.42 14 13.5v1.176l-.517.512h-21.18c.567 4.039 3.667 6.698 7.697 6.698 3.048 0 5.889-1.738 7.077-4.295h6.303C60.675 37.216 55.303 41 49 41c-8.42 0-14-5.42-14-13.5zM64 31.591h5.845c.207 2.557 2.69 4.295 6.155 4.295 3.465 0 5.793-1.329 5.793-3.323 0-1.227-1.552-2.097-6.362-3.018-7.5-1.687-9.88-3.375-9.88-7.62C65.552 17.17 69.742 14 76 14c4.966 0 9.31 2.659 10.81 6.648l-5.69 1.38c-.775-1.738-2.844-2.914-5.12-2.914-2.535 0-4.242 1.022-4.242 2.505 0 1.074 1.19 1.74 4.863 2.557C85.258 25.966 88 27.91 88 32.563 88 37.625 83.19 41 76 41c-6.983 0-11.793-3.784-12-9.409"/>
                <mask id="o1wctoc6bb" fill="#fff">
                    <use xlink:href="#ekcwnve7ia"/>
                </mask>
                <path fill="#EEEDED" d="M148 40h6V14.49h-6V40zm0-29.388h6V5h-6v5.612z" mask="url(#o1wctoc6bb)"/>
                <path fill="#FDC500" d="M99.862 34.054v-4.386c0-2.528-.548-3.37-3.01-3.609-1.546-.15-2.051-.718-1.778-2.218.026-.142.001-.292.004-.438.016-.973-.253-2.097.126-2.879.425-.876 1.683-.457 2.55-.737 1.577-.51 2.07-1.18 2.113-2.954.096-3.941-.319-7.901.228-11.822.53-3.793 3.122-5.972 6.805-6.011.774-.008 1.129.187 1.073 1.05-.055.824-.058 1.659-.001 2.483.09 1.312.064 2.365-1.674 2.392-.912.014-.852 1.034-.858 1.744-.029 3.41-.052 6.822-.017 10.232.02 2.016-.327 3.887-1.638 5.438-.463.549-.269.933.086 1.394 1.166 1.514 1.569 3.267 1.55 5.186-.032 3.41.01 6.822-.003 10.233-.005 1.228.262 2.143 1.7 2.06.573-.034.853.246.845.872-.017 1.364-.028 2.73.004 4.093.022.931-.556.827-1.13.812-4.155-.11-6.69-2.763-6.935-7.382-.098-1.845-.016-3.702-.016-5.553h-.024zM172.138 11.946v4.386c0 2.528.547 3.37 3.009 3.609 1.547.15 2.052.718 1.78 2.218-.027.142-.002.292-.005.438-.016.973.254 2.097-.126 2.879-.425.876-1.683.457-2.55.737-1.577.51-2.07 1.18-2.113 2.954-.096 3.941.319 7.901-.229 11.822-.528 3.793-3.12 5.972-6.805 6.011-.773.008-1.128-.187-1.071-1.05.054-.824.057-1.659 0-2.483-.09-1.312-.064-2.365 1.674-2.392.912-.014.852-1.034.858-1.744.028-3.41.052-6.822.018-10.232-.021-2.016.326-3.887 1.637-5.438.463-.549.268-.933-.086-1.394-1.165-1.514-1.57-3.267-1.55-5.186.032-3.41-.01-6.822.004-10.233.004-1.228-.263-2.143-1.7-2.06-.574.034-.854-.246-.846-.872.017-1.364.029-2.73-.004-4.093-.023-.931.556-.827 1.13-.812 4.155.11 6.69 2.763 6.935 7.381.098 1.846.016 3.703.016 5.554h.024z" mask="url(#o1wctoc6bb)"/>
                <path fill="#EEEDED" d="M130.449 35.203c-4.684 0-7.84-3.24-7.84-8.126 0-4.885 3.156-8.126 7.84-8.126 4.786 0 7.941 3.24 7.941 8.126 0 4.886-3.155 8.126-7.941 8.126m.61-21.703c-1.707 0-3.505.437-5.102 1.18l-3.348 4.924V14.22H116.5V49.5h6.109V34.506l3.393 4.988c1.585.73 3.366 1.16 5.058 1.16 8.044 0 13.44-5.45 13.44-13.577 0-8.126-5.396-13.577-13.44-13.577M32.296 14c-1.03 0-2.088.275-3.064.759l-3.197 4.65v-4.9H20V40h6.123V24.91c0-3.416 2.704-5.71 6.785-5.71H35v-4.69c-.714-.306-1.786-.51-2.704-.51M10.272 33.697V19.71h3.413l3.058-4.458v-.685h-6.471V5H4.108v9.566H0v5.143h4.108v13.988c0 4.372 3.39 7.303 8.526 7.303 1.695 0 3.442-.309 4.366-.72v-4.423h-4.469c-1.335 0-2.26-.874-2.26-2.16" mask="url(#o1wctoc6bb)"/>
            </g>
        </g>
    </g>
</svg>
