<svg class="logo" viewBox="0 0 150 531" fill="none" xmlns="http://www.w3.org/2000/svg">
  <path class="main_color" fill-rule="evenodd" clip-rule="evenodd" d="M72.222 362.148C62.712 365.715 57.342 373.617 57.342 384C57.342 394.386 62.712 402.288 72.222 405.855V362.148ZM82.5 426C58.26 426 42 409.26 42 384C42 358.74 58.26 342 82.5 342H86.028L87.564 343.551V407.091C99.681 405.39 107.658 396.09 107.658 384C107.658 374.856 102.444 366.333 94.773 362.769V343.86C111.648 348.975 123 365.091 123 384C123 409.26 106.74 426 82.5 426ZM94.773 339V321.465C102.444 320.844 107.658 313.395 107.658 303C107.658 292.605 103.671 285.621 97.689 285.621C94.008 285.621 91.398 290.277 88.635 304.707C83.574 327.207 78.51 334.347 65.775 334.347C51.51 334.344 42 321.774 42 303C42 288.102 49.977 275.07 61.944 270.57L66.084 287.64C60.87 289.965 57.342 296.172 57.342 303C57.342 310.605 60.408 315.726 64.857 315.726C68.079 315.726 70.077 312.156 72.528 301.137C77.898 275.226 83.73 267 97.689 267C112.875 267 123 281.43 123 303C123 323.949 111.648 338.379 94.773 339Z" fill="#EEEDED"/>
  <mask id="mask3" mask-type="alpha" maskUnits="userSpaceOnUse" x="0" y="0" width="150" height="531">
    <path d="M150 531L150 0H0L0 531H150Z" fill="white"/>
  </mask>
  <g mask="url(#mask3)">
    <path class="main_color" fill-rule="evenodd" clip-rule="evenodd" d="M120 87V69H43.47V87H120ZM31.836 87V69H15L15 87H31.836Z" fill="#EEEDED"/>
    <path fill-rule="evenodd" clip-rule="evenodd" d="M102.162 231.414H89.004C81.42 231.414 78.894 233.058 78.177 240.444C77.727 245.082 76.023 246.597 71.523 245.778C71.097 245.7 70.647 245.775 70.209 245.766C67.29 245.718 63.918 246.525 61.572 245.388C58.944 244.113 60.201 240.339 59.361 237.738C57.831 233.007 55.821 231.528 50.499 231.399C38.676 231.111 26.796 232.356 15.033 230.715C3.65397 229.125 -2.88303 221.349 -3.00003 210.3C-3.02403 207.978 -2.43903 206.913 0.149966 207.081C2.62197 207.246 5.12697 207.255 7.59897 207.084C11.535 206.814 14.694 206.892 14.775 212.106C14.817 214.842 17.877 214.662 20.007 214.68C30.237 214.767 40.473 214.836 50.703 214.731C56.751 214.671 62.364 215.712 67.017 219.645C68.664 221.034 69.816 220.452 71.199 219.387C75.741 215.889 81 214.68 86.757 214.737C96.987 214.833 107.223 214.707 117.456 214.746C121.14 214.761 123.885 213.96 123.636 209.646C123.534 207.927 124.374 207.087 126.252 207.111C130.344 207.162 134.442 207.195 138.531 207.099C141.324 207.033 141.012 208.767 140.967 210.489C140.637 222.954 132.678 230.559 118.821 231.294C113.286 231.588 107.715 231.342 102.162 231.342V231.414ZM35.838 14.586H48.996C56.58 14.586 59.106 12.945 59.823 5.55901C60.273 0.917999 61.977 -0.596985 66.477 0.219009C66.903 0.300003 67.353 0.225021 67.791 0.234024C70.71 0.282028 74.082 -0.528 76.428 0.612C79.056 1.88699 77.799 5.66101 78.639 8.26201C80.169 12.993 82.179 14.472 87.501 14.601C99.324 14.889 111.204 13.644 122.967 15.288C134.346 16.872 140.883 24.648 141 35.703C141.024 38.022 140.439 39.087 137.85 38.916C135.378 38.754 132.873 38.745 130.401 38.916C126.465 39.186 123.306 39.108 123.225 33.894C123.183 31.158 120.123 31.338 117.993 31.32C107.763 31.236 97.527 31.164 87.297 31.266C81.249 31.329 75.636 30.288 70.983 26.355C69.336 24.966 68.184 25.551 66.801 26.613C62.259 30.108 57 31.323 51.243 31.263C41.013 31.167 30.777 31.293 20.544 31.251C16.86 31.239 14.115 32.04 14.364 36.351C14.466 38.073 13.626 38.913 11.748 38.889C7.65597 38.838 3.55797 38.802 -0.531034 38.901C-3.32403 38.97 -3.01203 37.233 -2.96703 35.511C-2.63703 23.046 5.32197 15.441 19.176 14.706C24.714 14.412 30.285 14.658 35.838 14.658V14.586Z" fill="#FDC500"/>
    <path class="main_color" fill-rule="evenodd" clip-rule="evenodd" d="M105.609 139.653C105.609 153.705 95.889 163.173 81.231 163.173C66.576 163.173 56.853 153.705 56.853 139.653C56.853 125.295 66.573 115.83 81.231 115.83C95.889 115.83 105.609 125.295 105.609 139.653ZM40.5 137.823C40.5 142.944 41.811 148.338 44.04 153.129L58.812 163.173H42.66V181.5H148.5V163.173H103.518L118.482 152.994C120.672 148.239 121.962 142.896 121.962 137.82C121.962 113.688 105.612 97.5 81.231 97.5C56.853 97.5 40.5 113.688 40.5 137.82V137.823ZM42 434.112C42 437.202 42.825 440.376 44.277 443.304L58.227 452.895H43.527V471H120V452.631H74.73C64.482 452.631 57.6 444.519 57.6 432.276V426H43.53C42.612 428.142 42 431.358 42 434.112ZM101.091 500.184H59.13V489.945L45.756 480.771H43.701V500.184H15L15 518.676H43.698V531H59.127V518.676H101.091C114.207 518.676 123 508.506 123 493.098C123 488.013 122.073 482.772 120.84 480H107.571V493.407C107.571 497.412 104.949 500.187 101.091 500.187" fill="#EEEDED"/>
  </g>
</svg>
