<svg xmlns="http://www.w3.org/2000/svg" xmlns:xlink="http://www.w3.org/1999/xlink" width="257" height="305" viewBox="0 0 257 305">
    <defs>
        <path id="wjuq67pa5a" d="M0 0L6 0 6 6 0 6z"/>
        <path id="5nsri4myjc" d="M0 0.055L236 0.055 236 1.945 0 1.945z"/>
        <path id="duvtfq9c4e" d="M0 0L6 0 6 6 0 6z"/>
        <path id="gq4jhydtfg" d="M0.001 0L1.999 0 1.999 285 0.001 285z"/>
        <path id="n77umgh7bi" d="M0 0L6 0 6 6 0 6z"/>
        <path id="d52ubxpsqk" d="M0 0L236 0 236 2 0 2z"/>
        <path id="7y81xlxqkm" d="M0 0L6 0 6 6 0 6z"/>
        <path id="skn08gjebo" d="M0 0L108 0 108 78 0 78z"/>
    </defs>
    <g fill="none" fill-rule="evenodd">
        <g>
            <g>
                <g transform="translate(-1005.000000, -2947.000000) translate(1005.000000, 2947.000000) translate(250.000000, 299.000000)">
                    <mask id="sa2b48kx3b" fill="#fff">
                        <use xlink:href="#wjuq67pa5a"/>
                    </mask>
                    <path fill="#F7941D" d="M4.799 6H1.201C.536 6 0 5.462 0 4.8c0-.66.536-1.2 1.201-1.2h2.397V1.2C3.598.536 4.136 0 4.799 0S6 .536 6 1.199v3.6C6 5.462 5.462 6 4.799 6" mask="url(#sa2b48kx3b)"/>
                </g>
                <g transform="translate(-1005.000000, -2947.000000) translate(1005.000000, 2947.000000) translate(10.000000, 303.000000)">
                    <mask id="b7haijuswd" fill="#fff">
                        <use xlink:href="#5nsri4myjc"/>
                    </mask>
                    <path fill="#F7941D" d="M7.783 1.945H1.105C.495 1.945 0 1.521 0 1 0 .48.495.055 1.105.055h6.678c.61 0 1.105.424 1.105.944 0 .522-.495.946-1.105.946m13.36 0h-6.68c-.61 0-1.103-.424-1.103-.946 0-.52.493-.944 1.102-.944h6.682c.609 0 1.102.424 1.102.944 0 .522-.493.946-1.102.946m13.357 0h-6.676c-.612 0-1.105-.424-1.105-.946 0-.52.493-.944 1.105-.944H34.5c.612 0 1.105.424 1.105.944 0 .522-.493.946-1.105.946m13.363 0h-6.682c-.609 0-1.102-.424-1.102-.946 0-.52.493-.944 1.102-.944h6.682c.607 0 1.102.424 1.102.944 0 .522-.495.946-1.102.946m13.357 0h-6.68c-.608 0-1.103-.424-1.103-.946 0-.52.495-.944 1.102-.944h6.681c.612 0 1.105.424 1.105.944 0 .522-.493.946-1.105.946m13.36 0h-6.678c-.612 0-1.105-.424-1.105-.946 0-.52.493-.944 1.105-.944h6.679c.609 0 1.104.424 1.104.944 0 .522-.495.946-1.104.946m13.36 0H81.26c-.61 0-1.102-.424-1.102-.946 0-.52.493-.944 1.102-.944h6.682c.61 0 1.102.424 1.102.944 0 .522-.493.946-1.102.946m13.357 0h-6.676c-.612 0-1.105-.424-1.105-.946 0-.52.493-.944 1.105-.944h6.676c.612 0 1.105.424 1.105.944 0 .522-.493.946-1.105.946m13.363 0h-6.681c-.61 0-1.105-.424-1.105-.946 0-.52.495-.944 1.105-.944h6.68c.608 0 1.103.424 1.103.944 0 .522-.495.946-1.102.946m13.357 0h-6.68c-.608 0-1.103-.424-1.103-.946 0-.52.495-.944 1.102-.944h6.681c.61 0 1.103.424 1.103.944 0 .522-.493.946-1.103.946m13.36 0h-6.678c-.612 0-1.105-.424-1.105-.946 0-.52.493-.944 1.105-.944h6.679c.61 0 1.102.424 1.102.944 0 .522-.493.946-1.102.946m13.36 0h-6.682c-.61 0-1.102-.424-1.102-.946 0-.52.493-.944 1.102-.944h6.682c.61 0 1.102.424 1.102.944 0 .522-.493.946-1.102.946m13.357 0h-6.679c-.609 0-1.104-.424-1.104-.946 0-.52.495-.944 1.104-.944h6.68c.609 0 1.104.424 1.104.944 0 .522-.495.946-1.105.946m13.36 0h-6.678c-.61 0-1.103-.424-1.103-.946 0-.52.493-.944 1.103-.944h6.678c.61 0 1.103.424 1.103.944 0 .522-.493.946-1.103.946m13.36 0h-6.68c-.608 0-1.103-.424-1.103-.946 0-.52.495-.944 1.102-.944h6.682c.609 0 1.102.424 1.102.944 0 .522-.493.946-1.102.946m13.36 0h-6.682c-.61 0-1.102-.424-1.102-.946 0-.52.493-.944 1.102-.944h6.682c.61 0 1.102.424 1.102.944 0 .522-.493.946-1.102.946m13.357 0h-6.679c-.609 0-1.102-.424-1.102-.946 0-.52.493-.944 1.102-.944h6.68c.609 0 1.104.424 1.104.944 0 .522-.495.946-1.105.946m13.36 0h-6.678c-.61 0-1.105-.424-1.105-.946 0-.52.495-.944 1.105-.944h6.678c.61 0 1.105.424 1.105.944 0 .522-.495.946-1.105.946" mask="url(#b7haijuswd)"/>
                </g>
                <g transform="translate(-1005.000000, -2947.000000) translate(1005.000000, 2947.000000) translate(0.000000, 299.000000)">
                    <mask id="tbyqby3def" fill="#fff">
                        <use xlink:href="#duvtfq9c4e"/>
                    </mask>
                    <path fill="#F7941D" d="M4.799 6H1.2C.536 6 0 5.462 0 4.8v-3.6C0 .536.536 0 1.2 0c.664 0 1.2.536 1.2 1.199v2.4h2.399C5.462 3.6 6 4.14 6 4.8 6 5.462 5.462 6 4.799 6" mask="url(#tbyqby3def)"/>
                </g>
                <g transform="translate(-1005.000000, -2947.000000) translate(1005.000000, 2947.000000) translate(1.000000, 10.000000)">
                    <mask id="43g2o89z1h" fill="#fff">
                        <use xlink:href="#gq4jhydtfg"/>
                    </mask>
                    <path fill="#F7941D" d="M.945 8.78C.423 8.78 0 8.286 0 7.677V1.1C0 .492.423 0 .945 0s.946.492.946 1.1v6.577c0 .609-.424 1.103-.946 1.103m0 13.152c-.522 0-.946-.492-.946-1.103v-6.572c0-.611.424-1.103.946-1.103s.946.492.946 1.103v6.572c0 .611-.424 1.103-.946 1.103m0 13.154c-.522 0-.946-.494-.946-1.1v-6.58c0-.606.424-1.1.946-1.1s.946.494.946 1.1v6.58c0 .606-.424 1.1-.946 1.1m0 13.154c-.522 0-.946-.492-.946-1.103v-6.574c0-.611.424-1.103.946-1.103s.946.492.946 1.103v6.574c0 .611-.424 1.103-.946 1.103m0 13.152c-.522 0-.946-.494-.946-1.1v-6.577c0-.607.424-1.1.946-1.1s.946.493.946 1.1v6.577c0 .606-.424 1.1-.946 1.1m0 13.154c-.522 0-.946-.492-.946-1.103v-6.577c0-.608.424-1.1.946-1.1s.946.492.946 1.1v6.577c0 .611-.424 1.103-.946 1.103m0 13.154C.423 87.7 0 87.208 0 86.6v-6.577c0-.611.424-1.103.946-1.103s.946.492.946 1.103V86.6c0 .608-.424 1.1-.946 1.1m0 13.152c-.522 0-.946-.494-.946-1.1v-6.58c0-.606.424-1.098.946-1.098s.946.492.946 1.098v6.58c0 .606-.424 1.1-.946 1.1m0 13.154c-.522 0-.946-.492-.946-1.103v-6.574c0-.611.424-1.103.946-1.103s.946.492.946 1.103v6.574c0 .611-.424 1.103-.946 1.103m0 13.152c-.522 0-.946-.492-.946-1.1v-6.578c0-.606.424-1.1.946-1.1s.946.494.946 1.1v6.577c0 .609-.424 1.1-.946 1.1m0 13.155c-.522 0-.946-.492-.946-1.103v-6.575c0-.61.424-1.102.946-1.102s.946.492.946 1.102v6.575c0 .611-.424 1.103-.946 1.103m0 13.156c-.522 0-.946-.494-.946-1.102v-6.577c0-.609.424-1.103.946-1.103s.946.494.946 1.103v6.577c0 .608-.424 1.102-.946 1.102m0 13.15c-.522 0-.946-.492-.946-1.1v-6.578c0-.606.424-1.098.946-1.098s.946.492.946 1.098v6.577c0 .609-.424 1.1-.946 1.1m0 13.155c-.522 0-.946-.492-.946-1.1v-6.578c0-.61.424-1.102.946-1.102s.946.492.946 1.102v6.577c0 .609-.424 1.1-.946 1.1m0 13.155c-.522 0-.946-.494-.946-1.1v-6.58c0-.606.424-1.1.946-1.1s.946.494.946 1.1v6.58c0 .606-.424 1.1-.946 1.1m0 13.152c-.522 0-.946-.492-.946-1.103V198.4c0-.61.424-1.103.946-1.103s.946.492.946 1.103v6.575c0 .61-.424 1.103-.946 1.103m0 13.156c-.522 0-.946-.494-.946-1.103v-6.577c0-.608.424-1.102.946-1.102s.946.494.946 1.102v6.577c0 .609-.424 1.103-.946 1.103m0 13.15c-.522 0-.946-.492-.946-1.1v-6.578c0-.606.424-1.098.946-1.098s.946.492.946 1.098v6.577c0 .609-.424 1.1-.946 1.1m0 13.157c-.522 0-.946-.494-.946-1.103v-6.577c0-.608.424-1.103.946-1.103s.946.495.946 1.103v6.577c0 .609-.424 1.103-.946 1.103m0 13.152c-.522 0-.946-.494-.946-1.1v-6.58c0-.606.424-1.098.946-1.098s.946.492.946 1.098v6.58c0 .606-.424 1.1-.946 1.1m0 13.152c-.522 0-.946-.492-.946-1.1v-6.576c0-.61.424-1.102.946-1.102s.946.492.946 1.102v6.575c0 .609-.424 1.1-.946 1.1m0 13.157c-.522 0-.946-.494-.946-1.103v-6.577c0-.608.424-1.103.946-1.103s.946.495.946 1.103v6.577c0 .609-.424 1.103-.946 1.103" mask="url(#43g2o89z1h)"/>
                </g>
                <g transform="translate(-1005.000000, -2947.000000) translate(1005.000000, 2947.000000)">
                    <mask id="xirt1i9h6j" fill="#fff">
                        <use xlink:href="#n77umgh7bi"/>
                    </mask>
                    <path fill="#F7941D" d="M1.2 6C.537 6-.002 5.464-.002 4.8V1.199C-.002.538.537 0 1.2 0h3.599C5.464-.001 6 .538 6 1.199c0 .665-.536 1.2-1.201 1.2H2.4v2.402C2.401 5.464 1.863 6 1.2 6" mask="url(#xirt1i9h6j)"/>
                </g>
                <g transform="translate(-1005.000000, -2947.000000) translate(1005.000000, 2947.000000) translate(10.000000, 0.000000)">
                    <mask id="ni1oi83knl" fill="#fff">
                        <use xlink:href="#d52ubxpsqk"/>
                    </mask>
                    <path fill="#F7941D" d="M7.783 1.89H1.105C.495 1.89 0 1.468 0 .944 0 .424.495 0 1.105 0h6.678c.61 0 1.105.424 1.105.944 0 .524-.495.946-1.105.946m13.36 0h-6.678c-.61 0-1.103-.422-1.103-.946 0-.52.493-.944 1.103-.944h6.679c.609 0 1.102.424 1.102.944 0 .524-.493.946-1.102.946m13.36 0h-6.68c-.611 0-1.104-.422-1.104-.946 0-.52.493-.944 1.105-.944h6.679c.61 0 1.104.424 1.104.944 0 .524-.495.946-1.104.946m13.36 0h-6.682c-.609 0-1.102-.422-1.102-.946 0-.52.493-.944 1.102-.944h6.682c.607 0 1.102.424 1.102.944 0 .524-.495.946-1.102.946m13.357 0h-6.678c-.61 0-1.103-.422-1.103-.946 0-.52.493-.944 1.103-.944h6.678c.612 0 1.105.424 1.105.944 0 .524-.493.946-1.105.946m13.36 0h-6.678c-.61 0-1.105-.422-1.105-.946 0-.52.495-.944 1.105-.944h6.679c.609 0 1.104.424 1.104.944 0 .524-.495.946-1.104.946m13.36 0H81.26c-.61 0-1.102-.422-1.102-.946 0-.52.493-.944 1.102-.944h6.682c.61 0 1.102.424 1.102.944 0 .524-.493.946-1.102.946m13.357 0h-6.676c-.612 0-1.105-.422-1.105-.946 0-.52.493-.944 1.105-.944h6.676c.612 0 1.105.424 1.105.944 0 .524-.493.946-1.105.946m13.363 0h-6.681c-.61 0-1.103-.422-1.103-.946 0-.52.493-.944 1.103-.944h6.68c.608 0 1.103.424 1.103.944 0 .524-.495.946-1.102.946m13.357 0h-6.68c-.608 0-1.103-.422-1.103-.946 0-.52.495-.944 1.102-.944h6.681c.612 0 1.105.424 1.105.944 0 .524-.493.946-1.105.946m13.36 0h-6.678c-.612 0-1.105-.422-1.105-.946 0-.52.493-.944 1.105-.944h6.679c.61 0 1.102.424 1.102.944 0 .524-.493.946-1.102.946m13.36 0h-6.682c-.61 0-1.102-.422-1.102-.946 0-.52.493-.944 1.102-.944h6.682c.61 0 1.102.424 1.102.944 0 .524-.493.946-1.102.946m13.357 0h-6.679c-.609 0-1.104-.422-1.104-.946 0-.52.495-.944 1.104-.944h6.68c.611 0 1.104.424 1.104.944 0 .524-.493.946-1.105.946m13.363 0h-6.681c-.61 0-1.103-.422-1.103-.946 0-.52.493-.944 1.103-.944h6.68c.61 0 1.103.424 1.103.944 0 .524-.493.946-1.102.946m13.358 0h-6.682c-.607 0-1.102-.422-1.102-.946 0-.52.495-.944 1.102-.944h6.682c.609 0 1.102.424 1.102.944 0 .524-.493.946-1.102.946m13.36 0h-6.68c-.611 0-1.104-.422-1.104-.946 0-.52.493-.944 1.105-.944h6.679c.61 0 1.102.424 1.102.944 0 .524-.493.946-1.102.946m13.36 0h-6.682c-.609 0-1.102-.422-1.102-.946 0-.52.493-.944 1.102-.944h6.682c.61 0 1.102.424 1.102.944 0 .524-.493.946-1.102.946m13.357 0h-6.678c-.61 0-1.105-.422-1.105-.946 0-.52.495-.944 1.105-.944h6.678c.61 0 1.105.424 1.105.944 0 .524-.495.946-1.105.946" mask="url(#ni1oi83knl)"/>
                </g>
                <g transform="translate(-1005.000000, -2947.000000) translate(1005.000000, 2947.000000) translate(250.000000, 0.000000)">
                    <mask id="snz7xrjnzn" fill="#fff">
                        <use xlink:href="#7y81xlxqkm"/>
                    </mask>
                    <path fill="#F7941D" d="M4.799 6c-.663 0-1.201-.536-1.201-1.2V2.4H1.201C.536 2.4 0 1.864 0 1.198 0 .538.536 0 1.201 0h3.598C5.462-.001 6 .538 6 1.199V4.8C6 5.464 5.462 6 4.799 6" mask="url(#snz7xrjnzn)"/>
                </g>
                <path fill="#F7941D" d="M255 18.78c-.552 0-1-.494-1-1.103V11.1c0-.608.448-1.1 1-1.1s1 .492 1 1.1v6.577c0 .609-.448 1.103-1 1.103m0 13.152c-.552 0-1-.492-1-1.103v-6.572c0-.611.448-1.103 1-1.103s1 .492 1 1.103v6.572c0 .611-.448 1.103-1 1.103m0 13.154c-.552 0-1-.494-1-1.1v-6.58c0-.606.448-1.1 1-1.1s1 .494 1 1.1v6.58c0 .606-.448 1.1-1 1.1m0 13.154c-.552 0-1-.492-1-1.103v-6.574c0-.611.448-1.103 1-1.103s1 .492 1 1.103v6.574c0 .611-.448 1.103-1 1.103m0 13.152c-.552 0-1-.494-1-1.1v-6.577c0-.607.448-1.1 1-1.1s1 .493 1 1.1v6.577c0 .606-.448 1.1-1 1.1m0 13.154c-.552 0-1-.492-1-1.103v-6.577c0-.608.448-1.1 1-1.1s1 .492 1 1.1v6.577c0 .611-.448 1.103-1 1.103m0 13.154c-.552 0-1-.492-1-1.1v-6.577c0-.611.448-1.103 1-1.103s1 .492 1 1.103V96.6c0 .608-.448 1.1-1 1.1m0 13.152c-.552 0-1-.494-1-1.1v-6.58c0-.606.448-1.098 1-1.098s1 .492 1 1.098v6.58c0 .606-.448 1.1-1 1.1m0 13.154c-.552 0-1-.492-1-1.103v-6.574c0-.611.448-1.103 1-1.103s1 .492 1 1.103v6.574c0 .611-.448 1.103-1 1.103m0 13.152c-.552 0-1-.492-1-1.1v-6.578c0-.606.448-1.1 1-1.1s1 .494 1 1.1v6.577c0 .609-.448 1.1-1 1.1m0 13.155c-.552 0-1-.492-1-1.103v-6.575c0-.61.448-1.102 1-1.102s1 .492 1 1.102v6.575c0 .611-.448 1.103-1 1.103m0 13.156c-.552 0-1-.494-1-1.102v-6.577c0-.609.448-1.103 1-1.103s1 .494 1 1.103v6.577c0 .608-.448 1.102-1 1.102m0 13.15c-.552 0-1-.492-1-1.1v-6.578c0-.606.448-1.098 1-1.098s1 .492 1 1.098v6.577c0 .609-.448 1.1-1 1.1m0 13.155c-.552 0-1-.492-1-1.1v-6.578c0-.61.448-1.102 1-1.102s1 .492 1 1.102v6.577c0 .609-.448 1.1-1 1.1m0 13.155c-.552 0-1-.494-1-1.1v-6.58c0-.606.448-1.1 1-1.1s1 .494 1 1.1v6.58c0 .606-.448 1.1-1 1.1m0 13.152c-.552 0-1-.492-1-1.103V208.4c0-.61.448-1.103 1-1.103s1 .492 1 1.103v6.575c0 .61-.448 1.103-1 1.103m0 13.156c-.552 0-1-.494-1-1.103v-6.577c0-.608.448-1.102 1-1.102s1 .494 1 1.102v6.577c0 .609-.448 1.103-1 1.103m0 13.152c-.552 0-1-.492-1-1.1v-6.58c0-.606.448-1.098 1-1.098s1 .492 1 1.098v6.58c0 .608-.448 1.1-1 1.1m0 13.154c-.552 0-1-.494-1-1.103v-6.577c0-.608.448-1.103 1-1.103s1 .495 1 1.103v6.577c0 .609-.448 1.103-1 1.103m0 13.152c-.552 0-1-.494-1-1.1v-6.58c0-.606.448-1.098 1-1.098s1 .492 1 1.098v6.58c0 .606-.448 1.1-1 1.1m0 13.152c-.552 0-1-.492-1-1.1v-6.576c0-.61.448-1.102 1-1.102s1 .492 1 1.102v6.575c0 .609-.448 1.1-1 1.1M255 295c-.552 0-1-.494-1-1.103v-6.577c0-.608.448-1.103 1-1.103s1 .495 1 1.103v6.577c0 .609-.448 1.103-1 1.103" transform="translate(-1005.000000, -2947.000000) translate(1005.000000, 2947.000000)"/>
                <path fill="#EFAC62" d="M78.062 173.027L78 173l.812 17.737s18.225 11.147 41.188 7.547l-.21-.449c-20.938-2.006-33.838-11.295-41.728-24.808" transform="translate(-1005.000000, -2947.000000) translate(1005.000000, 2947.000000)"/>
                <path fill="#EFAC62" d="M79.025 190.72c2.704 1.523 16.112 8.535 33.255 8.021-14.887-2.875-26.038-9.97-33.865-21.532l.61 13.512zm31.32 10.28c-18.703 0-32.33-8.277-32.993-8.685-.311-.192-.507-.525-.523-.89L76 173.155c-.019-.382.168-.75.486-.966.323-.213.73-.25 1.082-.094.214.094.457.284.572.486 8.63 14.942 22.248 23.118 41.64 24.996.394.038.739.282.904.64l.214.465c.144.314.134.68-.03.983-.163.307-.463.515-.807.574-3.354.528-6.609.76-9.717.76z" transform="translate(-1005.000000, -2947.000000) translate(1005.000000, 2947.000000)"/>
                <path fill="#F2E7DA" d="M81.9 133c-2.839 0-5.513.485-7.9 1.324 0 2.75.04 5.148.13 7.039.332 6.873.975 12.47 2.185 16.98 1.762.416 3.63.657 5.586.657 9.996 0 18.099-5.823 18.099-13.001C100 138.82 91.897 133 81.9 133" transform="translate(-1005.000000, -2947.000000) translate(1005.000000, 2947.000000)"/>
                <path fill="#F2E7DA" d="M77.28 158.282c1.546.336 3.11.503 4.657.503 9.31 0 16.884-5.51 16.884-12.286 0-6.77-7.574-12.281-16.884-12.281-2.338 0-4.607.352-6.758 1.046.01 2.587.05 4.739.129 6.41.332 7.127.961 12.433 1.971 16.608M81.937 161c-1.93 0-3.883-.237-5.804-.706-.39-.094-.696-.4-.797-.796-1.146-4.426-1.847-10.059-2.205-17.721-.087-1.875-.131-4.332-.131-7.306 0-.47.29-.885.724-1.044 2.596-.946 5.36-1.427 8.213-1.427C92.448 132 101 138.503 101 146.499 101 154.497 92.448 161 81.937 161M177.243 133C167.167 133 159 138.82 159 145.999c0 7.178 8.167 13.001 18.243 13.001.777 0 1.54-.041 2.288-.11.363-1.047.646-2.118.751-3.241.417-4.388 1.252-12.377 1.718-22.143-1.526-.299-3.1-.506-4.757-.506" transform="translate(-1005.000000, -2947.000000) translate(1005.000000, 2947.000000)"/>
                <path fill="#F2E7DA" d="M177.186 134.218c-9.37 0-16.993 5.51-16.993 12.28 0 6.776 7.623 12.287 16.993 12.287.49 0 .97-.02 1.45-.052.253-.866.406-1.64.474-2.391l.16-1.73c.434-4.67 1.081-11.64 1.492-20.068-1.295-.223-2.448-.326-3.576-.326m0 26.782c-10.58 0-19.186-6.503-19.186-14.501 0-7.996 8.607-14.499 19.186-14.499 1.536 0 3.102.171 4.933.542.53.106.905.592.88 1.138-.409 8.916-1.093 16.271-1.546 21.136l-.157 1.727c-.105 1.124-.358 2.267-.801 3.591-.137.415-.504.709-.935.749-.778.075-1.567.117-2.374.117" transform="translate(-1005.000000, -2947.000000) translate(1005.000000, 2947.000000)"/>
                <path fill="#F7941D" d="M125.84 153c-6.255 0-10.819-1.397-11.058-1.472-.59-.182-.915-.806-.73-1.389.185-.581.815-.905 1.406-.72.066.02 6.976 2.128 15.197 1.064 1.178-.154 2.228-.27 3.155-.37 5.838-.647 5.95-.658 5.95-5.13 0-6.155-3.312-25.495-3.345-25.69-.104-.605.306-1.174.917-1.28.614-.093 1.188.305 1.292.907.138.804 3.376 19.726 3.376 26.064 0 6.177-1.778 6.648-7.941 7.33-.918.098-1.949.215-3.115.365-1.783.23-3.499.321-5.104.321" transform="translate(-1005.000000, -2947.000000) translate(1005.000000, 2947.000000)"/>
                <path fill="#F7941D" d="M76.963 80.904c-.576 11.748-2.243 47.88-1.642 60.713.778 16.526 3.315 24.592 9.05 28.765 7.811 5.678 17.33 9.6 19.588 8.086.522-.436.423-3.639.358-5.76-.22-7.198-.59-19.254 11.459-20.637l22.645.052c.71-.195 2.996-.617 5.498 1.102 4.684 3.212 7.293 11.71 7.764 25.271 1.412-.35 3.74-.961 5.796-1.636 4.232-1.39 20.238-8.956 21.3-20.59l.159-1.707c1.223-13.126 4.412-47.363-2.07-74.707-4.513 6.581-20.057 25.487-48.537 24.577-27.275-.89-45.543-15.907-51.368-23.529zM150.627 181c-.241 0-.478-.082-.673-.234-.26-.204-.415-.516-.422-.847-.4-16.847-3.909-22.795-6.783-24.819-2.014-1.42-3.727-.85-3.802-.827-.113.042-.28.082-.37.065l-22.68-.058c-9.916 1.146-9.61 11.096-9.39 18.362.126 3.993.205 6.635-1.332 7.671-4.275 2.88-16.728-4.234-22.085-8.135-7.353-5.346-9.263-15.62-9.96-30.458-.724-15.445 1.804-64.176 1.83-64.668.03-.598.605-1.074 1.123-1.051.58.017 1.044.484 1.068 1.063.591 2.92 18.835 24.101 51.252 25.154 32.885 1.052 47.803-25.375 47.949-25.644.216-.392.648-.622 1.093-.563.446.056.813.377.926.814 7.395 28.098 4.02 64.316 2.75 77.947l-.157 1.7c-1.174 12.838-18.286 21.009-22.805 22.493-3.3 1.083-7.126 1.97-7.288 2.007-.081.021-.163.028-.244.028z" transform="translate(-1005.000000, -2947.000000) translate(1005.000000, 2947.000000)"/>
                <path fill="#F7941D" d="M84.128 111c-.376 0-.745-.214-.957-.598-.329-.59-.17-1.364.357-1.73.255-.182 6.429-4.427 19.413-3.554.621.04 1.093.638 1.057 1.332-.038.697-.571 1.24-1.188 1.186-12.17-.806-18.037 3.14-18.094 3.177-.183.128-.388.187-.588.187" transform="translate(-1005.000000, -2947.000000) translate(1005.000000, 2947.000000)"/>
                <path fill="#F7941D" d="M120.315 32.461c-11.679 0-28.608 1.963-40.291 11.772-8.889 7.46-13.46 18.376-13.59 32.44-.026 2.68-.058 5.391-.093 8.115-.449 36.13-.955 77.08 19.846 98.097 9.93 10.035 23.74 14.91 42.218 14.91 17.926 0 32.016-5.197 41.878-15.449 20.523-21.329 18.972-59.23 18.05-81.875l-.157-3.95c-1.039-28.293-2.11-57.553-30.4-60.608-.436-.047-.8-.345-.933-.762-1.829-5.757-4.386-11.07-5.474-11.368-1.813 2.22-3.265 10.412-3.662 13.386-.066.49-.456.876-.948.946-.507.065-.974-.212-1.163-.666-2.789-6.638-6.971-13.97-8.865-14.244-.068-.012-.138-.02-.297.177-2.903 3.558-1.64 8.536-1.628 8.585.096.362 0 .746-.25 1.023-.25.278-.625.41-.994.345-.136-.02-5.552-.874-13.247-.874M128.405 200c-19.098 0-33.423-5.095-43.79-15.568-21.448-21.671-20.934-63.108-20.481-99.67.035-2.726.07-5.43.093-8.112.138-14.738 4.975-26.216 14.381-34.11 18.004-15.1 46.799-12.5 53.788-11.593-.231-2.096-.194-5.869 2.326-8.957.612-.748 1.434-1.09 2.326-.964 3.085.445 6.843 7.406 9.07 12.165.678-3.61 1.916-8.793 3.71-10.842.543-.617 1.253-.867 1.994-.72 2.77.578 5.614 8.234 6.905 12.18 29.491 3.675 30.64 34.983 31.651 62.632l.157 3.943c.941 22.993 2.513 61.48-18.66 83.489-10.296 10.7-24.92 16.127-43.47 16.127" transform="translate(-1005.000000, -2947.000000) translate(1005.000000, 2947.000000)"/>
                <path fill="#F7941D" d="M63.048 116.187c-7.614 0-13.809 5.298-13.809 11.812-.002 7.238 7.702 13.064 16.387 11.595-.955-6.868-1.562-14.538-1.849-23.387-.241-.016-.483-.02-.73-.02m0 25.813C54.2 142 47 135.72 47 127.999 47 120.279 54.2 114 63.048 114c.658 0 1.303.044 1.94.113.557.058.981.51.998 1.055.282 9.626.938 17.847 2.002 25.14.083.558-.286 1.09-.85 1.215-1.372.317-2.75.477-4.09.477" transform="translate(-1005.000000, -2947.000000) translate(1005.000000, 2947.000000)"/>
                <path fill="#F7941D" d="M63.792 123.178c-3.054 0-5.539 2.39-5.539 5.326 0 2.94 2.485 5.33 5.54 5.33.631 0 1.26-.114 1.88-.341-.323-3.211-.583-6.636-.779-10.19-.379-.083-.744-.125-1.102-.125m0 12.822c-4.296 0-7.792-3.36-7.792-7.496 0-4.934 4.905-8.87 10.351-7.053.434.147.732.53.756.973.207 4.085.508 7.995.887 11.626.048.44-.188.863-.596 1.067-1.16.587-2.37.883-3.606.883M173.872 111c-.2 0-.405-.059-.59-.187-.055-.037-5.913-3.978-18.092-3.18-.602.062-1.152-.488-1.188-1.186-.036-.695.436-1.293 1.057-1.333 12.975-.855 19.156 3.377 19.413 3.556.526.366.686 1.141.357 1.732-.212.384-.58.598-.957.598M190.26 138.883c1.65.618 3.389.928 5.172.928 7.387 0 13.396-5.298 13.396-11.811 0-6.515-6.01-11.814-13.396-11.814-1.393 0-2.774.195-4.119.583.046 8.168-.299 15.419-1.053 22.114m5.172 3.117c-2.354 0-4.634-.474-6.779-1.411-.439-.192-.7-.653-.646-1.132.835-7.054 1.203-14.733 1.129-23.479-.002-.472.292-.89.736-1.043 1.8-.62 3.67-.935 5.56-.935 8.584 0 15.568 6.28 15.568 14s-6.984 14-15.568 14" transform="translate(-1005.000000, -2947.000000) translate(1005.000000, 2947.000000)"/>
                <path fill="#F7941D" d="M191.15 131.237c.951 1.607 2.638 2.596 4.47 2.596 2.893 0 5.246-2.392 5.246-5.332s-2.353-5.332-5.246-5.332c-1.672 0-3.225.806-4.217 2.17-.052 1.941-.135 3.91-.253 5.898m4.47 4.763c-2.717 0-5.206-1.533-6.496-4-.092-.175-.135-.375-.122-.575.131-2.182.222-4.342.276-6.468.007-.202.068-.397.176-.567 1.371-2.123 3.677-3.39 6.166-3.39 4.07 0 7.38 3.365 7.38 7.501S199.69 136 195.62 136M130.103 173c-2.394 0-4.049-.324-4.209-.358-.587-.118-.98-.773-.878-1.46.103-.686.661-1.167 1.249-1.028.082.01 8.657 1.68 15.088-2.97.507-.358 1.172-.181 1.485.41.314.594.158 1.375-.352 1.744-4.174 3.017-9.009 3.662-12.383 3.662" transform="translate(-1005.000000, -2947.000000) translate(1005.000000, 2947.000000)"/>
                <path fill="#F7941D" d="M130.103 173c-2.394 0-4.049-.324-4.209-.358-.587-.118-.98-.773-.878-1.46.103-.686.661-1.167 1.249-1.028.082.01 8.657 1.68 15.088-2.97.507-.358 1.172-.181 1.485.41.314.594.158 1.375-.352 1.744-4.174 3.017-9.009 3.662-12.383 3.662M165.73 304H98.091c-.473 0-.892-.296-1.046-.74L71.06 228.404c-.101-.289-.075-.603.07-.873.143-.27.39-.468.688-.547l5.678-1.523c-.885-5.848-4.234-30.128.463-34.805.43-.429 1.13-.429 1.563 0 .433.43.433 1.127 0 1.557-3.199 3.185-1.51 22.474.31 33.881.088.554-.258 1.088-.803 1.234l-5.491 1.474L98.881 301.8h65.992l18.723-71.634-2.865-1.364c-.384-.182-.627-.57-.627-.994v-24.273c0-20.78-4.99-23.395-5.039-23.419-.531-.253-.796-.889-.566-1.43.227-.54.812-.826 1.371-.618.66.24 6.445 2.977 6.445 25.467v23.584l3.06 1.457c.474.226.723.759.59 1.267l-19.166 73.333c-.127.484-.567.824-1.07.824" transform="translate(-1005.000000, -2947.000000) translate(1005.000000, 2947.000000)"/>
                <path fill="#F7941D" d="M87.885 276c-.576 0-1.069-.43-1.124-1.001-3.02-31.735 3.92-77.6 3.991-78.06.093-.603.662-1.016 1.284-.927.617.089 1.043.651.952 1.256-.072.455-6.97 46.059-3.977 77.528.058.604-.4 1.146-1.02 1.2-.034.002-.07.004-.106.004M105.012 304c-.443 0-.844-.335-.957-.832-2.308-10.273-.123-99.312-.03-103.099.017-.608.548-1.091 1.016-1.069.545.017.973.521.959 1.128-.023.924-2.273 92.523-.03 102.508.132.588-.19 1.185-.718 1.331-.08.021-.161.033-.24.033M120.116 304c-.478 0-.87-.475-.882-1.076-.005-.219-.422-22.258-.13-41.862.289-19.567.001-61.53 0-61.951-.006-.608.388-1.106.874-1.111h.007c.484 0 .878.484.884 1.092.002.422.29 42.414 0 62.01-.291 19.558.125 41.55.13 41.773.012.603-.375 1.109-.86 1.125h-.023zM139.119 304c-.468 0-.857-.463-.877-1.056-.006-.131-.436-13.113-.136-29.885.3-16.721.004-74.37 0-74.951-.004-.606.39-1.106.873-1.108h.006c.484 0 .876.488.88 1.098.002.58.3 58.256 0 75.01-.3 16.7.129 29.614.134 29.74.02.612-.355 1.124-.841 1.152h-.04zM154 304c-.133 0-.269-.023-.402-.063-.617-.208-.94-.84-.718-1.411.506-2.17 1.743-46.51 1.743-63.193 0-15.916-3.58-43.816-3.614-44.095-.079-.605.387-1.153 1.04-1.225.665-.096 1.246.359 1.322.963.038.283 3.629 28.31 3.629 44.357.003 13.442-1.164 62.09-1.879 63.94-.176.447-.632.727-1.12.727M170.922 282c-.57 0-1.046-.456-1.076-1.047-.02-.441-2.196-44.446-2.018-67.028.164-20.96-3.231-23.853-3.265-23.878-.534-.274-.705-.907-.44-1.453.264-.545.957-.748 1.49-.47.76.386 4.545 3.453 4.37 25.818-.178 22.518 1.995 66.455 2.016 66.9.03.609-.427 1.125-1.022 1.158h-.055z" transform="translate(-1005.000000, -2947.000000) translate(1005.000000, 2947.000000)"/>
                <path fill="#EFAC62" d="M73.883 227S2.365 237.074 2 303l105-.25S78.149 252.167 73.883 227" transform="translate(-1005.000000, -2947.000000) translate(1005.000000, 2947.000000)"/>
                <path fill="#F7941D" d="M72.635 229.37c-8.769 1.584-69.325 14.66-70.408 73.424l102.766-.243c-5.029-8.886-27.927-50.19-32.358-73.18zM1.107 305c-.296 0-.577-.117-.786-.324-.208-.208-.323-.49-.321-.784.37-65.936 72.646-76.779 73.375-76.881.587-.082 1.147.32 1.245.907 4.218 24.622 32.943 74.68 33.233 75.181.197.343.195.76-.002 1.101-.197.338-.563.55-.956.55L1.109 305h-.002z" transform="translate(-1005.000000, -2947.000000) translate(1005.000000, 2947.000000)"/>
                <path fill="#F7941D" d="M77.869 304c-.232 0-.466-.067-.667-.214-2.022-1.44-19.809-14.214-21.754-18.985-1.889-4.637 8.715-11.599 13.08-14.226-4.898-4.202-21.387-18.407-23.098-20.628-2.118-2.748 4.08-10.31 7.964-14.576.414-.455 1.126-.497 1.595-.095.466.401.511 1.093.095 1.547-4.635 5.094-8.373 10.729-7.84 11.82 1.482 1.924 17.777 16.008 23.93 21.273.27.232.41.578.377.929-.036.348-.239.66-.552.84-6.038 3.453-14.492 9.753-13.45 12.308 1.293 3.173 13.261 12.516 20.99 18.025.504.362.611 1.047.24 1.534-.22.295-.561.448-.91.448" transform="translate(-1005.000000, -2947.000000) translate(1005.000000, 2947.000000)"/>
                <path fill="#EFAC62" d="M183.116 227s71.516 10.074 71.884 76l-105-.25s28.85-50.583 33.116-75.75" transform="translate(-1005.000000, -2947.000000) translate(1005.000000, 2947.000000)"/>
                <g transform="translate(-1005.000000, -2947.000000) translate(1005.000000, 2947.000000) translate(149.000000, 227.000000)">
                    <mask id="gsallvt6dp" fill="#fff">
                        <use xlink:href="#skn08gjebo"/>
                    </mask>
                    <path fill="#F7941D" d="M3.007 75.551l102.765.243C104.69 16.999 44.136 3.95 35.367 2.37c-4.43 22.99-27.331 64.294-32.36 73.18M106.892 78h-.002L1.105 77.75c-.393 0-.76-.21-.956-.55-.197-.338-.2-.758-.002-1.1.288-.5 29.017-50.56 33.235-75.182.098-.587.637-.99 1.242-.907.732.103 73.007 10.945 73.377 76.881.003.294-.115.576-.323.784-.209.207-.49.324-.786.324" mask="url(#gsallvt6dp)"/>
                </g>
                <path fill="#F7941D" d="M179.13 304c-.346 0-.69-.153-.91-.448-.37-.487-.26-1.172.241-1.534 7.73-5.51 19.697-14.854 20.99-18.025 1.042-2.555-7.41-8.855-13.45-12.308-.311-.18-.517-.492-.55-.84-.036-.35.105-.697.375-.929 6.153-5.265 22.45-19.35 23.935-21.283.528-1.081-3.208-6.716-7.845-11.81-.414-.454-.371-1.146.098-1.547.468-.402 1.183-.36 1.594.095 3.882 4.265 10.08 11.828 7.962 14.576-1.711 2.22-18.2 16.426-23.096 20.628 4.363 2.627 14.967 9.59 13.078 14.226-1.946 4.771-19.732 17.544-21.755 18.985-.2.147-.435.214-.667.214" transform="translate(-1005.000000, -2947.000000) translate(1005.000000, 2947.000000)"/>
                <path fill="#A55D0F" d="M103 123.999c0 2.21-1.79 4.001-4 4.001s-4-1.792-4-4.001c0-2.207 1.79-3.999 4-3.999s4 1.792 4 3.999" transform="translate(-1005.000000, -2947.000000) translate(1005.000000, 2947.000000)"/>
                <path fill="#F7941D" d="M99 120.15c-1.57 0-2.85 1.28-2.85 2.85 0 1.573 1.28 2.852 2.85 2.852s2.85-1.28 2.85-2.852c0-1.57-1.28-2.85-2.85-2.85m0 7.85c-2.756 0-5-2.242-5-5 0-2.756 2.244-5 5-5 2.758 0 5 2.244 5 5 0 2.758-2.242 5-5 5" transform="translate(-1005.000000, -2947.000000) translate(1005.000000, 2947.000000)"/>
                <path fill="#A55D0F" d="M164 122.001c0 2.21-1.79 3.999-4 3.999s-4-1.79-4-3.999c0-2.21 1.79-4.001 4-4.001s4 1.792 4 4.001" transform="translate(-1005.000000, -2947.000000) translate(1005.000000, 2947.000000)"/>
                <path fill="#F7941D" d="M160 120.148c-1.57 0-2.85 1.28-2.85 2.852 0 1.57 1.28 2.85 2.85 2.85s2.85-1.28 2.85-2.85c0-1.573-1.28-2.852-2.85-2.852m0 7.852c-2.756 0-5-2.242-5-5s2.244-5 5-5 5 2.242 5 5-2.244 5-5 5" transform="translate(-1005.000000, -2947.000000) translate(1005.000000, 2947.000000)"/>
            </g>
        </g>
    </g>
</svg>
