<svg xmlns="http://www.w3.org/2000/svg" xmlns:xlink="http://www.w3.org/1999/xlink" width="257" height="305" viewBox="0 0 257 305">
    <defs>
        <path id="1x0ow8bqea" d="M0 0.055L236 0.055 236 1.945 0 1.945z"/>
        <path id="yl137dtqwc" d="M0 0L6 0 6 6 0 6z"/>
        <path id="7wzqtrzbse" d="M0 0L2 0 2 285 0 285z"/>
        <path id="wljj8b5hag" d="M0 0L6 0 6 6 0 6z"/>
    </defs>
    <g fill="none" fill-rule="evenodd">
        <g>
            <g>
                <path fill="#F7941D" d="M254.799 305h-3.598c-.663 0-1.201-.536-1.201-1.199s.538-1.202 1.201-1.202h2.4v-2.4c0-.663.535-1.199 1.198-1.199.663 0 1.201.536 1.201 1.199v3.602c0 .663-.538 1.199-1.201 1.199" transform="translate(-591.000000, -2947.000000) translate(591.000000, 2947.000000)"/>
                <g transform="translate(-591.000000, -2947.000000) translate(591.000000, 2947.000000) translate(10.000000, 303.000000)">
                    <mask id="galw2bntub" fill="#fff">
                        <use xlink:href="#1x0ow8bqea"/>
                    </mask>
                    <path fill="#F7941D" d="M7.784 1.945h-6.68C.494 1.945 0 1.523 0 1S.493.055 1.105.055h6.679c.609 0 1.102.424 1.102.946s-.493.944-1.102.944m13.36 0h-6.682c-.609 0-1.102-.422-1.102-.944s.493-.946 1.102-.946h6.682c.61 0 1.102.424 1.102.946s-.493.944-1.102.944m13.358 0h-6.68c-.609 0-1.104-.422-1.104-.944s.495-.946 1.105-.946h6.679c.611 0 1.104.424 1.104.946s-.493.944-1.104.944m13.36 0h-6.68c-.609 0-1.101-.422-1.101-.944s.492-.946 1.102-.946h6.679c.61 0 1.104.424 1.104.946s-.495.944-1.104.944m13.36 0h-6.681c-.61 0-1.102-.422-1.102-.944S53.93.055 54.54.055h6.681c.61 0 1.102.424 1.102.946s-.492.944-1.102.944m13.36 0h-6.681c-.61 0-1.102-.422-1.102-.944S67.29.055 67.9.055h6.681c.61 0 1.102.424 1.102.946s-.492.944-1.102.944m13.358 0h-6.679c-.61 0-1.102-.422-1.102-.944s.493-.946 1.102-.946h6.68c.609 0 1.104.424 1.104.946s-.495.944-1.105.944m13.36 0h-6.679c-.61 0-1.104-.422-1.104-.944s.495-.946 1.104-.946h6.68c.611 0 1.104.424 1.104.946s-.493.944-1.105.944m13.36 0h-6.68c-.608 0-1.103-.422-1.103-.944s.495-.946 1.102-.946h6.682c.609 0 1.104.424 1.104.946s-.495.944-1.104.944m13.36 0h-6.682c-.609 0-1.102-.422-1.102-.944s.493-.946 1.102-.946h6.682c.61 0 1.102.424 1.102.946s-.493.944-1.102.944m13.36 0H134.7c-.61 0-1.103-.422-1.103-.944s.493-.946 1.103-.946h6.681c.61 0 1.102.424 1.102.946s-.493.944-1.102.944m13.358 0h-6.68c-.609 0-1.104-.422-1.104-.944s.495-.946 1.105-.946h6.679c.61 0 1.104.424 1.104.946s-.495.944-1.104.944m13.36 0h-6.679c-.612 0-1.104-.422-1.104-.944s.492-.946 1.104-.946h6.679c.61 0 1.102.424 1.102.946s-.492.944-1.102.944m13.36 0h-6.681c-.607 0-1.102-.422-1.102-.944s.495-.946 1.102-.946h6.681c.61 0 1.102.424 1.102.946s-.492.944-1.102.944m13.36 0h-6.68c-.61 0-1.103-.422-1.103-.944s.493-.946 1.102-.946h6.681c.61 0 1.103.424 1.103.946s-.493.944-1.103.944m13.36 0h-6.68c-.612 0-1.103-.422-1.103-.944s.49-.946 1.102-.946h6.682c.61 0 1.102.424 1.102.946s-.493.944-1.102.944m13.358 0h-6.68c-.609 0-1.104-.422-1.104-.944s.495-.946 1.105-.946h6.679c.609 0 1.102.424 1.102.946s-.493.944-1.102.944m13.36 0h-6.68c-.611 0-1.104-.422-1.104-.944s.493-.946 1.105-.946h6.679c.61 0 1.102.424 1.102.946s-.493.944-1.102.944" mask="url(#galw2bntub)"/>
                </g>
                <g transform="translate(-591.000000, -2947.000000) translate(591.000000, 2947.000000) translate(0.000000, 299.000000)">
                    <mask id="yfmnhodvkd" fill="#fff">
                        <use xlink:href="#yl137dtqwc"/>
                    </mask>
                    <path fill="#F7941D" d="M4.799 6H1.2C.538 6 0 5.464 0 4.801V1.199C0 .536.537 0 1.2 0 1.863 0 2.4.536 2.4 1.199v2.4h2.4C5.462 3.6 6 4.138 6 4.801 6 5.464 5.462 6 4.799 6" mask="url(#yfmnhodvkd)"/>
                </g>
                <g transform="translate(-591.000000, -2947.000000) translate(591.000000, 2947.000000) translate(0.000000, 10.000000)">
                    <mask id="z1oo2zotrf" fill="#fff">
                        <use xlink:href="#7wzqtrzbse"/>
                    </mask>
                    <path fill="#F7941D" d="M.946 8.78C.424 8.78 0 8.288 0 7.68V1.103C0 .492.424 0 .946 0s.944.492.944 1.103V7.68c0 .608-.422 1.1-.944 1.1m0 13.154c-.522 0-.946-.494-.946-1.102v-6.577c0-.609.424-1.103.946-1.103s.944.494.944 1.103v6.577c0 .608-.422 1.102-.944 1.102m0 13.152c-.522 0-.946-.492-.946-1.1v-6.577c0-.609.424-1.103.946-1.103s.944.494.944 1.103v6.577c0 .608-.422 1.1-.944 1.1m0 13.154c-.522 0-.946-.494-.946-1.103v-6.574c0-.609.424-1.103.946-1.103s.944.494.944 1.103v6.574c0 .609-.422 1.103-.944 1.103m0 13.154C.424 61.394 0 60.9 0 60.292v-6.577c0-.609.424-1.1.946-1.1s.944.491.944 1.1v6.577c0 .608-.422 1.102-.944 1.102m0 13.152c-.522 0-.946-.492-.946-1.1v-6.577c0-.609.424-1.103.946-1.103s.944.494.944 1.103v6.577c0 .608-.422 1.1-.944 1.1m0 13.154C.424 87.7 0 87.208 0 86.597V80.02c0-.608.424-1.1.946-1.1s.944.492.944 1.1v6.577c0 .611-.422 1.103-.944 1.103m0 13.152c-.522 0-.946-.492-.946-1.1v-6.578c0-.608.424-1.1.946-1.1s.944.492.944 1.1v6.578c0 .608-.422 1.1-.944 1.1m0 13.154c-.522 0-.946-.492-.946-1.1v-6.577c0-.609.424-1.103.946-1.103s.944.494.944 1.103v6.577c0 .608-.422 1.1-.944 1.1m0 13.154c-.522 0-.946-.494-.946-1.103v-6.577c0-.608.424-1.1.946-1.1s.944.492.944 1.1v6.577c0 .609-.422 1.103-.944 1.103m0 13.154c-.522 0-.946-.494-.946-1.103v-6.574c0-.611.424-1.103.946-1.103s.944.492.944 1.103v6.574c0 .609-.422 1.103-.944 1.103m0 13.152c-.522 0-.946-.492-.946-1.103v-6.574c0-.609.424-1.103.946-1.103s.944.494.944 1.103v6.574c0 .611-.422 1.103-.944 1.103m0 13.154c-.522 0-.946-.492-.946-1.1v-6.58c0-.606.424-1.1.946-1.1s.944.494.944 1.1v6.58c0 .608-.422 1.1-.944 1.1m0 13.152c-.522 0-.946-.492-.946-1.1v-6.578c0-.608.424-1.1.946-1.1s.944.492.944 1.1v6.577c0 .609-.422 1.1-.944 1.1m0 13.155c-.522 0-.946-.494-.946-1.103v-6.575c0-.608.424-1.102.946-1.102s.944.494.944 1.102v6.575c0 .609-.422 1.103-.944 1.103m0 13.154c-.522 0-.946-.494-.946-1.103v-6.574c0-.611.424-1.103.946-1.103s.944.492.944 1.103v6.574c0 .609-.422 1.103-.944 1.103m0 13.154c-.522 0-.946-.494-.946-1.103v-6.577c0-.608.424-1.102.946-1.102s.944.494.944 1.102v6.577c0 .609-.422 1.103-.944 1.103m0 13.152c-.522 0-.946-.492-.946-1.1v-6.578c0-.608.424-1.102.946-1.102s.944.494.944 1.102v6.577c0 .609-.422 1.1-.944 1.1m0 13.155c-.522 0-.946-.494-.946-1.103v-6.577c0-.606.424-1.1.946-1.1s.944.494.944 1.1v6.577c0 .609-.422 1.103-.944 1.103m0 13.152c-.522 0-.946-.492-.946-1.1v-6.578c0-.608.424-1.1.946-1.1s.944.492.944 1.1v6.577c0 .609-.422 1.1-.944 1.1m0 13.155c-.522 0-.946-.492-.946-1.1v-6.578c0-.61.424-1.102.946-1.102s.944.492.944 1.102v6.577c0 .609-.422 1.1-.944 1.1m0 13.155c-.522 0-.946-.494-.946-1.103v-6.577c0-.608.424-1.103.946-1.103s.944.495.944 1.103v6.577c0 .609-.422 1.103-.944 1.103" mask="url(#z1oo2zotrf)"/>
                </g>
                <g transform="translate(-591.000000, -2947.000000) translate(591.000000, 2947.000000)">
                    <mask id="19coxcuw9h" fill="#fff">
                        <use xlink:href="#wljj8b5hag"/>
                    </mask>
                    <path fill="#F7941D" d="M1.2 6C.538 6 0 5.464 0 4.801V1.199C0 .536.537 0 1.2 0H4.8C5.462 0 6 .536 6 1.199c0 .666-.538 1.202-1.201 1.202h-2.4v2.4C2.399 5.464 1.863 6 1.2 6" mask="url(#19coxcuw9h)"/>
                </g>
                <path fill="#F7941D" d="M17.784 1.89h-6.68C10.494 1.89 10 1.468 10 .944 10 .422 10.493 0 11.105 0h6.679c.609 0 1.102.422 1.102.944 0 .524-.493.946-1.102.946m13.36 0h-6.682c-.607 0-1.102-.422-1.102-.946 0-.522.495-.944 1.102-.944h6.682c.61 0 1.102.422 1.102.944 0 .524-.493.946-1.102.946m13.36 0h-6.681c-.61 0-1.105-.422-1.105-.946 0-.522.495-.944 1.105-.944h6.68c.61 0 1.103.422 1.103.944 0 .524-.493.946-1.102.946m13.358 0h-6.68c-.609 0-1.101-.422-1.101-.946 0-.522.492-.944 1.102-.944h6.679c.61 0 1.104.422 1.104.944 0 .524-.495.946-1.104.946m13.36 0h-6.679c-.61 0-1.104-.422-1.104-.946 0-.522.495-.944 1.104-.944h6.679c.61 0 1.102.422 1.102.944 0 .524-.492.946-1.102.946m13.36 0h-6.679c-.612 0-1.104-.422-1.104-.946 0-.522.492-.944 1.104-.944h6.68c.609 0 1.101.422 1.101.944 0 .524-.492.946-1.102.946m13.36 0h-6.68c-.61 0-1.103-.422-1.103-.946 0-.522.493-.944 1.102-.944h6.681c.61 0 1.103.422 1.103.944 0 .524-.493.946-1.103.946m13.358 0h-6.679c-.61 0-1.104-.422-1.104-.946 0-.522.495-.944 1.104-.944h6.68c.609 0 1.104.422 1.104.944 0 .524-.495.946-1.105.946m13.36 0h-6.678c-.61 0-1.103-.422-1.103-.946 0-.522.493-.944 1.103-.944h6.679c.609 0 1.104.422 1.104.944 0 .524-.495.946-1.104.946m13.36 0h-6.682c-.609 0-1.102-.422-1.102-.946 0-.522.493-.944 1.102-.944h6.682c.61 0 1.102.422 1.102.944 0 .524-.493.946-1.102.946m13.36 0H144.7c-.61 0-1.103-.422-1.103-.946 0-.522.493-.944 1.103-.944h6.681c.61 0 1.102.422 1.102.944 0 .524-.493.946-1.102.946m13.358 0h-6.68c-.609 0-1.101-.422-1.101-.946 0-.522.492-.944 1.102-.944h6.679c.61 0 1.104.422 1.104.944 0 .524-.495.946-1.104.946m13.36 0h-6.679c-.612 0-1.104-.422-1.104-.946 0-.522.492-.944 1.104-.944h6.679c.61 0 1.105.422 1.105.944 0 .524-.495.946-1.105.946m13.36 0h-6.681c-.61 0-1.102-.422-1.102-.946 0-.522.492-.944 1.102-.944h6.681c.61 0 1.105.422 1.105.944 0 .524-.495.946-1.105.946m13.36 0h-6.68c-.61 0-1.103-.422-1.103-.946 0-.522.493-.944 1.102-.944h6.681c.61 0 1.103.422 1.103.944 0 .524-.493.946-1.103.946m13.36 0h-6.68c-.61 0-1.103-.422-1.103-.946 0-.522.493-.944 1.102-.944h6.682c.61 0 1.102.422 1.102.944 0 .524-.493.946-1.102.946m13.358 0h-6.68c-.609 0-1.104-.422-1.104-.946 0-.522.495-.944 1.105-.944h6.679c.609 0 1.104.422 1.104.944 0 .524-.495.946-1.104.946m13.36 0h-6.68c-.611 0-1.104-.422-1.104-.946 0-.522.493-.944 1.105-.944h6.679c.61 0 1.102.422 1.102.944 0 .524-.493.946-1.102.946M254.799 6c-.663 0-1.198-.536-1.198-1.199v-2.4h-2.4c-.663 0-1.201-.536-1.201-1.202 0-.663.538-1.199 1.201-1.199h3.598c.663 0 1.201.536 1.201 1.199v3.602c0 .663-.538 1.199-1.201 1.199M254.944 18.78c-.522 0-.944-.492-.944-1.1v-6.577c0-.611.422-1.103.944-1.103s.946.492.946 1.103v6.577c0 .608-.424 1.1-.946 1.1m0 13.154c-.522 0-.944-.494-.944-1.102v-6.577c0-.609.422-1.103.944-1.103s.946.494.946 1.103v6.577c0 .608-.424 1.102-.946 1.102m0 13.152c-.522 0-.944-.492-.944-1.1v-6.577c0-.609.422-1.1.944-1.1s.946.491.946 1.1v6.577c0 .608-.424 1.1-.946 1.1m0 13.154c-.522 0-.944-.494-.944-1.103v-6.574c0-.609.422-1.103.944-1.103s.946.494.946 1.103v6.574c0 .609-.424 1.103-.946 1.103m0 13.154c-.522 0-.944-.494-.944-1.102v-6.577c0-.609.422-1.1.944-1.1s.946.491.946 1.1v6.577c0 .608-.424 1.102-.946 1.102m0 13.152c-.522 0-.944-.492-.944-1.1v-6.577c0-.609.422-1.103.944-1.103s.946.494.946 1.103v6.577c0 .608-.424 1.1-.946 1.1m0 13.154c-.522 0-.944-.492-.944-1.103v-6.574c0-.611.422-1.103.944-1.103s.946.492.946 1.103v6.574c0 .611-.424 1.103-.946 1.103m0 13.152c-.522 0-.944-.492-.944-1.1v-6.578c0-.608.422-1.1.944-1.1s.946.492.946 1.1v6.578c0 .608-.424 1.1-.946 1.1m0 13.154c-.522 0-.944-.492-.944-1.1v-6.577c0-.609.422-1.103.944-1.103s.946.494.946 1.103v6.577c0 .608-.424 1.1-.946 1.1m0 13.154c-.522 0-.944-.494-.944-1.103v-6.577c0-.608.422-1.1.944-1.1s.946.492.946 1.1v6.577c0 .609-.424 1.103-.946 1.103m0 13.154c-.522 0-.944-.494-.944-1.103v-6.574c0-.611.422-1.103.944-1.103s.946.492.946 1.103v6.574c0 .609-.424 1.103-.946 1.103m0 13.152c-.522 0-.944-.492-.944-1.103v-6.574c0-.609.422-1.103.944-1.103s.946.494.946 1.103v6.574c0 .611-.424 1.103-.946 1.103m0 13.154c-.522 0-.944-.492-.944-1.1v-6.58c0-.606.422-1.1.944-1.1s.946.494.946 1.1v6.58c0 .608-.424 1.1-.946 1.1m0 13.152c-.522 0-.944-.492-.944-1.1v-6.578c0-.608.422-1.1.944-1.1s.946.492.946 1.1v6.577c0 .609-.424 1.1-.946 1.1m0 13.155c-.522 0-.944-.494-.944-1.103v-6.575c0-.608.422-1.102.944-1.102s.946.494.946 1.102v6.575c0 .609-.424 1.103-.946 1.103m0 13.154c-.522 0-.944-.492-.944-1.103v-6.574c0-.611.422-1.103.944-1.103s.946.492.946 1.103v6.574c0 .611-.424 1.103-.946 1.103m0 13.154c-.522 0-.944-.494-.944-1.103v-6.577c0-.608.422-1.102.944-1.102s.946.494.946 1.102v6.577c0 .609-.424 1.103-.946 1.103m0 13.152c-.522 0-.944-.492-.944-1.1v-6.578c0-.608.422-1.102.944-1.102s.946.494.946 1.102v6.577c0 .609-.424 1.1-.946 1.1m0 13.155c-.522 0-.944-.494-.944-1.103v-6.577c0-.606.422-1.1.944-1.1s.946.494.946 1.1v6.577c0 .609-.424 1.103-.946 1.103m0 13.152c-.522 0-.944-.492-.944-1.1v-6.578c0-.608.422-1.1.944-1.1s.946.492.946 1.1v6.577c0 .609-.424 1.1-.946 1.1m0 13.155c-.522 0-.944-.492-.944-1.1v-6.578c0-.61.422-1.102.944-1.102s.946.492.946 1.102v6.577c0 .609-.424 1.1-.946 1.1m0 13.155c-.522 0-.944-.494-.944-1.103v-6.577c0-.608.422-1.103.944-1.103s.946.495.946 1.103v6.577c0 .609-.424 1.103-.946 1.103" transform="translate(-591.000000, -2947.000000) translate(591.000000, 2947.000000)"/>
                <path fill="#F2E7DA" d="M190.716 121C178.713 123.634 170 131.51 170 140.819c0 8.653 7.531 16.062 18.231 19.181 2.933-13.04 3.088-26.907 2.485-39" transform="translate(-591.000000, -2947.000000) translate(591.000000, 2947.000000)"/>
                <path fill="#F2E7DA" d="M189.6 122.478c-11.067 2.835-18.412 10.092-18.412 18.34 0 7.594 6.306 14.443 16.166 17.676 2.132-10.12 2.868-21.929 2.245-36.016M188.166 161c-.102 0-.204-.012-.303-.044C176.403 157.606 169 149.7 169 140.817c0-9.618 8.598-17.975 21.396-20.791.314-.07.643.002.898.2.257.196.414.497.428.821.766 15.423-.049 28.211-2.489 39.095-.067.296-.25.553-.511.706-.17.1-.361.152-.556.152M65.01 125c-.075 7.222.272 15.471 1.505 23.914.832 5.702 2.074 11.483 3.852 17.086C82.82 163.604 92 155.495 92 145.83c0-11.009-11.897-20.011-26.99-20.83" transform="translate(-591.000000, -2947.000000) translate(591.000000, 2947.000000)"/>
                <path fill="#F2E7DA" d="M66.171 126.295c-.025 7.907.476 15.45 1.494 22.437.82 5.618 1.994 10.955 3.495 15.876 11.629-2.552 19.669-10.178 19.669-18.782 0-9.943-10.74-18.37-24.658-19.531M70.418 167c-.462 0-.885-.303-1.032-.768-1.677-5.294-2.978-11.074-3.87-17.174-1.084-7.447-1.592-15.509-1.507-23.96.005-.304.127-.592.343-.799.218-.207.503-.31.8-.298C80.768 124.848 93 134.437 93 145.826c0 9.919-9.203 18.617-22.38 21.155-.067.012-.136.019-.202.019" transform="translate(-591.000000, -2947.000000) translate(591.000000, 2947.000000)"/>
                <path fill="#627A78" d="M190.042 123.974c-.024-.66-.056-1.3-.084-1.948.03.646.06 1.29.084 1.948" transform="translate(-591.000000, -2947.000000) translate(591.000000, 2947.000000)"/>
                <path fill="#F7941D" d="M190.041 125c-.506 0-.924-.417-.944-.949v-.004l-.084-2.019c-.024-.544.38-1.003.9-1.028.522-.012.962.394.988.939v.004c.032.684.06 1.353.086 2.037.016.542-.39 1-.91 1.02h-.036" transform="translate(-591.000000, -2947.000000) translate(591.000000, 2947.000000)"/>
                <path fill="#EFAC62" d="M189.659 116c1.893-.772 3.996-1.22 6.223-1.22 1.637 0 3.207.244 4.677.675.666-9.674.642-21.085-.523-34.455L187 88.882l.954 3.074c-.18 4.666.959 13.405 1.705 24.044" transform="translate(-591.000000, -2947.000000) translate(591.000000, 2947.000000)"/>
                <path fill="#EFAC62" d="M188.426 89.414l.694 2.263c.035.113.052.236.047.353-.109 2.847.283 7.265.78 12.859.258 2.902.543 6.092.79 9.495 2.783-.87 5.79-1.017 8.691-.401.578-9.567.427-19.987-.453-31.019l-10.549 6.45zM189.731 117c-.203 0-.406-.053-.585-.161-.307-.185-.503-.506-.529-.856-.27-3.934-.596-7.606-.889-10.905-.493-5.555-.886-9.966-.794-12.946l-.887-2.889c-.144-.47.052-.978.476-1.236l12.825-7.841c.33-.203.743-.22 1.09-.051.346.17.577.505.61.884 1.062 12.311 1.236 23.899.52 34.442-.024.332-.201.636-.48.823-.28.19-.632.247-.957.148-3.304-.983-6.832-.796-9.966.5-.14.058-.288.088-.434.088z" transform="translate(-591.000000, -2947.000000) translate(591.000000, 2947.000000)"/>
                <path fill="#627A78" d="M190.093 120c-.012-.298-.02-.607-.034-.903-.046-1.056-.098-2.075-.152-3.097.066 1.31.128 2.643.186 4" transform="translate(-591.000000, -2947.000000) translate(591.000000, 2947.000000)"/>
                <path fill="#F7941D" d="M190.089 121c-.48 0-.883-.476-.908-1.088-.056-1.25-.115-2.48-.179-3.687-.033-.634.347-1.183.846-1.225.534-.007.939.437.971 1.071v.003l.018.317c.046.842.09 1.686.129 2.555l.033.839c.027.637-.357 1.178-.86 1.213-.015.002-.033.002-.05.002" transform="translate(-591.000000, -2947.000000) translate(591.000000, 2947.000000)"/>
                <path fill="#EFAC62" d="M196.267 141.06c-1.943 0-3.792-.38-5.47-1.06-.32 7.32-1.134 14.793-2.797 21.98l.07 1.02s5.111-6.248 8.93-21.975c-.244.012-.486.035-.733.035" transform="translate(-591.000000, -2947.000000) translate(591.000000, 2947.000000)"/>
                <path fill="#EFAC62" d="M191.8 141.617c-.304 5.814-.896 11.12-1.802 16.073 1.623-3.208 3.728-8.245 5.575-15.444-1.288-.051-2.55-.264-3.773-.63M188.125 164c-.111 0-.22-.019-.33-.056-.407-.138-.693-.522-.722-.971l-.07-1.01c-.009-.113 0-.228.025-.34 1.49-6.457 2.383-13.514 2.731-21.567.018-.358.195-.683.48-.877.285-.194.642-.232.957-.105 1.728.7 3.588 1.064 5.45.956l.25-.016c.35-.014.655.136.865.407.212.272.288.632.208.971-3.791 15.655-8.829 21.96-9.041 22.22-.204.25-.499.388-.803.388" transform="translate(-591.000000, -2947.000000) translate(591.000000, 2947.000000)"/>
                <path fill="#F7941D" d="M255.898 305H2.105c-.61 0-1.105-.493-1.105-1.103 0-.489.086-12.224 7.406-36.4 4.736-15.644 31.22-23.028 52.604-26.47 8.84-1.423 16.094-2.033 18.705-2.222V186.82c0-.61.49-1.103 1.102-1.103.61 0 1.102.493 1.102 1.103v53.016c0 .586-.455 1.07-1.039 1.103-.084.005-8.562.507-19.517 2.27-17 2.735-46.21 9.612-50.846 24.926-5.967 19.707-7.062 31.213-7.263 34.656h251.46c-.175-2.34-.656-7.943-1.644-14.503-1.098-7.256-2.478-13.535-4.108-18.664-5.923-18.626-38.433-30.155-65.155-30.155-.589 0-1.075-.46-1.103-1.048l-3.038-59.257c-.03-.608.439-1.129 1.048-1.16.547-.058 1.126.438 1.157 1.048l2.984 58.212c31.658.3 60.622 14.113 66.208 31.692 1.666 5.236 3.074 11.63 4.188 19 1.32 8.738 1.742 15.805 1.749 15.875.017.302-.09.6-.301.823-.208.222-.497.346-.801.346" transform="translate(-591.000000, -2947.000000) translate(591.000000, 2947.000000)"/>
                <path fill="#EAE7E7" d="M254.261 288.17C255.589 296.99 256 304 256 304H2s0-11.824 7.363-36.208C14.044 252.285 41.649 245.146 61.13 242c0 0 10.626 34.104 82.409 44.081 60.517 8.408 110.721 2.088 110.721 2.088" transform="translate(-591.000000, -2947.000000) translate(591.000000, 2947.000000)"/>
                <path fill="#F7941D" d="M3.251 302.79h251.463c-.164-2.214-.603-7.349-1.488-13.454-7.623.84-54.756 5.43-109.847-2.207-65.936-9.14-80.654-38.155-82.915-43.787-17.11 2.829-45.393 9.731-49.95 24.785-5.964 19.71-7.062 31.217-7.263 34.663M255.898 305H2.102c-.61 0-1.102-.496-1.102-1.104 0-.488.084-12.226 7.404-36.41 4.736-15.645 31.22-23.031 52.604-26.473.544-.082 1.065.236 1.229.757.107.335 11.392 33.46 81.443 43.17 59.62 8.264 109.843 2.147 110.345 2.082.595-.066 1.14.339 1.226.93 1.32 8.74 1.742 15.809 1.749 15.879.017.302-.09.6-.299.82-.208.225-.5.349-.803.349" transform="translate(-591.000000, -2947.000000) translate(591.000000, 2947.000000)"/>
                <path fill="#EFAC62" d="M179.717 181.07c-8.786 14.635-24.264 25.226-50.968 25.837-22.832.52-37.667-7.815-47.215-20.016l-.534.03v8.143s44.794 34.827 101 7.42L180.906 181l-1.19.07z" transform="translate(-591.000000, -2947.000000) translate(591.000000, 2947.000000)"/>
                <path fill="#F7941D" d="M82.2 194.55c4.683 3.374 46.936 31.985 98.564 7.276l-.961-18.85c-10.249 16.074-27.408 24.497-51.024 25.035-19.97.424-35.658-5.802-46.58-18.605v5.144zM138.076 214c-33.89 0-57.324-17.763-57.648-18.013-.27-.211-.428-.534-.428-.876v-8.109c0-.585.454-1.07 1.036-1.102l.533-.033c.365-.016.705.136.926.419 10.516 13.408 26.044 19.949 46.236 19.514 23.408-.534 40.213-9.01 49.95-25.196.186-.312.514-.51.877-.532l1.185-.07c.298-.019.58.084.798.279.22.196.352.472.366.767l1.091 21.4c.024.443-.22.857-.619 1.051C166.5 211.224 151.471 214 138.076 214z" transform="translate(-591.000000, -2947.000000) translate(591.000000, 2947.000000)"/>
                <path fill="#F7941D" d="M68.05 102.17c-.228 1.386-1.245 8.008-1.657 17.18-.473 10.455-.019 20.376 1.345 29.488 1.243 8.292 3.246 15.837 5.96 22.424 9.686 23.51 28.242 35.107 55.197 34.516 29.41-.663 48.359-13.68 56.324-38.688 5.247-16.47 4.884-34.95 4.154-47.417-.082-1.41-.176-2.792-.272-4.142-.252-3.513-.54-6.803-.8-9.79-.491-5.598-.882-10.042-.79-13.046l-6.35-21.044-87.828-1.443-25.284 31.961zM126.877 208c-26.838 0-45.408-12.07-55.227-35.905-2.778-6.752-4.83-14.467-6.1-22.934-1.386-9.25-1.845-19.314-1.37-29.912.47-10.446 1.723-17.657 1.734-17.726.033-.18.108-.35.223-.491l25.796-32.61c.213-.27.587-.399.887-.422l89.185 1.466c.483.01.901.326 1.042.784l6.634 21.985c.033.116.049.237.044.356-.107 2.868.283 7.322.777 12.959.262 2.997.55 6.3.803 9.826.098 1.358.192 2.747.274 4.169.739 12.64 1.104 31.391-4.252 48.208-8.282 26.003-27.924 39.535-58.384 40.224-.693.014-1.383.023-2.066.023z" transform="translate(-591.000000, -2947.000000) translate(591.000000, 2947.000000)"/>
                <path fill="#F7941D" d="M191.687 139.093c1.475.471 3.019.71 4.603.71 7.425 0 13.465-5.296 13.465-11.803 0-6.51-6.04-11.804-13.465-11.804-1.717 0-3.394.286-4.995.853.05.704.097 1.41.14 2.136.42 7.049.504 13.742.252 19.908M196.29 142c-2.133 0-4.207-.379-6.166-1.123-.45-.171-.736-.601-.715-1.07.292-6.315.218-13.208-.214-20.494-.052-.888-.114-1.75-.17-2.61l-.022-.31c-.034-.466.24-.901.681-1.085 2.1-.866 4.321-1.308 6.606-1.308 8.663 0 15.71 6.28 15.71 14 0 7.718-7.047 14-15.71 14" transform="translate(-591.000000, -2947.000000) translate(591.000000, 2947.000000)"/>
                <path fill="#F7941D" d="M191.422 133.194c1.097.427 2.249.645 3.428.645 4.406 0 7.992-2.843 7.992-6.338 0-3.497-3.586-6.34-7.992-6.34-1.26 0-2.51.252-3.655.728.179 3.88.256 7.677.227 11.305M194.85 136c-1.728 0-3.403-.377-4.978-1.123-.382-.18-.624-.567-.617-.99.048-4.026-.037-8.27-.254-12.62-.02-.426.21-.824.592-1.018 1.607-.817 3.426-1.249 5.257-1.249 5.597 0 10.15 3.813 10.15 8.501 0 4.686-4.553 8.499-10.15 8.499M59.521 116.196c-7.335 0-13.304 5.294-13.304 11.804 0 6.507 5.97 11.804 13.304 11.804 1.8 0 3.545-.32 5.204-.95-.49-6.443-.582-13.152-.274-19.962.028-.62.058-1.22.091-1.81-1.607-.588-3.292-.886-5.021-.886zm0 25.804C50.964 142 44 135.718 44 128c0-7.72 6.964-14 15.521-14 2.29 0 4.514.453 6.614 1.346.427.183.695.613.667 1.073-.05.835-.097 1.685-.136 2.57-.317 6.998-.205 13.891.33 20.482.038.465-.222.902-.652 1.093-2.154.953-4.449 1.436-6.823 1.436z" transform="translate(-591.000000, -2947.000000) translate(591.000000, 2947.000000)"/>
                <path fill="#F7941D" d="M60.626 121.161c-4.612 0-8.365 2.843-8.365 6.338s3.753 6.34 8.365 6.34c1.435 0 2.832-.282 4.084-.817-.158-3.664-.19-7.383-.091-11.076-1.232-.515-2.598-.785-3.993-.785m0 14.839C54.768 136 50 132.187 50 127.499c0-4.686 4.768-8.499 10.626-8.499 2 0 3.962.457 5.674 1.322.38.192.613.576.6.988-.128 4.105-.095 8.252.099 12.32.019.412-.21.801-.591 1-1.73.897-3.727 1.37-5.782 1.37M123.647 151c-1.238 0-2.265-.049-2.889-.175-3.228-.643-3.193-3.128-3.125-7.643.012-.83.026-1.76.026-2.797 0-6.493-1.638-29.972-1.656-30.207-.042-.606.418-1.133 1.027-1.177.591-.023 1.136.417 1.178 1.023.068.967 1.661 23.79 1.661 30.361 0 1.05-.014 1.991-.026 2.83-.07 4.685.057 5.195 1.348 5.452 2.14.426 11.265-.266 14.602-.569.625-.053 1.146.392 1.203.998.053.606-.393 1.142-1.002 1.195-.984.091-7.971.709-12.347.709M170.9 105c-.213 0-.43-.057-.618-.18-9.947-6.379-24.879-4.482-25.03-4.46-.592.074-1.157-.311-1.24-.876-.087-.562.332-1.082.931-1.163.646-.085 15.918-2.036 26.578 4.801.5.32.63.96.288 1.43-.214.291-.557.448-.908.448" transform="translate(-591.000000, -2947.000000) translate(591.000000, 2947.000000)"/>
                <path fill="#EFAC62" d="M101.134 92.827s6.595 25.864 28.03 22.563c21.435-3.303 19.786-28.065 19.786-28.065s14.289 9.905 24.181-6.054c0 0 15.39 18.71 28.578 3.303 13.191-15.409-8.242-22.012-8.242-22.012s13.188-3.853 5.495-18.16c-7.694-14.308-25.831 2.2-25.831 2.2s-2.199-18.16-21.983-21.46c-19.786-3.303-25.281 12.106-25.281 12.106s1.1-25.314-21.436-23.112c-22.532 2.201-13.738 25.313-13.738 25.313s-25.83-30.815-45.068-1.651C26.389 66.964 62.66 70.265 62.66 70.265s-17.036 6.054-13.738 25.863c3.297 19.812 22.532 8.805 22.532 8.805s-.549 16.509 14.292 13.758c14.838-2.751 15.387-25.864 15.387-25.864" transform="translate(-591.000000, -2947.000000) translate(591.000000, 2947.000000)"/>
                <path fill="#F7941D" d="M71.71 103.764c.196 0 .395.052.57.159.341.204.547.576.533.974 0 .074-.178 7.296 4.018 10.878 2.176 1.858 5.213 2.444 9.037 1.737 13.866-2.555 14.55-24.538 14.558-24.759.011-.55.43-1.004.98-1.065.537-.062 1.058.286 1.194.816.016.066 1.676 6.373 5.869 12.181 5.502 7.617 12.594 10.825 21.054 9.528 20.268-3.102 19.008-25.887 18.945-26.856-.026-.419.19-.819.559-1.025.364-.21.82-.191 1.17.048.06.04 5.782 3.888 12.193 2.556 4.103-.854 7.649-3.637 10.54-8.273.187-.297.51-.49.863-.514.346-.037.7.124.928.396.072.088 7.48 8.89 16.025 8.97 4.005.016 7.714-1.88 10.998-5.69 3.422-3.971 4.68-7.624 3.74-10.853-1.842-6.326-11.414-9.323-11.51-9.354-.465-.141-.78-.571-.778-1.055.002-.484.325-.91.793-1.046.046-.014 4.777-1.453 6.507-5.585 1.239-2.97.687-6.659-1.648-10.97-1.608-2.968-3.73-4.64-6.486-5.11-7.773-1.33-17.653 7.512-17.751 7.603-.306.274-.744.351-1.127.216-.386-.142-.661-.488-.713-.897-.086-.707-2.375-17.354-21.173-20.47-18.686-3.092-23.966 10.78-24.179 11.372-.187.51-.718.81-1.255.702-.535-.102-.912-.581-.888-1.12.002-.117.411-11.66-6.279-17.957-3.41-3.208-8.127-4.543-14.048-3.973-5.977.581-10.164 2.725-12.438 6.377-4.35 6.985-.482 17.3-.442 17.403.192.502-.007 1.067-.472 1.34-.465.271-1.059.17-1.405-.24-.121-.147-12.473-14.51-25.902-13.75-6.655.381-12.578 4.42-17.61 12-5.33 8.025-6.772 14.703-4.29 19.843 4.486 9.29 20.425 10.849 20.587 10.863.514.048.928.446.993.955.066.514-.236 1-.725 1.174-.661.237-16.2 6.001-13.085 24.601.856 5.115 2.899 8.473 6.07 9.972 6.179 2.93 14.846-1.909 14.935-1.957.168-.098.355-.145.545-.145M82.887 120c-2.994 0-5.509-.858-7.503-2.567-3.62-3.097-4.509-8.142-4.72-10.818-3.04 1.393-9.833 3.857-15.373 1.24-3.869-1.826-6.325-5.73-7.31-11.6-2.503-14.94 6.314-22.448 11.312-25.431-5.323-1.04-15.208-3.95-18.892-11.565-2.845-5.89-1.353-13.294 4.434-22.01 5.44-8.194 11.945-12.563 19.336-12.984 10.463-.613 19.965 6.868 24.647 11.335-.81-4.025-1.246-10.137 1.816-15.052 2.655-4.264 7.4-6.757 14.102-7.408 6.573-.637 11.89.9 15.787 4.573 4.85 4.574 6.344 11.342 6.789 15.622 3.127-4.561 10.387-11.564 24.648-9.2 16.566 2.748 21.372 15.592 22.613 20.479 3.214-2.555 11.16-8.12 18.16-6.926 3.425.583 6.136 2.68 8.062 6.235 2.667 4.932 3.252 9.263 1.73 12.874-1.22 2.897-3.532 4.685-5.346 5.698 3.333 1.468 8.901 4.63 10.428 9.866 1.16 3.987-.248 8.323-4.187 12.894-3.693 4.285-7.917 6.457-12.557 6.457h-.147c-7.725-.077-14.287-6.124-16.71-8.673-3.086 4.45-6.845 7.154-11.186 8.052-5.128 1.06-9.735-.688-12.134-1.9-.163 6.099-2.225 24.345-20.827 27.191-16.332 2.497-24.497-11.092-27.706-18.611-1.082 7.19-4.584 19.82-15.883 21.901-1.188.221-2.317.328-3.383.328" transform="translate(-591.000000, -2947.000000) translate(591.000000, 2947.000000)"/>
                <path fill="#A55D0F" d="M100 121c0 2.21-1.79 4-4 4s-4-1.79-4-4 1.79-4 4-4 4 1.79 4 4" transform="translate(-591.000000, -2947.000000) translate(591.000000, 2947.000000)"/>
                <path fill="#F7941D" d="M96 118.15c-1.57 0-2.85 1.279-2.85 2.851 0 1.57 1.28 2.849 2.85 2.849s2.85-1.279 2.85-2.849c0-1.572-1.28-2.85-2.85-2.85M96 126c-2.758 0-5-2.243-5-4.999 0-2.758 2.242-5.001 5-5.001 2.756 0 5 2.243 5 5.001 0 2.756-2.244 4.999-5 4.999" transform="translate(-591.000000, -2947.000000) translate(591.000000, 2947.000000)"/>
                <path fill="#A55D0F" d="M154 122c0 2.21-1.79 4-4 4s-4-1.79-4-4 1.79-4 4-4 4 1.79 4 4" transform="translate(-591.000000, -2947.000000) translate(591.000000, 2947.000000)"/>
                <path fill="#F7941D" d="M150 119.15c-1.57 0-2.85 1.279-2.85 2.849 0 1.572 1.28 2.85 2.85 2.85s2.85-1.278 2.85-2.85c0-1.57-1.28-2.849-2.85-2.849m0 7.85c-2.756 0-5-2.243-5-5.001 0-2.756 2.244-4.999 5-4.999s5 2.243 5 4.999c0 2.758-2.244 5.001-5 5.001" transform="translate(-591.000000, -2947.000000) translate(591.000000, 2947.000000)"/>
            </g>
        </g>
    </g>
</svg>
