<svg xmlns="http://www.w3.org/2000/svg" xmlns:xlink="http://www.w3.org/1999/xlink" width="257" height="305" viewBox="0 0 257 305">
    <defs>
        <path id="1vgz62bt5a" d="M0 0.056L236 0.056 236 1.944 0 1.944z"/>
        <path id="zdyioj4ycc" d="M0 0L5 0 5 5 0 5z"/>
        <path id="2y2knj76re" d="M0.001 0L2 0 2 285 0.001 285z"/>
        <path id="o0entfi7qg" d="M0 0L5 0 5 5 0 5z"/>
        <path id="g0pj36shyi" d="M0 0L236 0 236 2 0 2z"/>
    </defs>
    <g fill="none" fill-rule="evenodd">
        <g>
            <g>
                <path fill="#F7941D" d="M255 305h-3.001c-.553 0-.999-.447-.999-1.001 0-.55.446-.997.999-.997h2v-2.003c0-.552.448-.999 1-.999s1.001.447 1.001 1v2.999c0 .554-.449 1.001-1 1.001" transform="translate(-177.000000, -2947.000000) translate(177.000000, 2947.000000)"/>
                <g transform="translate(-177.000000, -2947.000000) translate(177.000000, 2947.000000) translate(9.000000, 303.000000)">
                    <mask id="jcdavwa58b" fill="#fff">
                        <use xlink:href="#1vgz62bt5a"/>
                    </mask>
                    <path fill="#F7941D" d="M7.783 1.944H1.105C.493 1.944 0 1.522 0 .998 0 .478.493.056 1.105.056h6.678c.612 0 1.105.422 1.105.942 0 .524-.493.946-1.105.946m13.36 0h-6.68c-.608 0-1.1-.422-1.1-.946 0-.52.492-.942 1.1-.942h6.68c.608 0 1.103.422 1.103.942 0 .524-.495.946-1.102.946m13.357 0h-6.679c-.61 0-1.104-.422-1.104-.946 0-.52.495-.942 1.104-.942h6.68c.611 0 1.104.422 1.104.942 0 .524-.493.946-1.105.946m13.36 0h-6.679c-.611 0-1.104-.422-1.104-.946 0-.52.493-.942 1.104-.942h6.68c.611 0 1.104.422 1.104.942 0 .524-.493.946-1.105.946m13.36 0h-6.678c-.61 0-1.103-.422-1.103-.946 0-.52.493-.942 1.103-.942h6.678c.61 0 1.103.422 1.103.942 0 .524-.493.946-1.103.946m13.36 0h-6.68c-.61 0-1.103-.422-1.103-.946 0-.52.493-.942 1.102-.942h6.682c.609 0 1.102.422 1.102.942 0 .524-.493.946-1.102.946m13.357 0H81.26c-.61 0-1.104-.422-1.104-.946 0-.52.495-.942 1.104-.942h6.68c.611 0 1.104.422 1.104.942 0 .524-.493.946-1.105.946m13.36 0h-6.676c-.612 0-1.105-.422-1.105-.946 0-.52.493-.942 1.105-.942h6.676c.61 0 1.105.422 1.105.942 0 .524-.495.946-1.105.946m13.363 0h-6.684c-.607 0-1.1-.422-1.1-.946 0-.52.493-.942 1.1-.942h6.684c.607 0 1.1.422 1.1.942 0 .524-.493.946-1.1.946m13.355 0h-6.676c-.61 0-1.105-.422-1.105-.946 0-.52.495-.942 1.105-.942h6.676c.612 0 1.105.422 1.105.942 0 .524-.493.946-1.105.946m13.363 0h-6.68c-.611 0-1.104-.422-1.104-.946 0-.52.493-.942 1.105-.942h6.679c.611 0 1.104.422 1.104.942 0 .524-.493.946-1.104.946m13.36 0h-6.684c-.607 0-1.1-.422-1.1-.946 0-.52.493-.942 1.1-.942h6.684c.607 0 1.102.422 1.102.942 0 .524-.495.946-1.102.946m13.357 0h-6.679c-.609 0-1.104-.422-1.104-.946 0-.52.495-.942 1.104-.942h6.68c.609 0 1.102.422 1.102.942 0 .524-.493.946-1.103.946m13.36 0h-6.678c-.612 0-1.105-.422-1.105-.946 0-.52.493-.942 1.105-.942h6.678c.612 0 1.105.422 1.105.942 0 .524-.493.946-1.105.946m13.36 0h-6.68c-.61 0-1.103-.422-1.103-.946 0-.52.493-.942 1.102-.942h6.682c.609 0 1.102.422 1.102.942 0 .524-.493.946-1.102.946m13.36 0h-6.682c-.61 0-1.102-.422-1.102-.946 0-.52.493-.942 1.102-.942h6.682c.607 0 1.1.422 1.1.942 0 .524-.493.946-1.1.946m13.357 0h-6.679c-.609 0-1.104-.422-1.104-.946 0-.52.495-.942 1.104-.942h6.68c.611 0 1.104.422 1.104.942 0 .524-.493.946-1.105.946m13.36 0h-6.678c-.612 0-1.105-.422-1.105-.946 0-.52.493-.942 1.105-.942h6.678c.61 0 1.105.422 1.105.942 0 .524-.495.946-1.105.946" mask="url(#jcdavwa58b)"/>
                </g>
                <g transform="translate(-177.000000, -2947.000000) translate(177.000000, 2947.000000) translate(0.000000, 300.000000)">
                    <mask id="wriqnqxr9d" fill="#fff">
                        <use xlink:href="#zdyioj4ycc"/>
                    </mask>
                    <path fill="#F7941D" d="M3.999 5H1C.448 5-.001 4.553-.001 3.999v-3C-.001.447.448 0 1 0c.552 0 1.001.447 1.001 1v2.002H4c.554 0 1.001.446 1.001.997C5 4.553 4.553 5 3.999 5" mask="url(#wriqnqxr9d)"/>
                </g>
                <g transform="translate(-177.000000, -2947.000000) translate(177.000000, 2947.000000) translate(0.000000, 9.000000)">
                    <mask id="t6rhrrq1cf" fill="#fff">
                        <use xlink:href="#2y2knj76re"/>
                    </mask>
                    <path fill="#F7941D" d="M.946 8.78C.423 8.78 0 8.288 0 7.677V1.103C0 .492.422 0 .946 0c.522 0 .946.492.946 1.103v6.574c0 .611-.424 1.103-.946 1.103m0 13.154c-.522 0-.946-.494-.946-1.102v-6.577c0-.609.423-1.103.946-1.103.522 0 .946.494.946 1.103v6.577c0 .608-.424 1.102-.946 1.102m0 13.152c-.522 0-.946-.492-.946-1.1v-6.577c0-.609.423-1.1.946-1.1.522 0 .946.491.946 1.1v6.577c0 .608-.424 1.1-.946 1.1m0 13.154c-.522 0-.946-.494-.946-1.103v-6.574c0-.609.423-1.103.946-1.103.522 0 .946.494.946 1.103v6.574c0 .609-.424 1.103-.946 1.103m0 13.154C.423 61.394 0 60.9 0 60.292v-6.577c0-.609.423-1.1.946-1.1.522 0 .946.491.946 1.1v6.577c0 .608-.424 1.102-.946 1.102m0 13.152c-.522 0-.946-.492-.946-1.1v-6.577c0-.609.423-1.103.946-1.103.522 0 .946.494.946 1.103v6.577c0 .608-.424 1.1-.946 1.1m0 13.154C.423 87.7 0 87.206 0 86.597v-6.574c0-.611.423-1.103.946-1.103.522 0 .946.492.946 1.103v6.574c0 .609-.424 1.103-.946 1.103m0 13.152c-.522 0-.946-.492-.946-1.1v-6.578c0-.608.423-1.1.946-1.1.522 0 .946.492.946 1.1v6.578c0 .608-.424 1.1-.946 1.1m0 13.154c-.522 0-.946-.492-.946-1.1v-6.577c0-.609.423-1.103.946-1.103.522 0 .946.494.946 1.103v6.577c0 .608-.424 1.1-.946 1.1m0 13.154c-.522 0-.946-.494-.946-1.103v-6.577c0-.608.423-1.1.946-1.1.522 0 .946.492.946 1.1v6.577c0 .609-.424 1.103-.946 1.103m0 13.154c-.522 0-.946-.494-.946-1.103v-6.577c0-.608.423-1.1.946-1.1.522 0 .946.492.946 1.1v6.577c0 .609-.424 1.103-.946 1.103m0 13.154c-.522 0-.946-.494-.946-1.102v-6.577c0-.609.423-1.103.946-1.103.522 0 .946.494.946 1.103v6.577c0 .608-.424 1.102-.946 1.102m0 13.15c-.522 0-.946-.492-.946-1.1v-6.575c0-.609.423-1.1.946-1.1.522 0 .946.491.946 1.1v6.574c0 .609-.424 1.1-.946 1.1m0 13.157c-.522 0-.946-.494-.946-1.103v-6.577c0-.608.423-1.102.946-1.102.522 0 .946.494.946 1.102v6.577c0 .609-.424 1.103-.946 1.103m0 13.152c-.522 0-.946-.492-.946-1.1v-6.58c0-.606.423-1.098.946-1.098.522 0 .946.492.946 1.098v6.58c0 .608-.424 1.1-.946 1.1m0 13.152c-.522 0-.946-.492-.946-1.1V198.4c0-.608.423-1.103.946-1.103.522 0 .946.495.946 1.103v6.577c0 .609-.424 1.1-.946 1.1m0 13.157c-.522 0-.946-.492-.946-1.103v-6.577c0-.608.423-1.102.946-1.102.522 0 .946.494.946 1.102v6.577c0 .611-.424 1.103-.946 1.103m0 13.15c-.522 0-.946-.492-.946-1.099v-6.577c0-.608.423-1.1.946-1.1.522 0 .946.492.946 1.1v6.577c0 .607-.424 1.099-.946 1.099m0 13.156c-.522 0-.946-.494-.946-1.103v-6.577c0-.608.423-1.103.946-1.103.522 0 .946.495.946 1.103v6.577c0 .609-.424 1.103-.946 1.103m0 13.152c-.522 0-.946-.492-.946-1.1v-6.578c0-.608.423-1.1.946-1.1.522 0 .946.492.946 1.1v6.577c0 .609-.424 1.1-.946 1.1m0 13.155c-.522 0-.946-.494-.946-1.103v-6.575c0-.608.423-1.102.946-1.102.522 0 .946.494.946 1.102v6.575c0 .609-.424 1.103-.946 1.103m0 13.154c-.522 0-.946-.492-.946-1.103v-6.577c0-.608.423-1.1.946-1.1.522 0 .946.492.946 1.1v6.577c0 .611-.424 1.103-.946 1.103" mask="url(#t6rhrrq1cf)"/>
                </g>
                <g transform="translate(-177.000000, -2947.000000) translate(177.000000, 2947.000000) translate(0.000000, -0.000000)">
                    <mask id="miza6pqash" fill="#fff">
                        <use xlink:href="#o0entfi7qg"/>
                    </mask>
                    <path fill="#F7941D" d="M1 5C.448 5-.001 4.553-.001 4V1C-.001.446.448 0 1 0h2.999C4.553 0 5 .447 5 1c0 .554-.447 1-1.001 1H2v2c0 .553-.449 1-1.001 1" mask="url(#miza6pqash)"/>
                </g>
                <g transform="translate(-177.000000, -2947.000000) translate(177.000000, 2947.000000) translate(9.000000, 0.000000)">
                    <mask id="lna25g2u5j" fill="#fff">
                        <use xlink:href="#g0pj36shyi"/>
                    </mask>
                    <path fill="#F7941D" d="M7.783 1.89H1.105C.493 1.89 0 1.468 0 .946S.493 0 1.105 0h6.678c.612 0 1.105.424 1.105.946s-.493.944-1.105.944m13.36 0H14.46c-.607 0-1.1-.422-1.1-.944S13.853 0 14.46 0h6.684c.607 0 1.102.424 1.102.946s-.495.944-1.102.944m13.357 0h-6.679c-.61 0-1.104-.422-1.104-.944S27.213 0 27.822 0h6.68c.609 0 1.102.424 1.102.946s-.493.944-1.103.944m13.36 0h-6.679c-.611 0-1.104-.422-1.104-.944S40.57 0 41.182 0h6.68c.611 0 1.104.424 1.104.946s-.493.944-1.105.944m13.36 0h-6.68c-.61 0-1.103-.422-1.103-.944S53.931 0 54.54 0h6.681c.61 0 1.103.424 1.103.946s-.493.944-1.103.944m13.36 0h-6.68c-.61 0-1.103-.422-1.103-.944S67.291 0 67.9 0h6.682c.607 0 1.1.424 1.1.946s-.493.944-1.1.944m13.357 0H81.26c-.61 0-1.104-.422-1.104-.944S80.65 0 81.26 0h6.68c.611 0 1.104.424 1.104.946s-.493.944-1.105.944m13.36 0H94.62c-.611 0-1.104-.422-1.104-.944S94.009 0 94.62 0h6.68c.609 0 1.104.424 1.104.946s-.495.944-1.105.944m13.36 0h-6.68c-.608 0-1.1-.422-1.1-.944s.492-.946 1.1-.946h6.68c.608 0 1.103.424 1.103.946s-.495.944-1.103.944m13.358 0h-6.679c-.61 0-1.104-.422-1.104-.944S120.729 0 121.338 0h6.68c.611 0 1.104.424 1.104.946s-.493.944-1.105.944m13.36 0h-6.676c-.612 0-1.105-.422-1.105-.944S134.09 0 134.701 0h6.676c.612 0 1.105.424 1.105.946s-.493.944-1.105.944m13.363 0h-6.684c-.607 0-1.1-.422-1.1-.944s.493-.946 1.1-.946h6.684c.607 0 1.102.424 1.102.946s-.495.944-1.102.944m13.357 0h-6.68c-.61 0-1.105-.422-1.105-.944S160.807 0 161.416 0h6.681c.61 0 1.103.424 1.103.946s-.493.944-1.103.944m13.358 0h-6.676c-.612 0-1.105-.422-1.105-.944S174.167 0 174.779 0h6.676c.612 0 1.105.424 1.105.946s-.493.944-1.105.944m13.363 0h-6.682c-.61 0-1.102-.422-1.102-.944S187.527 0 188.136 0h6.682c.609 0 1.102.424 1.102.946s-.493.944-1.102.944m13.36 0h-6.684c-.61 0-1.1-.422-1.1-.944s.49-.946 1.1-.946h6.684c.607 0 1.1.424 1.1.946s-.493.944-1.1.944m13.355 0h-6.677c-.609 0-1.104-.422-1.104-.944S214.247 0 214.856 0h6.677c.612 0 1.105.424 1.105.946s-.493.944-1.105.944m13.362 0h-6.678c-.612 0-1.105-.422-1.105-.944S227.605 0 228.217 0h6.678c.61 0 1.105.424 1.105.946s-.495.944-1.105.944" mask="url(#lna25g2u5j)"/>
                </g>
                <path fill="#F7941D" d="M255 5c-.553 0-1.002-.447-1.002-1V2h-2c-.552 0-.998-.446-.998-1 0-.553.446-1 .999-1h3c.552 0 1.001.447 1.001 1v3c0 .553-.449 1-1 1M255 17.78c-.552 0-1-.492-1-1.1v-6.577c0-.611.448-1.103 1-1.103s1 .492 1 1.103v6.577c0 .608-.448 1.1-1 1.1m0 13.154c-.552 0-1-.494-1-1.102v-6.577c0-.609.448-1.103 1-1.103s1 .494 1 1.103v6.577c0 .608-.448 1.102-1 1.102m0 13.152c-.552 0-1-.492-1-1.1v-6.577c0-.609.448-1.1 1-1.1s1 .491 1 1.1v6.577c0 .608-.448 1.1-1 1.1m0 13.154c-.552 0-1-.494-1-1.103v-6.574c0-.609.448-1.103 1-1.103s1 .494 1 1.103v6.574c0 .609-.448 1.103-1 1.103m0 13.152c-.552 0-1-.492-1-1.1v-6.577c0-.609.448-1.1 1-1.1s1 .491 1 1.1v6.577c0 .608-.448 1.1-1 1.1m0 13.154c-.552 0-1-.492-1-1.1v-6.577c0-.611.448-1.103 1-1.103s1 .492 1 1.103v6.577c0 .608-.448 1.1-1 1.1m0 13.154c-.552 0-1-.494-1-1.103v-6.574c0-.611.448-1.103 1-1.103s1 .492 1 1.103v6.574c0 .609-.448 1.103-1 1.103m0 13.152c-.552 0-1-.492-1-1.1v-6.578c0-.608.448-1.1 1-1.1s1 .492 1 1.1v6.578c0 .608-.448 1.1-1 1.1m0 13.154c-.552 0-1-.492-1-1.1v-6.577c0-.609.448-1.103 1-1.103s1 .494 1 1.103v6.577c0 .608-.448 1.1-1 1.1m0 13.154c-.552 0-1-.494-1-1.103v-6.577c0-.608.448-1.1 1-1.1s1 .492 1 1.1v6.577c0 .609-.448 1.103-1 1.103m0 13.154c-.552 0-1-.494-1-1.103v-6.574c0-.611.448-1.103 1-1.103s1 .492 1 1.103v6.574c0 .609-.448 1.103-1 1.103m0 13.152c-.552 0-1-.494-1-1.103v-6.574c0-.609.448-1.103 1-1.103s1 .494 1 1.103v6.574c0 .609-.448 1.103-1 1.103m0 13.154c-.552 0-1-.492-1-1.103v-6.574c0-.611.448-1.103 1-1.103s1 .492 1 1.103v6.574c0 .611-.448 1.103-1 1.103m0 13.152c-.552 0-1-.492-1-1.098v-6.58c0-.606.448-1.1 1-1.1s1 .494 1 1.1v6.58c0 .606-.448 1.098-1 1.098m0 13.154c-.552 0-1-.492-1-1.103v-6.577c0-.608.448-1.1 1-1.1s1 .492 1 1.1v6.577c0 .611-.448 1.103-1 1.103m0 13.154c-.552 0-1-.492-1-1.1v-6.577c0-.611.448-1.103 1-1.103s1 .492 1 1.103v6.577c0 .608-.448 1.1-1 1.1m0 13.152c-.552 0-1-.492-1-1.103v-6.575c0-.608.448-1.1 1-1.1s1 .492 1 1.1v6.575c0 .61-.448 1.103-1 1.103m0 13.154c-.552 0-1-.492-1-1.103v-6.575c0-.61.448-1.102 1-1.102s1 .492 1 1.102v6.575c0 .611-.448 1.103-1 1.103m0 13.154c-.552 0-1-.494-1-1.1v-6.58c0-.606.448-1.1 1-1.1s1 .494 1 1.1v6.58c0 .606-.448 1.1-1 1.1m0 13.152c-.552 0-1-.492-1-1.103v-6.575c0-.61.448-1.102 1-1.102s1 .491 1 1.102v6.575c0 .61-.448 1.103-1 1.103m0 13.154c-.552 0-1-.492-1-1.1v-6.578c0-.608.448-1.102 1-1.102s1 .494 1 1.102v6.577c0 .609-.448 1.1-1 1.1M255 294c-.552 0-1-.492-1-1.103v-6.577c0-.608.448-1.1 1-1.1s1 .492 1 1.1v6.577c0 .611-.448 1.103-1 1.103" transform="translate(-177.000000, -2947.000000) translate(177.000000, 2947.000000)"/>
                <path fill="#EFAC62" d="M189.964 94.671c0-27.687-8.637-67.195-63.44-68.636-54.803-1.441-63.217 41.803-65.233 68.636-1.785 23.757 5.167 35.128 6.786 37.428-2.023-28.858 4.14-56.044 4.14-56.044 0-7.064 8.982-18.987 8.982-18.987s11.248 29.22 45.325 29.22c34.08 0 45.307-27.1 45.307-27.1s8.31 10.458 10.447 24.092l.913 3.008c1.708 13.006 3.1 30.947 1.414 48.712h.011c6.17-3.467 5.348-12.641 5.348-40.329" transform="translate(-177.000000, -2947.000000) translate(177.000000, 2947.000000)"/>
                <path fill="#EFAC62" d="M171.76 58.127c.333 0 .65.15.862.416.346.437 8.503 10.826 10.656 24.561l.877 2.856c1.565 11.786 3.044 29.014 1.684 46.428 3.034-3.702 3.006-11.76 2.941-29.054-.007-2.672-.019-5.563-.019-8.69 0-43.637-20.948-66.313-62.27-67.401-39.638-1.08-60.52 21.035-64.002 67.485-1.255 16.69 1.883 27.151 4.308 32.527-1.033-25.846 3.982-49.424 4.397-51.315.098-7.344 8.82-18.994 9.193-19.492.242-.317.634-.474 1.033-.427.394.056.733.32.875.696.11.285 11.387 28.458 44.225 28.458 32.91 0 44.113-26.104 44.22-26.368.152-.36.48-.614.868-.668.049-.01.1-.012.151-.012M184.525 136c-.31 0-.61-.13-.82-.362-.208-.229-.318-.537-.288-.845 1.715-18.084.18-36.284-1.408-48.368l-.873-2.828c-1.637-10.385-6.913-18.931-9.185-22.224-1.304 2.487-4.213 7.314-9.288 12.178-6.585 6.31-18.199 13.829-36.143 13.829-29.404 0-42.28-21.628-45.464-28.078C78.71 62.678 73.4 70.898 73.4 76.066c0 .08-.01.161-.03.243-.06.268-6.091 27.316-4.106 55.614.033.493-.266.948-.73 1.116-.476.168-.987 0-1.271-.404-1.486-2.106-8.794-13.838-6.972-38.072 1.32-17.593 5.386-71.194 66.258-69.525 42.144 1.107 64.418 25.175 64.418 69.606 0 3.125.009 6.011.018 8.683.077 21.207.108 29.145-5.92 32.533-.163.093-.35.14-.539.14" transform="translate(-177.000000, -2947.000000) translate(177.000000, 2947.000000)"/>
                <path fill="#A55D0F" d="M96 117c0 2.21-1.79 4-4 4s-4-1.79-4-4 1.79-4 4-4 4 1.79 4 4" transform="translate(-177.000000, -2947.000000) translate(177.000000, 2947.000000)"/>
                <path fill="#F7941D" d="M92 114.15c-1.57 0-2.852 1.279-2.852 2.851 0 1.57 1.282 2.849 2.852 2.849 1.568 0 2.85-1.279 2.85-2.849 0-1.572-1.282-2.85-2.85-2.85M92 122c-2.758 0-5-2.243-5-4.999 0-2.758 2.242-5.001 5-5.001 2.756 0 5 2.243 5 5.001 0 2.756-2.244 4.999-5 4.999M124.746 236c-7.944 0-15.012-1.238-20.945-2.918-18.606-5.268-29.974-15.583-30.45-16.02-.225-.206-.351-.497-.351-.8v-52.17c0-.602.493-1.092 1.102-1.092.61 0 1.103.49 1.103 1.093v51.678c4.335 3.698 47.765 38.508 100.588-.058V169.29c0-.603.493-1.093 1.102-1.093.612 0 1.105.49 1.105 1.093v46.972c0 .344-.163.67-.446.875C158.023 231.536 139.81 236 124.746 236" transform="translate(-177.000000, -2947.000000) translate(177.000000, 2947.000000)"/>
                <path fill="#EFAC62" d="M126.838 198.816C97.137 198.816 81.648 183.14 74 163c.042 8.406.16 30.208.16 30.64 0 0 69.399 34.452 102.84-22.296v-4.996c-8.027 18.641-23.123 32.468-50.162 32.468" transform="translate(-177.000000, -2947.000000) translate(177.000000, 2947.000000)"/>
                <path fill="#EFAC62" d="M75.369 193.01c5.352 2.464 44.737 19.44 76.44 2.028-7.23 3.284-15.563 4.932-24.97 4.932-24.547 0-41.878-10.54-51.601-31.35.049 8.75.114 21.31.13 24.39m44.03 11.99c-24.358.002-45.244-10.124-45.625-10.315-.374-.185-.61-.564-.61-.982 0-.431-.116-22.205-.163-30.6-.002-.532.378-.99.904-1.084.521-.098 1.047.192 1.233.69 8.833 23.27 26.227 35.07 51.702 35.07 23.474 0 39.976-10.69 49.04-31.768.205-.483.712-.75 1.238-.643.512.104.883.552.883 1.075v4.988c0 .195-.054.385-.152.554C162.587 197.91 139.773 205 119.398 205" transform="translate(-177.000000, -2947.000000) translate(177.000000, 2947.000000)"/>
                <path fill="#F7941D" d="M59.507 129C52.059 129 46 122.945 46 115.501 46 108.058 52.059 102 59.507 102c.837 0 1.674.078 2.492.231.61.113 1.012.68.892 1.27-.122.588-.727.966-1.327.853-.672-.126-1.366-.187-2.057-.187-6.205 0-11.25 5.084-11.25 11.334 0 6.248 5.045 11.335 11.25 11.335 2.035 0 4.028-.555 5.76-1.599.53-.311 1.226-.167 1.559.341.332.506.175 1.173-.354 1.491-2.095 1.262-4.506 1.931-6.965 1.931" transform="translate(-177.000000, -2947.000000) translate(177.000000, 2947.000000)"/>
                <path fill="#F7941D" d="M60.603 123C55.86 123 52 119.634 52 115.501c0-4.135 3.86-7.501 8.603-7.501.464 0 .917.032 1.364.093.633.089 1.076.674.988 1.31-.086.638-.67 1.092-1.305.992-.343-.047-.689-.072-1.047-.072-3.465 0-6.285 2.324-6.285 5.178 0 2.855 2.82 5.176 6.285 5.176.981 0 1.923-.182 2.798-.541.587-.244 1.268.04 1.514.634.24.593-.045 1.271-.636 1.515-1.155.474-2.393.715-3.676.715M191.61 130c-.917 0-1.832-.096-2.726-.282-.607-.126-.989-.7-.858-1.285.128-.581.723-.96 1.33-.829.737.154 1.498.232 2.255.232 6.15 0 11.15-5.085 11.15-11.336 0-6.25-5-11.336-11.15-11.336-.418 0-.833.023-1.236.07-.611.061-1.171-.358-1.24-.954-.07-.593.368-1.131.984-1.198.491-.055.987-.082 1.492-.082 7.385 0 13.389 6.054 13.389 13.5 0 7.444-6.004 13.5-13.39 13.5" transform="translate(-177.000000, -2947.000000) translate(177.000000, 2947.000000)"/>
                <path fill="#F7941D" d="M190.07 124c-.593 0-1.07-.519-1.07-1.163 0-.642.477-1.16 1.07-1.16 3.194 0 5.794-2.324 5.794-5.178 0-2.855-2.6-5.176-5.795-5.176-.592 0-1.069-.52-1.069-1.163 0-.641.477-1.16 1.07-1.16 4.372 0 7.93 3.363 7.93 7.499 0 4.135-3.558 7.501-7.93 7.501M82.106 105c-.32 0-.637-.127-.857-.375-.385-.435-.317-1.075.157-1.43.307-.231 7.682-5.678 21.269-8.175.57-.11 1.18.243 1.303.797.122.554-.267 1.088-.87 1.198-13.005 2.392-20.231 7.705-20.304 7.757-.204.153-.452.228-.698.228" transform="translate(-177.000000, -2947.000000) translate(177.000000, 2947.000000)"/>
                <path fill="#F2E7DA" d="M96 145.5c0-6.903-7.208-12.5-16.1-12.5-4.21 0-8.032 1.263-10.9 3.317.668 6.883 1.859 13.795 3.77 20.379 2.152.828 4.564 1.304 7.13 1.304 8.892 0 16.1-5.597 16.1-12.5" transform="translate(-177.000000, -2947.000000) translate(177.000000, 2947.000000)"/>
                <path fill="#F2E7DA" d="M73.72 156.702c1.966.715 4.05 1.079 6.194 1.079 8.228 0 14.923-5.285 14.923-11.78 0-6.495-6.695-11.78-14.923-11.78-3.564 0-6.98 1.009-9.693 2.852.694 7.083 1.873 13.68 3.498 19.629M79.914 160c-2.6 0-5.114-.477-7.477-1.418-.313-.124-.556-.397-.648-.728-1.792-6.401-3.065-13.54-3.784-21.216-.037-.393.133-.776.444-1.006C71.6 133.29 75.672 132 79.914 132 89.333 132 97 138.281 97 146.001S89.333 160 79.914 160M171.397 133c-9.055 0-16.397 5.596-16.397 12.499 0 6.905 7.342 12.501 16.397 12.501 3.363 0 6.485-.775 9.087-2.1 1.684-5.924 2.81-12.131 3.516-18.391-3.007-2.754-7.537-4.509-12.603-4.509" transform="translate(-177.000000, -2947.000000) translate(177.000000, 2947.000000)"/>
                <path fill="#F2E7DA" d="M171.383 134.221c-8.372 0-15.182 5.285-15.182 11.78 0 6.493 6.81 11.778 15.182 11.778 2.877 0 5.665-.628 8.09-1.82 1.456-5.426 2.553-11.392 3.27-17.758-2.888-2.536-6.997-3.98-11.36-3.98m0 25.779c-9.586 0-17.383-6.281-17.383-13.999 0-7.72 7.797-14.001 17.383-14.001 5.125 0 9.963 1.805 13.271 4.95.252.24.375.584.34.93-.748 6.88-1.931 13.321-3.527 19.144-.081.296-.28.545-.55.686-2.837 1.5-6.133 2.29-9.534 2.29" transform="translate(-177.000000, -2947.000000) translate(177.000000, 2947.000000)"/>
                <path fill="#F7941D" d="M90.5 104.215c-11.758 0-21.322 7.755-21.322 17.285 0 9.53 9.564 17.285 21.322 17.285s21.324-7.755 21.324-17.285c0-9.53-9.566-17.285-21.324-17.285m0 36.785c-12.959 0-23.5-8.747-23.5-19.5 0-10.751 10.541-19.5 23.5-19.5s23.5 8.749 23.5 19.5c0 10.753-10.541 19.5-23.5 19.5M171.893 105c-.244 0-.492-.075-.698-.228-.07-.052-7.296-5.365-20.303-7.757-.603-.11-.992-.644-.87-1.198.122-.554.727-.907 1.303-.797 13.586 2.497 20.962 7.944 21.268 8.174.474.356.544.996.157 1.431-.217.248-.536.375-.857.375" transform="translate(-177.000000, -2947.000000) translate(177.000000, 2947.000000)"/>
                <path fill="#F7941D" d="M163.499 104.215c-11.758 0-21.321 7.755-21.321 17.285 0 9.53 9.563 17.285 21.32 17.285 11.76 0 21.324-7.755 21.324-17.285 0-9.53-9.563-17.285-21.323-17.285m0 36.785C150.54 141 140 132.253 140 121.5c0-10.751 10.54-19.5 23.499-19.5 12.958 0 23.501 8.749 23.501 19.5 0 10.753-10.543 19.5-23.501 19.5M121.927 167c-17.498 0-22.568-8.056-22.777-8.4-.302-.502-.134-1.153.375-1.452.503-.294 1.162-.139 1.469.362.045.074 4.767 7.37 20.933 7.37.593 0 1.073.473 1.073 1.059 0 .585-.48 1.061-1.073 1.061" transform="translate(-177.000000, -2947.000000) translate(177.000000, 2947.000000)"/>
                <path fill="#F7941D" d="M81.435 59.304C79.083 62.695 73.76 70.95 73.76 76.14c0 .082-.01.164-.03.246-.04.174-3.957 17.722-4.469 39.246-.468 19.764 1.92 47.027 15.959 64.66 9.769 12.273 24.03 18.493 42.39 18.493 16.702 0 29.958-5.474 39.395-16.27 21.353-24.42 18.958-70.61 15.629-95.97l-.875-2.841c-.016-.05-.023-.098-.033-.15-1.613-10.31-6.897-18.869-9.173-22.17-1.307 2.497-4.222 7.347-9.313 12.233-6.598 6.337-18.24 13.889-36.229 13.889-29.476 0-42.385-21.723-45.575-28.2M127.61 201c-19.066 0-33.91-6.504-44.118-19.328-14.46-18.165-16.918-45.993-16.436-66.135.496-20.799 4.143-37.927 4.492-39.522.098-7.376 8.843-19.08 9.217-19.577.241-.319.634-.478 1.034-.43.397.055.736.322.879.697.11.287 11.415 28.583 44.333 28.583 32.99 0 44.219-26.216 44.329-26.481.152-.361.48-.62.867-.673.382-.061.774.098 1.02.408.344.436 8.492 10.833 10.667 24.591l.893 2.946c3.416 25.907 5.808 72.82-16.12 97.896C158.79 195.273 144.976 201 127.61 201" transform="translate(-177.000000, -2947.000000) translate(177.000000, 2947.000000)"/>
                <path fill="#F7941D" d="M122.086 150c-.582 0-1.065-.473-1.085-1.073-.021-.612.448-1.127 1.046-1.148 5.19-.189 13.024-1.172 14.988-2.789.24-2.925 1.592-20.953.11-35.766-.061-.61.37-1.156.971-1.22.589-.054 1.127.38 1.19.994 1.632 16.307-.123 36.4-.141 36.6-.02.234-.113.453-.262.63-2.643 3.106-14.439 3.687-16.778 3.772h-.039" transform="translate(-177.000000, -2947.000000) translate(177.000000, 2947.000000)"/>
                <path fill="#F7941D" d="M113.101 123c-.452 0-.877-.25-1.038-.653-.203-.51.1-1.069.672-1.247.261-.083 6.484-2.012 14.387-2.1 7.97-.05 13.046 2.05 13.256 2.141.549.235.775.819.514 1.304-.264.485-.924.69-1.472.46-.045-.021-4.838-2.03-12.274-1.946-7.516.083-13.613 1.966-13.679 1.987-.121.035-.242.054-.366.054M85.476 246c-12.909 0-25.425-2.465-34.051-6.903C44.607 235.588 41 231.203 41 226.407c0-18.379 32.447-27.01 33.83-27.368.59-.162 1.184.2 1.335.781.155.583-.198 1.182-.782 1.332-.32.088-32.19 8.562-32.19 25.255 0 4.956 5.025 8.58 9.24 10.747 18.1 9.309 53.86 9.709 72.835-3.728.49-.35 1.179-.236 1.53.257.35.492.234 1.174-.258 1.521C116.006 242.663 100.48 246 85.476 246" transform="translate(-177.000000, -2947.000000) translate(177.000000, 2947.000000)"/>
                <path fill="#F7941D" d="M255.897 304H2.104c-.32 0-.621-.137-.829-.375-.21-.24-.306-.555-.266-.87C1.436 299.55 11.668 225 40.609 225c.292 0 .58.01.873.023.61.03 1.077.548 1.047 1.156-.03.603-.5 1.132-1.156 1.041-25.602-1.353-36.506 64.62-37.996 74.58h251.282c-1.18-9.729-10.23-74.577-41.312-74.577h-.014c-.61 0-1.102-.492-1.102-1.102 0-.606.493-1.098 1.102-1.098h.014c14.765 0 26.998 13.53 35.385 39.137 6.247 19.09 8.242 38.435 8.263 38.628.03.31-.073.618-.278.85-.21.23-.507.362-.82.362" transform="translate(-177.000000, -2947.000000) translate(177.000000, 2947.000000)"/>
                <path fill="#F7941D" d="M113.051 278c-.024 0-.046 0-.07-.002-.579-.042-1.017-.56-.979-1.164.087-1.358 2.2-33.332 8.157-40.457.377-.453 1.042-.509 1.48-.106.438.393.484 1.087.102 1.54-5.496 6.574-7.623 38.845-7.643 39.171-.038.578-.498 1.018-1.047 1.018M169.525 246c-15.006 0-30.53-3.318-41.063-10.741-.494-.345-.61-1.024-.26-1.514s1.04-.6 1.53-.256c18.97 13.37 54.735 12.976 72.835 3.71 4.215-2.156 9.24-5.762 9.24-10.693 0-16.634-34.528-26.278-34.878-26.372-.585-.161-.928-.76-.768-1.337.164-.578.77-.914 1.35-.76 1.49.408 36.489 10.196 36.489 28.469 0 4.772-3.607 9.135-10.425 12.625-8.625 4.414-21.146 6.869-34.05 6.869" transform="translate(-177.000000, -2947.000000) translate(177.000000, 2947.000000)"/>
                <path fill="#F7941D" d="M140.947 278c-.549 0-1.009-.44-1.047-1.018-.02-.326-2.146-32.597-7.641-39.17-.382-.454-.336-1.148.102-1.541.436-.403 1.102-.347 1.48.106 5.957 7.125 8.068 39.1 8.157 40.457.036.604-.402 1.122-.98 1.164-.024.002-.047.002-.071.002" transform="translate(-177.000000, -2947.000000) translate(177.000000, 2947.000000)"/>
                <path fill="#A55D0F" d="M167 117c0 2.21-1.79 4-4.002 4-2.208 0-3.998-1.79-3.998-4s1.79-4 3.998-4c2.212 0 4.002 1.79 4.002 4" transform="translate(-177.000000, -2947.000000) translate(177.000000, 2947.000000)"/>
                <path fill="#F7941D" d="M163 114.15c-1.568 0-2.85 1.279-2.85 2.851 0 1.57 1.282 2.849 2.85 2.849 1.57 0 2.852-1.279 2.852-2.849 0-1.572-1.282-2.85-2.852-2.85m0 7.849c-2.756 0-5-2.243-5-4.999 0-2.758 2.244-5.001 5-5.001 2.758 0 5 2.243 5 5.001 0 2.756-2.242 4.999-5 4.999" transform="translate(-177.000000, -2947.000000) translate(177.000000, 2947.000000)"/>
            </g>
        </g>
    </g>
</svg>
